M48
; DRILL file KiCad 10.0.6 date 2026-10-03T14:45:12
; FORMAT={-:-/ absolute / metric / decimal}
; #@! TF.CreationDate,2026-10-03T14:45:12+00:00
; #@! TF.GenerationSoftware,Kicad,Pcbnew,10.0.6
; #@! TF.FileFunction,MixedPlating,1,2
FMAT,2
METRIC
; #@! TA.AperFunction,Plated,PTH,ViaDrill
T1C0.300
; #@! TA.AperFunction,Plated,PTH,ComponentDrill
T2C0.800
; #@! TA.AperFunction,Plated,PTH,ComponentDrill
T3C0.900
; #@! TA.AperFunction,Plated,PTH,ComponentDrill
T4C1.000
; #@! TA.AperFunction,Plated,PTH,ComponentDrill
T5C1.016
; #@! TA.AperFunction,Plated,PTH,ComponentDrill
T6C1.100
; #@! TA.AperFunction,Plated,PTH,ComponentDrill
T7C1.300
; #@! TA.AperFunction,NonPlated,NPTH,ComponentDrill
T8C3.200
%
G90
G05
T1
X61.939Y-87.083
X64.724Y-96.043
X73.801Y-182.316
X74.316Y-62.685
X75.243Y-128.861
X75.849Y-49.222
X76.308Y-48.397
X76.358Y-46.059
X76.541Y-129.691
X76.854Y-131.082
X79.403Y-130.635
X80.608Y-162.5
X81.812Y-134.133
X83.16Y-137.5
X86.692Y-144.758
X87.923Y-135.332
X97.96Y-97.845
X99.219Y-140.506
X106.958Y-148.562
X115.409Y-84.097
X116.533Y-45.033
X117.763Y-49.252
X127.954Y-97.845
X131.507Y-42.47
X167.827Y-90.442
X177.864Y-37.84
X179.377Y-48.0
X180.414Y-46.315
X200.641Y-53.84
X202.414Y-58.045
X263.16Y-128.0
T2
X132.0Y-56.0
X132.0Y-86.0
X137.0Y-56.0
X137.0Y-86.0
T3
X58.0Y-132.5
X58.0Y-137.5
X58.0Y-147.5
X58.0Y-152.5
X58.0Y-162.5
X58.0Y-167.5
X68.16Y-132.5
X68.16Y-137.5
X68.16Y-147.5
X68.16Y-152.5
X68.16Y-162.5
X68.16Y-167.5
X78.0Y-132.5
X78.0Y-137.5
X78.0Y-147.5
X78.0Y-152.5
X78.0Y-162.5
X78.0Y-167.5
X88.16Y-132.5
X88.16Y-137.5
X88.16Y-147.5
X88.16Y-152.5
X88.16Y-162.5
X88.16Y-167.5
X98.0Y-132.5
X98.0Y-137.5
X98.0Y-147.5
X98.0Y-152.5
X98.0Y-162.5
X98.0Y-167.5
X108.16Y-132.5
X108.16Y-137.5
X108.16Y-147.5
X108.16Y-152.5
X108.16Y-162.5
X108.16Y-167.5
X135.0Y-62.0
X135.0Y-64.54
X135.0Y-67.08
X135.0Y-69.62
X135.0Y-72.16
X135.0Y-74.7
X135.0Y-77.24
X135.0Y-79.78
X135.0Y-82.32
X135.0Y-92.0
X135.0Y-94.54
X135.0Y-97.08
X135.0Y-99.62
X135.0Y-102.16
X135.0Y-104.7
X135.0Y-107.24
X135.0Y-109.78
X135.0Y-112.32
X145.16Y-62.0
X145.16Y-64.54
X145.16Y-67.08
X145.16Y-69.62
X145.16Y-72.16
X145.16Y-74.7
X145.16Y-77.24
X145.16Y-79.78
X145.16Y-82.32
X145.16Y-92.0
X145.16Y-94.54
X145.16Y-97.08
X145.16Y-99.62
X145.16Y-102.16
X145.16Y-104.7
X145.16Y-107.24
X145.16Y-109.78
X145.16Y-112.32
T4
X48.0Y-145.0
X48.0Y-156.0
X50.5Y-145.0
X53.0Y-145.0
X55.6Y-156.0
X126.0Y-120.0
X131.0Y-120.0
T5
X46.796Y-41.2
X49.336Y-41.2
X51.876Y-41.2
X54.416Y-41.2
X55.94Y-89.46
X56.956Y-41.2
X58.48Y-89.46
X59.496Y-41.2
X61.02Y-89.46
X62.036Y-41.2
X63.56Y-89.46
X64.576Y-41.2
X66.1Y-89.46
X67.116Y-41.2
X68.64Y-89.46
X69.656Y-41.2
X71.18Y-89.46
X73.72Y-41.2
X73.72Y-89.46
X76.26Y-41.2
X78.8Y-41.2
X78.8Y-89.46
X81.34Y-41.2
X81.34Y-89.46
X83.88Y-41.2
X83.88Y-89.46
X86.42Y-41.2
X86.42Y-89.46
X88.96Y-41.2
X88.96Y-89.46
X91.5Y-41.2
X91.5Y-89.46
X91.627Y-61.52
X91.627Y-64.06
X91.627Y-66.6
X94.04Y-89.46
X94.167Y-61.52
X94.167Y-64.06
X94.167Y-66.6
X96.58Y-41.2
X96.58Y-89.46
X99.12Y-41.2
X101.66Y-41.2
X101.66Y-89.46
X104.2Y-41.2
X104.2Y-89.46
X106.74Y-41.2
X106.74Y-89.46
X109.28Y-41.2
X109.28Y-89.46
X111.82Y-41.2
X111.82Y-89.46
X114.36Y-41.2
X114.36Y-89.46
X116.9Y-89.46
X119.44Y-89.46
X121.98Y-41.2
X121.98Y-43.74
X121.98Y-46.28
X121.98Y-48.82
X121.98Y-51.36
X121.98Y-53.9
X121.98Y-56.44
X121.98Y-58.98
X121.98Y-61.52
X121.98Y-64.06
X121.98Y-66.6
X121.98Y-69.14
X121.98Y-71.68
X121.98Y-74.22
X121.98Y-76.76
X121.98Y-79.3
X121.98Y-81.84
X121.98Y-84.38
X124.52Y-41.2
X124.52Y-43.74
X124.52Y-46.28
X124.52Y-48.82
X124.52Y-51.36
X124.52Y-53.9
X124.52Y-56.44
X124.52Y-58.98
X124.52Y-61.52
X124.52Y-64.06
X124.52Y-66.6
X124.52Y-69.14
X124.52Y-71.68
X124.52Y-74.22
X124.52Y-76.76
X124.52Y-79.3
X124.52Y-81.84
X124.52Y-84.38
T6
X70.0Y-135.0
X70.0Y-150.0
X70.0Y-165.0
X72.54Y-135.0
X72.54Y-150.0
X72.54Y-165.0
X75.08Y-135.0
X75.08Y-150.0
X75.08Y-165.0
X90.0Y-135.0
X90.0Y-150.0
X90.0Y-165.0
X92.54Y-135.0
X92.54Y-150.0
X92.54Y-165.0
X95.08Y-135.0
X95.08Y-150.0
X95.08Y-165.0
X110.0Y-135.0
X110.0Y-150.0
X110.0Y-165.0
X112.54Y-135.0
X112.54Y-150.0
X112.54Y-165.0
X115.08Y-135.0
X115.08Y-150.0
X115.08Y-165.0
T7
X28.0Y-184.0
X33.08Y-184.0
X42.0Y-184.0
X47.08Y-184.0
X52.16Y-184.0
X57.24Y-184.0
X65.0Y-184.0
X70.08Y-184.0
X78.0Y-184.0
X83.08Y-184.0
X91.0Y-184.0
X96.08Y-184.0
X108.0Y-184.0
X113.08Y-184.0
X118.16Y-184.0
X123.24Y-184.0
X132.0Y-184.0
X137.08Y-184.0
X142.16Y-184.0
X147.24Y-184.0
X150.0Y-42.22
X150.0Y-49.84
X150.0Y-60.0
X150.0Y-97.22
X150.0Y-104.84
X150.0Y-115.0
X156.0Y-184.0
X157.62Y-44.76
X157.62Y-60.0
X157.62Y-99.76
X157.62Y-115.0
X161.08Y-184.0
X165.0Y-27.0
X166.16Y-184.0
X168.0Y-42.22
X168.0Y-49.84
X168.0Y-60.0
X168.0Y-97.22
X168.0Y-104.84
X168.0Y-115.0
X170.08Y-27.0
X171.24Y-184.0
X175.16Y-27.0
X175.62Y-44.76
X175.62Y-60.0
X175.62Y-99.76
X175.62Y-115.0
X180.0Y-184.0
X182.0Y-27.0
X185.08Y-184.0
X186.0Y-42.22
X186.0Y-49.84
X186.0Y-60.0
X186.0Y-97.22
X186.0Y-104.84
X186.0Y-115.0
X187.08Y-27.0
X190.16Y-184.0
X192.16Y-27.0
X193.62Y-44.76
X193.62Y-60.0
X193.62Y-99.76
X193.62Y-115.0
X198.0Y-184.0
X199.0Y-27.0
X203.08Y-184.0
X204.0Y-42.22
X204.0Y-49.84
X204.0Y-60.0
X204.0Y-97.22
X204.0Y-104.84
X204.0Y-115.0
X204.08Y-27.0
X208.16Y-184.0
X209.16Y-27.0
X211.62Y-44.76
X211.62Y-60.0
X211.62Y-99.76
X211.62Y-115.0
X216.0Y-27.0
X221.08Y-27.0
X222.0Y-42.22
X222.0Y-49.84
X222.0Y-60.0
X222.0Y-97.22
X222.0Y-104.84
X222.0Y-115.0
X226.16Y-27.0
X229.62Y-44.76
X229.62Y-60.0
X229.62Y-99.76
X229.62Y-115.0
X233.0Y-27.0
X238.08Y-27.0
X240.0Y-42.22
X240.0Y-49.84
X240.0Y-60.0
X240.0Y-97.22
X240.0Y-104.84
X240.0Y-115.0
X243.16Y-27.0
X247.62Y-44.76
X247.62Y-60.0
X247.62Y-99.76
X247.62Y-115.0
X250.0Y-27.0
X255.08Y-27.0
X258.0Y-42.22
X258.0Y-49.84
X258.0Y-60.0
X258.0Y-97.22
X258.0Y-104.84
X258.0Y-115.0
X260.16Y-27.0
X265.62Y-44.76
X265.62Y-60.0
X265.62Y-99.76
X265.62Y-115.0
X267.0Y-27.0
X272.08Y-27.0
X276.0Y-42.22
X276.0Y-49.84
X276.0Y-60.0
X276.0Y-97.22
X276.0Y-104.84
X276.0Y-115.0
X277.16Y-27.0
X283.62Y-44.76
X283.62Y-60.0
X283.62Y-99.76
X283.62Y-115.0
X284.0Y-27.0
X289.08Y-27.0
X292.0Y-37.84
X292.0Y-42.92
X292.0Y-48.0
X292.0Y-53.84
X292.0Y-58.92
X292.0Y-64.0
X292.0Y-69.84
X292.0Y-74.92
X292.0Y-80.0
X292.0Y-85.84
X292.0Y-90.92
X292.0Y-96.0
X292.0Y-101.84
X292.0Y-106.92
X292.0Y-112.0
X292.0Y-117.84
X292.0Y-122.92
X292.0Y-128.0
X292.0Y-133.84
X292.0Y-138.92
X292.0Y-144.0
X292.0Y-149.84
X292.0Y-154.92
X292.0Y-160.0
X294.16Y-27.0
T8
X27.0Y-27.0
X27.0Y-170.0
X41.97Y-89.46
X43.24Y-41.2
X94.04Y-56.44
X94.04Y-84.38
X118.17Y-41.2
X124.52Y-89.46
X135.0Y-27.0
X135.0Y-170.0
X150.0Y-27.0
X293.0Y-183.0
M30
