%TF.GenerationSoftware,KiCad,Pcbnew,10.0.6*%
%TF.CreationDate,2026-10-03T18:11:00+00:00*%
%TF.ProjectId,PSN-Presepe-Mega-FREEROUTED,50534e2d-5072-4657-9365-70652d4d6567,rev?*%
%TF.SameCoordinates,Original*%
%TF.FileFunction,Copper,L1,Top*%
%TF.FilePolarity,Positive*%
%FSLAX46Y46*%
G04 Gerber Fmt 4.6, Leading zero omitted, Abs format (unit mm)*
G04 Created by KiCad (PCBNEW 10.0.6) date 2026-10-03 18:11:00*
%MOMM*%
%LPD*%
G01*
G04 APERTURE LIST*
%TA.AperFunction,ComponentPad*%
%ADD10R,2.400000X2.400000*%
%TD*%
%TA.AperFunction,ComponentPad*%
%ADD11C,2.400000*%
%TD*%
%TA.AperFunction,ComponentPad*%
%ADD12R,2.600000X2.600000*%
%TD*%
%TA.AperFunction,ComponentPad*%
%ADD13C,2.600000*%
%TD*%
%TA.AperFunction,ComponentPad*%
%ADD14R,1.800000X1.800000*%
%TD*%
%TA.AperFunction,ComponentPad*%
%ADD15C,1.800000*%
%TD*%
%TA.AperFunction,ComponentPad*%
%ADD16R,2.000000X2.000000*%
%TD*%
%TA.AperFunction,ComponentPad*%
%ADD17C,2.000000*%
%TD*%
%TA.AperFunction,ComponentPad*%
%ADD18O,1.727200X1.727200*%
%TD*%
%TA.AperFunction,ComponentPad*%
%ADD19R,1.727200X1.727200*%
%TD*%
%TA.AperFunction,ViaPad*%
%ADD20C,0.600000*%
%TD*%
%TA.AperFunction,Conductor*%
%ADD21C,3.000000*%
%TD*%
%TA.AperFunction,Conductor*%
%ADD22C,1.727000*%
%TD*%
%TA.AperFunction,Conductor*%
%ADD23C,1.799800*%
%TD*%
%TA.AperFunction,Conductor*%
%ADD24C,1.999800*%
%TD*%
%TA.AperFunction,Conductor*%
%ADD25C,0.200000*%
%TD*%
%TA.AperFunction,Conductor*%
%ADD26C,0.800000*%
%TD*%
%TA.AperFunction,Conductor*%
%ADD27C,1.500000*%
%TD*%
%TA.AperFunction,Conductor*%
%ADD28C,2.000000*%
%TD*%
G04 APERTURE END LIST*
D10*
%TO.P,K15,1*%
%TO.N,+12V*%
X258000000Y-115000000D03*
D11*
%TO.P,K15,2*%
%TO.N,R15_COM*%
X258000000Y-104840000D03*
%TO.P,K15,3*%
%TO.N,R15_NC*%
X258000000Y-97220000D03*
%TO.P,K15,4*%
%TO.N,R15_NO*%
X265620000Y-99760000D03*
%TO.P,K15,5*%
%TO.N,RELAY15_COIL_LOW*%
X265620000Y-115000000D03*
%TD*%
D12*
%TO.P,JR5,1*%
%TO.N,R5_COM*%
X233000000Y-27000000D03*
D13*
%TO.P,JR5,2*%
%TO.N,R5_NO*%
X238080000Y-27000000D03*
%TO.P,JR5,3*%
%TO.N,R5_NC*%
X243160000Y-27000000D03*
%TD*%
D14*
%TO.P,RG6,1*%
%TO.N,D12_TRAM_B*%
X108000000Y-147500000D03*
D15*
%TO.P,RG6,2*%
%TO.N,GATE_Q6*%
X118160000Y-147500000D03*
%TD*%
D16*
%TO.P,Q8,1*%
%TO.N,GATE_Q8*%
X90000000Y-165000000D03*
D17*
%TO.P,Q8,2*%
%TO.N,ALBA_G_NEG*%
X92540000Y-165000000D03*
%TO.P,Q8,3*%
%TO.N,GND*%
X95080000Y-165000000D03*
%TD*%
D12*
%TO.P,J_START,1*%
%TO.N,D22_START*%
X65000000Y-194000000D03*
D13*
%TO.P,J_START,2*%
%TO.N,GND*%
X70080000Y-194000000D03*
%TD*%
D10*
%TO.P,K12,1*%
%TO.N,+12V*%
X204000000Y-115000000D03*
D11*
%TO.P,K12,2*%
%TO.N,R12_COM*%
X204000000Y-104840000D03*
%TO.P,K12,3*%
%TO.N,R12_NC*%
X204000000Y-97220000D03*
%TO.P,K12,4*%
%TO.N,R12_NO*%
X211620000Y-99760000D03*
%TO.P,K12,5*%
%TO.N,RELAY12_COIL_LOW*%
X211620000Y-115000000D03*
%TD*%
D14*
%TO.P,RG4,1*%
%TO.N,D7_TRAM_R*%
X58000000Y-147500000D03*
D15*
%TO.P,RG4,2*%
%TO.N,GATE_Q4*%
X68160000Y-147500000D03*
%TD*%
D14*
%TO.P,RG8,1*%
%TO.N,D45_ALBA_G*%
X78000000Y-162500000D03*
D15*
%TO.P,RG8,2*%
%TO.N,GATE_Q8*%
X88160000Y-162500000D03*
%TD*%
D12*
%TO.P,JR14,1*%
%TO.N,R14_COM*%
X312000000Y-128000000D03*
D13*
%TO.P,JR14,2*%
%TO.N,R14_NO*%
X312000000Y-122920000D03*
%TO.P,JR14,3*%
%TO.N,R14_NC*%
X312000000Y-117840000D03*
%TD*%
D10*
%TO.P,K14,1*%
%TO.N,+12V*%
X240000000Y-115000000D03*
D11*
%TO.P,K14,2*%
%TO.N,R14_COM*%
X240000000Y-104840000D03*
%TO.P,K14,3*%
%TO.N,R14_NC*%
X240000000Y-97220000D03*
%TO.P,K14,4*%
%TO.N,R14_NO*%
X247620000Y-99760000D03*
%TO.P,K14,5*%
%TO.N,RELAY14_COIL_LOW*%
X247620000Y-115000000D03*
%TD*%
D12*
%TO.P,JR3,1*%
%TO.N,R3_COM*%
X199000000Y-27000000D03*
D13*
%TO.P,JR3,2*%
%TO.N,R3_NO*%
X204080000Y-27000000D03*
%TO.P,JR3,3*%
%TO.N,R3_NC*%
X209160000Y-27000000D03*
%TD*%
D12*
%TO.P,JR4,1*%
%TO.N,R4_COM*%
X216000000Y-27000000D03*
D13*
%TO.P,JR4,2*%
%TO.N,R4_NO*%
X221080000Y-27000000D03*
%TO.P,JR4,3*%
%TO.N,R4_NC*%
X226160000Y-27000000D03*
%TD*%
D12*
%TO.P,J_TRAMONTO,1*%
%TO.N,+12V*%
X132000000Y-194000000D03*
D13*
%TO.P,J_TRAMONTO,2*%
%TO.N,TRAM_R_NEG*%
X137080000Y-194000000D03*
%TO.P,J_TRAMONTO,3*%
%TO.N,TRAM_G_NEG*%
X142160000Y-194000000D03*
%TO.P,J_TRAMONTO,4*%
%TO.N,TRAM_B_NEG*%
X147240000Y-194000000D03*
%TD*%
D12*
%TO.P,JR1,1*%
%TO.N,R1_COM*%
X165000000Y-27000000D03*
D13*
%TO.P,JR1,2*%
%TO.N,R1_NO*%
X170080000Y-27000000D03*
%TO.P,JR1,3*%
%TO.N,R1_NC*%
X175160000Y-27000000D03*
%TD*%
D10*
%TO.P,C1,1*%
%TO.N,+12V*%
X126000000Y-120000000D03*
D11*
%TO.P,C1,2*%
%TO.N,GND*%
X131000000Y-120000000D03*
%TD*%
D18*
%TO.P,MCU1,*%
%TO.N,*%
X55940000Y-89460000D03*
%TO.P,MCU1,3V3*%
%TO.N,N/C*%
X63560000Y-89460000D03*
%TO.P,MCU1,5V1*%
%TO.N,+5V_MEGA*%
X66100000Y-89460000D03*
%TO.P,MCU1,5V2*%
X94167000Y-61520000D03*
%TO.P,MCU1,5V3*%
X121980000Y-41200000D03*
%TO.P,MCU1,5V4*%
X124520000Y-41200000D03*
%TO.P,MCU1,A0*%
%TO.N,A0_POT*%
X78800000Y-89460000D03*
%TO.P,MCU1,A1*%
%TO.N,N/C*%
X81340000Y-89460000D03*
%TO.P,MCU1,A2*%
X83880000Y-89460000D03*
%TO.P,MCU1,A3*%
X86420000Y-89460000D03*
%TO.P,MCU1,A4*%
X88960000Y-89460000D03*
%TO.P,MCU1,A5*%
X91500000Y-89460000D03*
%TO.P,MCU1,A6*%
X94040000Y-89460000D03*
%TO.P,MCU1,A7*%
X96580000Y-89460000D03*
%TO.P,MCU1,A8*%
X101660000Y-89460000D03*
%TO.P,MCU1,A9*%
X104200000Y-89460000D03*
%TO.P,MCU1,A10*%
X106740000Y-89460000D03*
%TO.P,MCU1,A11*%
X109280000Y-89460000D03*
%TO.P,MCU1,A12*%
X111820000Y-89460000D03*
%TO.P,MCU1,A13*%
X114360000Y-89460000D03*
%TO.P,MCU1,A14*%
X116900000Y-89460000D03*
%TO.P,MCU1,A15*%
X119440000Y-89460000D03*
%TO.P,MCU1,AREF*%
X51876000Y-41200000D03*
%TO.P,MCU1,D0*%
X91500000Y-41200000D03*
%TO.P,MCU1,D1*%
X88960000Y-41200000D03*
%TO.P,MCU1,D2*%
%TO.N,D2_CIELO_R*%
X86420000Y-41200000D03*
%TO.P,MCU1,D3*%
%TO.N,D3_CIELO_G*%
X83880000Y-41200000D03*
%TO.P,MCU1,D4*%
%TO.N,D4_CIELO_B*%
X81340000Y-41200000D03*
%TO.P,MCU1,D5*%
%TO.N,D5_STELLE_DATA*%
X78800000Y-41200000D03*
%TO.P,MCU1,D6*%
%TO.N,D6_BUZZER*%
X76260000Y-41200000D03*
%TO.P,MCU1,D7*%
%TO.N,D7_TRAM_R*%
X73720000Y-41200000D03*
%TO.P,MCU1,D8*%
%TO.N,D8_CASETTE_DATA*%
X69656000Y-41200000D03*
%TO.P,MCU1,D9*%
%TO.N,N/C*%
X67116000Y-41200000D03*
%TO.P,MCU1,D10*%
X64576000Y-41200000D03*
%TO.P,MCU1,D11*%
%TO.N,D11_TRAM_G*%
X62036000Y-41200000D03*
%TO.P,MCU1,D12*%
%TO.N,D12_TRAM_B*%
X59496000Y-41200000D03*
%TO.P,MCU1,D13*%
%TO.N,N/C*%
X56956000Y-41200000D03*
%TO.P,MCU1,D14*%
X96580000Y-41200000D03*
%TO.P,MCU1,D15*%
X99120000Y-41200000D03*
%TO.P,MCU1,D16*%
X101660000Y-41200000D03*
%TO.P,MCU1,D17*%
X104200000Y-41200000D03*
%TO.P,MCU1,D18*%
X106740000Y-41200000D03*
%TO.P,MCU1,D19*%
X109280000Y-41200000D03*
%TO.P,MCU1,D20*%
%TO.N,D20_SDA*%
X111820000Y-41200000D03*
%TO.P,MCU1,D21*%
%TO.N,D21_SCL*%
X114360000Y-41200000D03*
%TO.P,MCU1,D22*%
%TO.N,D22_START*%
X121980000Y-43740000D03*
%TO.P,MCU1,D23*%
%TO.N,D23_NEXT*%
X124520000Y-43740000D03*
%TO.P,MCU1,D24*%
%TO.N,D24_TEST*%
X121980000Y-46280000D03*
%TO.P,MCU1,D25*%
%TO.N,D25_RELAY1*%
X124520000Y-46280000D03*
%TO.P,MCU1,D26*%
%TO.N,D26_RELAY2*%
X121980000Y-48820000D03*
%TO.P,MCU1,D27*%
%TO.N,D27_RELAY3*%
X124520000Y-48820000D03*
%TO.P,MCU1,D28*%
%TO.N,D28_RELAY4*%
X121980000Y-51360000D03*
%TO.P,MCU1,D29*%
%TO.N,D29_RELAY5*%
X124520000Y-51360000D03*
%TO.P,MCU1,D30*%
%TO.N,D30_RELAY6*%
X121980000Y-53900000D03*
%TO.P,MCU1,D31*%
%TO.N,D31_RELAY7*%
X124520000Y-53900000D03*
%TO.P,MCU1,D32*%
%TO.N,D32_RELAY8*%
X121980000Y-56440000D03*
%TO.P,MCU1,D33*%
%TO.N,D33_RELAY9*%
X124520000Y-56440000D03*
%TO.P,MCU1,D34*%
%TO.N,D34_RELAY10*%
X121980000Y-58980000D03*
%TO.P,MCU1,D35*%
%TO.N,D35_RELAY11*%
X124520000Y-58980000D03*
%TO.P,MCU1,D36*%
%TO.N,D36_RELAY12*%
X121980000Y-61520000D03*
%TO.P,MCU1,D37*%
%TO.N,D37_RELAY13*%
X124520000Y-61520000D03*
%TO.P,MCU1,D38*%
%TO.N,D38_RELAY14*%
X121980000Y-64060000D03*
%TO.P,MCU1,D39*%
%TO.N,D39_RELAY15*%
X124520000Y-64060000D03*
%TO.P,MCU1,D40*%
%TO.N,D40_RELAY16*%
X121980000Y-66600000D03*
%TO.P,MCU1,D41*%
%TO.N,N/C*%
X124520000Y-66600000D03*
%TO.P,MCU1,D42*%
X121980000Y-69140000D03*
%TO.P,MCU1,D43*%
X124520000Y-69140000D03*
%TO.P,MCU1,D44*%
%TO.N,D44_ALBA_R*%
X121980000Y-71680000D03*
%TO.P,MCU1,D45*%
%TO.N,D45_ALBA_G*%
X124520000Y-71680000D03*
%TO.P,MCU1,D46*%
%TO.N,D46_ALBA_B*%
X121980000Y-74220000D03*
%TO.P,MCU1,D47*%
%TO.N,N/C*%
X124520000Y-74220000D03*
%TO.P,MCU1,D48*%
X121980000Y-76760000D03*
%TO.P,MCU1,D49*%
X124520000Y-76760000D03*
%TO.P,MCU1,D50*%
X121980000Y-79300000D03*
%TO.P,MCU1,D51*%
X124520000Y-79300000D03*
%TO.P,MCU1,D52*%
X121980000Y-81840000D03*
%TO.P,MCU1,D53*%
X124520000Y-81840000D03*
D19*
%TO.P,MCU1,GND1*%
%TO.N,GND*%
X54416000Y-41200000D03*
%TO.P,MCU1,GND2*%
X68640000Y-89460000D03*
%TO.P,MCU1,GND3*%
X71180000Y-89460000D03*
%TO.P,MCU1,GND4*%
X94167000Y-66600000D03*
%TO.P,MCU1,GND5*%
X121980000Y-84380000D03*
%TO.P,MCU1,GND6*%
X124520000Y-84380000D03*
D18*
%TO.P,MCU1,IORF*%
%TO.N,N/C*%
X58480000Y-89460000D03*
%TO.P,MCU1,MISO*%
X91627000Y-61520000D03*
%TO.P,MCU1,MOSI*%
X94167000Y-64060000D03*
%TO.P,MCU1,RST1*%
X61020000Y-89460000D03*
%TO.P,MCU1,RST2*%
X91627000Y-66600000D03*
%TO.P,MCU1,SCK*%
X91627000Y-64060000D03*
%TO.P,MCU1,SCL*%
X46796000Y-41200000D03*
%TO.P,MCU1,SDA*%
X49336000Y-41200000D03*
%TO.P,MCU1,VIN*%
%TO.N,+12V*%
X73720000Y-89460000D03*
%TD*%
D10*
%TO.P,K5,1*%
%TO.N,+12V*%
X222000000Y-60000000D03*
D11*
%TO.P,K5,2*%
%TO.N,R5_COM*%
X222000000Y-49840000D03*
%TO.P,K5,3*%
%TO.N,R5_NC*%
X222000000Y-42220000D03*
%TO.P,K5,4*%
%TO.N,R5_NO*%
X229620000Y-44760000D03*
%TO.P,K5,5*%
%TO.N,RELAY5_COIL_LOW*%
X229620000Y-60000000D03*
%TD*%
D16*
%TO.P,Q9,1*%
%TO.N,GATE_Q9*%
X120000000Y-165000000D03*
D17*
%TO.P,Q9,2*%
%TO.N,ALBA_B_NEG*%
X122540000Y-165000000D03*
%TO.P,Q9,3*%
%TO.N,GND*%
X125080000Y-165000000D03*
%TD*%
D12*
%TO.P,JR6,1*%
%TO.N,R6_COM*%
X250000000Y-27000000D03*
D13*
%TO.P,JR6,2*%
%TO.N,R6_NO*%
X255080000Y-27000000D03*
%TO.P,JR6,3*%
%TO.N,R6_NC*%
X260160000Y-27000000D03*
%TD*%
D12*
%TO.P,J_CASETTE,1*%
%TO.N,+12V*%
X198000000Y-194000000D03*
D13*
%TO.P,J_CASETTE,2*%
%TO.N,GND*%
X203080000Y-194000000D03*
%TO.P,J_CASETTE,3*%
%TO.N,D8_CASETTE_DATA*%
X208160000Y-194000000D03*
%TD*%
D12*
%TO.P,J_STELLE,1*%
%TO.N,+12V*%
X180000000Y-194000000D03*
D13*
%TO.P,J_STELLE,2*%
%TO.N,GND*%
X185080000Y-194000000D03*
%TO.P,J_STELLE,3*%
%TO.N,D5_STELLE_DATA*%
X190160000Y-194000000D03*
%TD*%
D12*
%TO.P,JR2,1*%
%TO.N,R2_COM*%
X182000000Y-27000000D03*
D13*
%TO.P,JR2,2*%
%TO.N,R2_NO*%
X187080000Y-27000000D03*
%TO.P,JR2,3*%
%TO.N,R2_NC*%
X192160000Y-27000000D03*
%TD*%
D14*
%TO.P,U2,1*%
%TO.N,D33_RELAY9*%
X135000000Y-92000000D03*
D15*
%TO.P,U2,2*%
%TO.N,D34_RELAY10*%
X135000000Y-94540000D03*
%TO.P,U2,3*%
%TO.N,D35_RELAY11*%
X135000000Y-97080000D03*
%TO.P,U2,4*%
%TO.N,D36_RELAY12*%
X135000000Y-99620000D03*
%TO.P,U2,5*%
%TO.N,D37_RELAY13*%
X135000000Y-102160000D03*
%TO.P,U2,6*%
%TO.N,D38_RELAY14*%
X135000000Y-104700000D03*
%TO.P,U2,7*%
%TO.N,D39_RELAY15*%
X135000000Y-107240000D03*
%TO.P,U2,8*%
%TO.N,D40_RELAY16*%
X135000000Y-109780000D03*
%TO.P,U2,9*%
%TO.N,GND*%
X135000000Y-112320000D03*
%TO.P,U2,10*%
%TO.N,+12V*%
X145160000Y-112320000D03*
%TO.P,U2,11*%
%TO.N,RELAY16_COIL_LOW*%
X145160000Y-109780000D03*
%TO.P,U2,12*%
%TO.N,RELAY15_COIL_LOW*%
X145160000Y-107240000D03*
%TO.P,U2,13*%
%TO.N,RELAY14_COIL_LOW*%
X145160000Y-104700000D03*
%TO.P,U2,14*%
%TO.N,RELAY13_COIL_LOW*%
X145160000Y-102160000D03*
%TO.P,U2,15*%
%TO.N,RELAY12_COIL_LOW*%
X145160000Y-99620000D03*
%TO.P,U2,16*%
%TO.N,RELAY11_COIL_LOW*%
X145160000Y-97080000D03*
%TO.P,U2,17*%
%TO.N,RELAY10_COIL_LOW*%
X145160000Y-94540000D03*
%TO.P,U2,18*%
%TO.N,RELAY9_COIL_LOW*%
X145160000Y-92000000D03*
%TD*%
D10*
%TO.P,K16,1*%
%TO.N,+12V*%
X276000000Y-115000000D03*
D11*
%TO.P,K16,2*%
%TO.N,R16_COM*%
X276000000Y-104840000D03*
%TO.P,K16,3*%
%TO.N,R16_NC*%
X276000000Y-97220000D03*
%TO.P,K16,4*%
%TO.N,R16_NO*%
X283620000Y-99760000D03*
%TO.P,K16,5*%
%TO.N,RELAY16_COIL_LOW*%
X283620000Y-115000000D03*
%TD*%
D14*
%TO.P,C2,1*%
%TO.N,+12V*%
X132000000Y-56000000D03*
D15*
%TO.P,C2,2*%
%TO.N,GND*%
X137000000Y-56000000D03*
%TD*%
D10*
%TO.P,K3,1*%
%TO.N,+12V*%
X186000000Y-60000000D03*
D11*
%TO.P,K3,2*%
%TO.N,R3_COM*%
X186000000Y-49840000D03*
%TO.P,K3,3*%
%TO.N,R3_NC*%
X186000000Y-42220000D03*
%TO.P,K3,4*%
%TO.N,R3_NO*%
X193620000Y-44760000D03*
%TO.P,K3,5*%
%TO.N,RELAY3_COIL_LOW*%
X193620000Y-60000000D03*
%TD*%
D14*
%TO.P,RG2,1*%
%TO.N,D3_CIELO_G*%
X78000000Y-132500000D03*
D15*
%TO.P,RG2,2*%
%TO.N,GATE_Q2*%
X88160000Y-132500000D03*
%TD*%
D12*
%TO.P,J_ALBA,1*%
%TO.N,+12V*%
X156000000Y-194000000D03*
D13*
%TO.P,J_ALBA,2*%
%TO.N,ALBA_R_NEG*%
X161080000Y-194000000D03*
%TO.P,J_ALBA,3*%
%TO.N,ALBA_G_NEG*%
X166160000Y-194000000D03*
%TO.P,J_ALBA,4*%
%TO.N,ALBA_B_NEG*%
X171240000Y-194000000D03*
%TD*%
D14*
%TO.P,RG9,1*%
%TO.N,D46_ALBA_B*%
X108000000Y-162500000D03*
D15*
%TO.P,RG9,2*%
%TO.N,GATE_Q9*%
X118160000Y-162500000D03*
%TD*%
D14*
%TO.P,C3,1*%
%TO.N,+12V*%
X132000000Y-86000000D03*
D15*
%TO.P,C3,2*%
%TO.N,GND*%
X137000000Y-86000000D03*
%TD*%
D14*
%TO.P,RG7,1*%
%TO.N,D44_ALBA_R*%
X58000000Y-162500000D03*
D15*
%TO.P,RG7,2*%
%TO.N,GATE_Q7*%
X68160000Y-162500000D03*
%TD*%
D12*
%TO.P,J_TEST,1*%
%TO.N,D24_TEST*%
X91000000Y-194000000D03*
D13*
%TO.P,J_TEST,2*%
%TO.N,GND*%
X96080000Y-194000000D03*
%TD*%
D16*
%TO.P,Q5,1*%
%TO.N,GATE_Q5*%
X90000000Y-150000000D03*
D17*
%TO.P,Q5,2*%
%TO.N,TRAM_G_NEG*%
X92540000Y-150000000D03*
%TO.P,Q5,3*%
%TO.N,GND*%
X95080000Y-150000000D03*
%TD*%
D12*
%TO.P,J_CIELO,1*%
%TO.N,+12V*%
X108000000Y-194000000D03*
D13*
%TO.P,J_CIELO,2*%
%TO.N,CIELO_R_NEG*%
X113080000Y-194000000D03*
%TO.P,J_CIELO,3*%
%TO.N,CIELO_G_NEG*%
X118160000Y-194000000D03*
%TO.P,J_CIELO,4*%
%TO.N,CIELO_B_NEG*%
X123240000Y-194000000D03*
%TD*%
D12*
%TO.P,JR9,1*%
%TO.N,R9_COM*%
X312000000Y-48000000D03*
D13*
%TO.P,JR9,2*%
%TO.N,R9_NO*%
X312000000Y-42920000D03*
%TO.P,JR9,3*%
%TO.N,R9_NC*%
X312000000Y-37840000D03*
%TD*%
D10*
%TO.P,K2,1*%
%TO.N,+12V*%
X168000000Y-60000000D03*
D11*
%TO.P,K2,2*%
%TO.N,R2_COM*%
X168000000Y-49840000D03*
%TO.P,K2,3*%
%TO.N,R2_NC*%
X168000000Y-42220000D03*
%TO.P,K2,4*%
%TO.N,R2_NO*%
X175620000Y-44760000D03*
%TO.P,K2,5*%
%TO.N,RELAY2_COIL_LOW*%
X175620000Y-60000000D03*
%TD*%
D14*
%TO.P,RG1,1*%
%TO.N,D2_CIELO_R*%
X58000000Y-132500000D03*
D15*
%TO.P,RG1,2*%
%TO.N,GATE_Q1*%
X68160000Y-132500000D03*
%TD*%
D16*
%TO.P,Q2,1*%
%TO.N,GATE_Q2*%
X90000000Y-135000000D03*
D17*
%TO.P,Q2,2*%
%TO.N,CIELO_G_NEG*%
X92540000Y-135000000D03*
%TO.P,Q2,3*%
%TO.N,GND*%
X95080000Y-135000000D03*
%TD*%
D16*
%TO.P,RV1,1*%
%TO.N,GND*%
X48000000Y-145000000D03*
D17*
%TO.P,RV1,2*%
%TO.N,A0_POT*%
X50500000Y-145000000D03*
%TO.P,RV1,3*%
%TO.N,+5V_MEGA*%
X53000000Y-145000000D03*
%TD*%
D14*
%TO.P,U1,1*%
%TO.N,D25_RELAY1*%
X135000000Y-62000000D03*
D15*
%TO.P,U1,2*%
%TO.N,D26_RELAY2*%
X135000000Y-64540000D03*
%TO.P,U1,3*%
%TO.N,D27_RELAY3*%
X135000000Y-67080000D03*
%TO.P,U1,4*%
%TO.N,D28_RELAY4*%
X135000000Y-69620000D03*
%TO.P,U1,5*%
%TO.N,D29_RELAY5*%
X135000000Y-72160000D03*
%TO.P,U1,6*%
%TO.N,D30_RELAY6*%
X135000000Y-74700000D03*
%TO.P,U1,7*%
%TO.N,D31_RELAY7*%
X135000000Y-77240000D03*
%TO.P,U1,8*%
%TO.N,D32_RELAY8*%
X135000000Y-79780000D03*
%TO.P,U1,9*%
%TO.N,GND*%
X135000000Y-82320000D03*
%TO.P,U1,10*%
%TO.N,+12V*%
X145160000Y-82320000D03*
%TO.P,U1,11*%
%TO.N,RELAY8_COIL_LOW*%
X145160000Y-79780000D03*
%TO.P,U1,12*%
%TO.N,RELAY7_COIL_LOW*%
X145160000Y-77240000D03*
%TO.P,U1,13*%
%TO.N,RELAY6_COIL_LOW*%
X145160000Y-74700000D03*
%TO.P,U1,14*%
%TO.N,RELAY5_COIL_LOW*%
X145160000Y-72160000D03*
%TO.P,U1,15*%
%TO.N,RELAY4_COIL_LOW*%
X145160000Y-69620000D03*
%TO.P,U1,16*%
%TO.N,RELAY3_COIL_LOW*%
X145160000Y-67080000D03*
%TO.P,U1,17*%
%TO.N,RELAY2_COIL_LOW*%
X145160000Y-64540000D03*
%TO.P,U1,18*%
%TO.N,RELAY1_COIL_LOW*%
X145160000Y-62000000D03*
%TD*%
D10*
%TO.P,K1,1*%
%TO.N,+12V*%
X150000000Y-60000000D03*
D11*
%TO.P,K1,2*%
%TO.N,R1_COM*%
X150000000Y-49840000D03*
%TO.P,K1,3*%
%TO.N,R1_NC*%
X150000000Y-42220000D03*
%TO.P,K1,4*%
%TO.N,R1_NO*%
X157620000Y-44760000D03*
%TO.P,K1,5*%
%TO.N,RELAY1_COIL_LOW*%
X157620000Y-60000000D03*
%TD*%
D10*
%TO.P,K10,1*%
%TO.N,+12V*%
X168000000Y-115000000D03*
D11*
%TO.P,K10,2*%
%TO.N,R10_COM*%
X168000000Y-104840000D03*
%TO.P,K10,3*%
%TO.N,R10_NC*%
X168000000Y-97220000D03*
%TO.P,K10,4*%
%TO.N,R10_NO*%
X175620000Y-99760000D03*
%TO.P,K10,5*%
%TO.N,RELAY10_COIL_LOW*%
X175620000Y-115000000D03*
%TD*%
D12*
%TO.P,J1,1*%
%TO.N,+12V*%
X28000000Y-194000000D03*
D13*
%TO.P,J1,2*%
%TO.N,GND*%
X33080000Y-194000000D03*
%TD*%
D10*
%TO.P,K7,1*%
%TO.N,+12V*%
X258000000Y-60000000D03*
D11*
%TO.P,K7,2*%
%TO.N,R7_COM*%
X258000000Y-49840000D03*
%TO.P,K7,3*%
%TO.N,R7_NC*%
X258000000Y-42220000D03*
%TO.P,K7,4*%
%TO.N,R7_NO*%
X265620000Y-44760000D03*
%TO.P,K7,5*%
%TO.N,RELAY7_COIL_LOW*%
X265620000Y-60000000D03*
%TD*%
D16*
%TO.P,Q7,1*%
%TO.N,GATE_Q7*%
X70000000Y-165000000D03*
D17*
%TO.P,Q7,2*%
%TO.N,ALBA_R_NEG*%
X72540000Y-165000000D03*
%TO.P,Q7,3*%
%TO.N,GND*%
X75080000Y-165000000D03*
%TD*%
D14*
%TO.P,RPD3,1*%
%TO.N,GATE_Q3*%
X108000000Y-137500000D03*
D15*
%TO.P,RPD3,2*%
%TO.N,GND*%
X118160000Y-137500000D03*
%TD*%
D14*
%TO.P,RPD6,1*%
%TO.N,GATE_Q6*%
X108000000Y-152500000D03*
D15*
%TO.P,RPD6,2*%
%TO.N,GND*%
X118160000Y-152500000D03*
%TD*%
D14*
%TO.P,RPD7,1*%
%TO.N,GATE_Q7*%
X58000000Y-167500000D03*
D15*
%TO.P,RPD7,2*%
%TO.N,GND*%
X68160000Y-167500000D03*
%TD*%
D10*
%TO.P,K8,1*%
%TO.N,+12V*%
X276000000Y-60000000D03*
D11*
%TO.P,K8,2*%
%TO.N,R8_COM*%
X276000000Y-49840000D03*
%TO.P,K8,3*%
%TO.N,R8_NC*%
X276000000Y-42220000D03*
%TO.P,K8,4*%
%TO.N,R8_NO*%
X283620000Y-44760000D03*
%TO.P,K8,5*%
%TO.N,RELAY8_COIL_LOW*%
X283620000Y-60000000D03*
%TD*%
D12*
%TO.P,JR13,1*%
%TO.N,R13_COM*%
X312000000Y-112000000D03*
D13*
%TO.P,JR13,2*%
%TO.N,R13_NO*%
X312000000Y-106920000D03*
%TO.P,JR13,3*%
%TO.N,R13_NC*%
X312000000Y-101840000D03*
%TD*%
D14*
%TO.P,RPD2,1*%
%TO.N,GATE_Q2*%
X78000000Y-137500000D03*
D15*
%TO.P,RPD2,2*%
%TO.N,GND*%
X88160000Y-137500000D03*
%TD*%
D12*
%TO.P,JR10,1*%
%TO.N,R10_COM*%
X312000000Y-64000000D03*
D13*
%TO.P,JR10,2*%
%TO.N,R10_NO*%
X312000000Y-58920000D03*
%TO.P,JR10,3*%
%TO.N,R10_NC*%
X312000000Y-53840000D03*
%TD*%
D10*
%TO.P,K13,1*%
%TO.N,+12V*%
X222000000Y-115000000D03*
D11*
%TO.P,K13,2*%
%TO.N,R13_COM*%
X222000000Y-104840000D03*
%TO.P,K13,3*%
%TO.N,R13_NC*%
X222000000Y-97220000D03*
%TO.P,K13,4*%
%TO.N,R13_NO*%
X229620000Y-99760000D03*
%TO.P,K13,5*%
%TO.N,RELAY13_COIL_LOW*%
X229620000Y-115000000D03*
%TD*%
D14*
%TO.P,RPD4,1*%
%TO.N,GATE_Q4*%
X58000000Y-152500000D03*
D15*
%TO.P,RPD4,2*%
%TO.N,GND*%
X68160000Y-152500000D03*
%TD*%
D16*
%TO.P,BZ1,1*%
%TO.N,D6_BUZZER*%
X48000000Y-156000000D03*
D17*
%TO.P,BZ1,2*%
%TO.N,GND*%
X55600000Y-156000000D03*
%TD*%
D14*
%TO.P,RG5,1*%
%TO.N,D11_TRAM_G*%
X78000000Y-147500000D03*
D15*
%TO.P,RG5,2*%
%TO.N,GATE_Q5*%
X88160000Y-147500000D03*
%TD*%
D12*
%TO.P,JR11,1*%
%TO.N,R11_COM*%
X312000000Y-80000000D03*
D13*
%TO.P,JR11,2*%
%TO.N,R11_NO*%
X312000000Y-74920000D03*
%TO.P,JR11,3*%
%TO.N,R11_NC*%
X312000000Y-69840000D03*
%TD*%
D12*
%TO.P,JR8,1*%
%TO.N,R8_COM*%
X284000000Y-27000000D03*
D13*
%TO.P,JR8,2*%
%TO.N,R8_NO*%
X289080000Y-27000000D03*
%TO.P,JR8,3*%
%TO.N,R8_NC*%
X294160000Y-27000000D03*
%TD*%
D12*
%TO.P,JR12,1*%
%TO.N,R12_COM*%
X312000000Y-96000000D03*
D13*
%TO.P,JR12,2*%
%TO.N,R12_NO*%
X312000000Y-90920000D03*
%TO.P,JR12,3*%
%TO.N,R12_NC*%
X312000000Y-85840000D03*
%TD*%
D10*
%TO.P,K4,1*%
%TO.N,+12V*%
X204000000Y-60000000D03*
D11*
%TO.P,K4,2*%
%TO.N,R4_COM*%
X204000000Y-49840000D03*
%TO.P,K4,3*%
%TO.N,R4_NC*%
X204000000Y-42220000D03*
%TO.P,K4,4*%
%TO.N,R4_NO*%
X211620000Y-44760000D03*
%TO.P,K4,5*%
%TO.N,RELAY4_COIL_LOW*%
X211620000Y-60000000D03*
%TD*%
D16*
%TO.P,Q3,1*%
%TO.N,GATE_Q3*%
X120000000Y-135000000D03*
D17*
%TO.P,Q3,2*%
%TO.N,CIELO_B_NEG*%
X122540000Y-135000000D03*
%TO.P,Q3,3*%
%TO.N,GND*%
X125080000Y-135000000D03*
%TD*%
D12*
%TO.P,JR16,1*%
%TO.N,R16_COM*%
X312000000Y-160000000D03*
D13*
%TO.P,JR16,2*%
%TO.N,R16_NO*%
X312000000Y-154920000D03*
%TO.P,JR16,3*%
%TO.N,R16_NC*%
X312000000Y-149840000D03*
%TD*%
D12*
%TO.P,J_OLED,1*%
%TO.N,+5V_MEGA*%
X42000000Y-194000000D03*
D13*
%TO.P,J_OLED,2*%
%TO.N,GND*%
X47080000Y-194000000D03*
%TO.P,J_OLED,3*%
%TO.N,D20_SDA*%
X52160000Y-194000000D03*
%TO.P,J_OLED,4*%
%TO.N,D21_SCL*%
X57240000Y-194000000D03*
%TD*%
D14*
%TO.P,RPD1,1*%
%TO.N,GATE_Q1*%
X58000000Y-137500000D03*
D15*
%TO.P,RPD1,2*%
%TO.N,GND*%
X68160000Y-137500000D03*
%TD*%
D14*
%TO.P,RPD8,1*%
%TO.N,GATE_Q8*%
X78000000Y-167500000D03*
D15*
%TO.P,RPD8,2*%
%TO.N,GND*%
X88160000Y-167500000D03*
%TD*%
D16*
%TO.P,Q6,1*%
%TO.N,GATE_Q6*%
X120000000Y-150000000D03*
D17*
%TO.P,Q6,2*%
%TO.N,TRAM_B_NEG*%
X122540000Y-150000000D03*
%TO.P,Q6,3*%
%TO.N,GND*%
X125080000Y-150000000D03*
%TD*%
D10*
%TO.P,K11,1*%
%TO.N,+12V*%
X186000000Y-115000000D03*
D11*
%TO.P,K11,2*%
%TO.N,R11_COM*%
X186000000Y-104840000D03*
%TO.P,K11,3*%
%TO.N,R11_NC*%
X186000000Y-97220000D03*
%TO.P,K11,4*%
%TO.N,R11_NO*%
X193620000Y-99760000D03*
%TO.P,K11,5*%
%TO.N,RELAY11_COIL_LOW*%
X193620000Y-115000000D03*
%TD*%
D14*
%TO.P,RPD5,1*%
%TO.N,GATE_Q5*%
X78000000Y-152500000D03*
D15*
%TO.P,RPD5,2*%
%TO.N,GND*%
X88160000Y-152500000D03*
%TD*%
D10*
%TO.P,K6,1*%
%TO.N,+12V*%
X240000000Y-60000000D03*
D11*
%TO.P,K6,2*%
%TO.N,R6_COM*%
X240000000Y-49840000D03*
%TO.P,K6,3*%
%TO.N,R6_NC*%
X240000000Y-42220000D03*
%TO.P,K6,4*%
%TO.N,R6_NO*%
X247620000Y-44760000D03*
%TO.P,K6,5*%
%TO.N,RELAY6_COIL_LOW*%
X247620000Y-60000000D03*
%TD*%
D14*
%TO.P,RPD9,1*%
%TO.N,GATE_Q9*%
X108000000Y-167500000D03*
D15*
%TO.P,RPD9,2*%
%TO.N,GND*%
X118160000Y-167500000D03*
%TD*%
D16*
%TO.P,Q1,1*%
%TO.N,GATE_Q1*%
X70000000Y-135000000D03*
D17*
%TO.P,Q1,2*%
%TO.N,CIELO_R_NEG*%
X72540000Y-135000000D03*
%TO.P,Q1,3*%
%TO.N,GND*%
X75080000Y-135000000D03*
%TD*%
D12*
%TO.P,JR15,1*%
%TO.N,R15_COM*%
X312000000Y-144000000D03*
D13*
%TO.P,JR15,2*%
%TO.N,R15_NO*%
X312000000Y-138920000D03*
%TO.P,JR15,3*%
%TO.N,R15_NC*%
X312000000Y-133840000D03*
%TD*%
D12*
%TO.P,J_NEXT,1*%
%TO.N,D23_NEXT*%
X78000000Y-194000000D03*
D13*
%TO.P,J_NEXT,2*%
%TO.N,GND*%
X83080000Y-194000000D03*
%TD*%
D16*
%TO.P,Q4,1*%
%TO.N,GATE_Q4*%
X70000000Y-150000000D03*
D17*
%TO.P,Q4,2*%
%TO.N,TRAM_R_NEG*%
X72540000Y-150000000D03*
%TO.P,Q4,3*%
%TO.N,GND*%
X75080000Y-150000000D03*
%TD*%
D10*
%TO.P,K9,1*%
%TO.N,+12V*%
X150000000Y-115000000D03*
D11*
%TO.P,K9,2*%
%TO.N,R9_COM*%
X150000000Y-104840000D03*
%TO.P,K9,3*%
%TO.N,R9_NC*%
X150000000Y-97220000D03*
%TO.P,K9,4*%
%TO.N,R9_NO*%
X157620000Y-99760000D03*
%TO.P,K9,5*%
%TO.N,RELAY9_COIL_LOW*%
X157620000Y-115000000D03*
%TD*%
D12*
%TO.P,JR7,1*%
%TO.N,R7_COM*%
X267000000Y-27000000D03*
D13*
%TO.P,JR7,2*%
%TO.N,R7_NO*%
X272080000Y-27000000D03*
%TO.P,JR7,3*%
%TO.N,R7_NC*%
X277160000Y-27000000D03*
%TD*%
D14*
%TO.P,RG3,1*%
%TO.N,D4_CIELO_B*%
X108000000Y-132500000D03*
D15*
%TO.P,RG3,2*%
%TO.N,GATE_Q3*%
X118160000Y-132500000D03*
%TD*%
D20*
%TO.N,D2_CIELO_R*%
X51109200Y-130678600D03*
X50116900Y-56826100D03*
X75096900Y-47963800D03*
%TO.N,D3_CIELO_G*%
X80550000Y-86085000D03*
X76931900Y-82455600D03*
%TO.N,D4_CIELO_B*%
X110582500Y-53899400D03*
X88103800Y-47963800D03*
%TO.N,D7_TRAM_R*%
X74697900Y-84679600D03*
X78946000Y-91169100D03*
%TO.N,D11_TRAM_G*%
X51109200Y-139540900D03*
%TO.N,D12_TRAM_B*%
X106706700Y-109572000D03*
X58994900Y-97161400D03*
%TO.N,D44_ALBA_R*%
X117656300Y-71680000D03*
X67606100Y-121816300D03*
X111814700Y-121816300D03*
X57162800Y-153981000D03*
%TO.N,D45_ALBA_G*%
X111677300Y-178890600D03*
X83277200Y-169099300D03*
%TO.N,D5_STELLE_DATA*%
X131362200Y-43246700D03*
%TO.N,D8_CASETTE_DATA*%
X130945300Y-42470000D03*
%TO.N,D20_SDA*%
X42855600Y-38541500D03*
%TO.N,D21_SCL*%
X101589300Y-58860800D03*
X45010500Y-58860800D03*
%TO.N,D22_START*%
X120536800Y-49019500D03*
X111292700Y-183776300D03*
X68077500Y-187218200D03*
%TO.N,D23_NEXT*%
X107223800Y-57299900D03*
X105605100Y-179286100D03*
X83303500Y-174553500D03*
%TO.N,D24_TEST*%
X93089000Y-188116300D03*
X110771700Y-184414400D03*
%TO.N,D26_RELAY2*%
X129317800Y-62734300D03*
%TO.N,D27_RELAY3*%
X130358000Y-67080000D03*
%TO.N,D30_RELAY6*%
X129646500Y-70970500D03*
%TO.N,D32_RELAY8*%
X120113000Y-72933700D03*
%TO.N,D34_RELAY10*%
X123818400Y-95514800D03*
%TO.N,D36_RELAY12*%
X125122900Y-96124700D03*
%TO.N,RELAY10_COIL_LOW*%
X146674900Y-104537200D03*
%TO.N,TRAM_G_NEG*%
X113642600Y-191548300D03*
%TO.N,D6_BUZZER*%
X41153100Y-154311400D03*
%TD*%
%TO.N,GND*%
D21*
X125719200Y-166638600D02*
X124657600Y-167700200D01*
D22*
X68640000Y-89460000D02*
X71180000Y-89460000D01*
D21*
X185080000Y-194000000D02*
X188281700Y-197201700D01*
D22*
X126472600Y-84403800D02*
X126448800Y-84380000D01*
D21*
X94709700Y-67142700D02*
X111970800Y-84403800D01*
X83080000Y-194000000D02*
X80078300Y-197001700D01*
X68160000Y-152701900D02*
X75398300Y-152701900D01*
X91408000Y-140949800D02*
X95240200Y-137117600D01*
D23*
X74657600Y-137700200D02*
X68360200Y-137700200D01*
D22*
X124520000Y-84380000D02*
X121980000Y-84380000D01*
D24*
X125241900Y-135000000D02*
X125080000Y-135000000D01*
D21*
X47080000Y-194000000D02*
X50081700Y-197001700D01*
X47080000Y-194000000D02*
X44078300Y-197001700D01*
D22*
X94709700Y-67142700D02*
X94167000Y-66600000D01*
D24*
X95240200Y-149839800D02*
X95080000Y-150000000D01*
D21*
X75398300Y-152701900D02*
X75398300Y-150321300D01*
D22*
X126581000Y-84403800D02*
X126472600Y-84403800D01*
D21*
X199878300Y-197201700D02*
X203080000Y-194000000D01*
X188281700Y-197201700D02*
X199878300Y-197201700D01*
D22*
X119919000Y-84403800D02*
X120027400Y-84403800D01*
D21*
X80078300Y-197001700D02*
X73081700Y-197001700D01*
X76395100Y-155101700D02*
X75398300Y-154104900D01*
D24*
X95241900Y-165000000D02*
X95080000Y-165000000D01*
X125080000Y-152277800D02*
X125080000Y-150000000D01*
D21*
X91407900Y-140949900D02*
X91408000Y-140949800D01*
D24*
X75047900Y-137309900D02*
X75047900Y-135032100D01*
D21*
X91407900Y-144050100D02*
X91407900Y-140949900D01*
X125719200Y-165639200D02*
X125719200Y-166638600D01*
D24*
X95240200Y-147882400D02*
X95240200Y-149839800D01*
D23*
X88160000Y-137701900D02*
X88160000Y-137500000D01*
D21*
X75047900Y-137309900D02*
X74657600Y-137700200D01*
D23*
X88160000Y-152701900D02*
X88160000Y-152500000D01*
D21*
X91408000Y-140949800D02*
X88160000Y-137701900D01*
X111970800Y-84403800D02*
X119919000Y-84403800D01*
X95241900Y-165000000D02*
X95242000Y-165000000D01*
X125080000Y-152277800D02*
X124657600Y-152700200D01*
D24*
X125719200Y-165639200D02*
X125080000Y-165000000D01*
D23*
X118360200Y-152700200D02*
X118160000Y-152500000D01*
D21*
X73081700Y-197001700D02*
X70080000Y-194000000D01*
D22*
X120027400Y-84403800D02*
X120051200Y-84380000D01*
D21*
X50081700Y-197001700D02*
X67078300Y-197001700D01*
X75398300Y-154104900D02*
X75398300Y-152701900D01*
D23*
X124657600Y-167700200D02*
X118360200Y-167700200D01*
D21*
X86510200Y-155101700D02*
X76395100Y-155101700D01*
X67078300Y-197001700D02*
X70080000Y-194000000D01*
D22*
X121980000Y-84380000D02*
X120051200Y-84380000D01*
D24*
X75399800Y-150319800D02*
X75080000Y-150000000D01*
X95240200Y-135160200D02*
X95080000Y-135000000D01*
D23*
X124657600Y-137700200D02*
X123071800Y-137700200D01*
D21*
X44078300Y-197001700D02*
X36081700Y-197001700D01*
D23*
X124657600Y-152700200D02*
X118360200Y-152700200D01*
D24*
X75047900Y-135032100D02*
X75080000Y-135000000D01*
D21*
X125241900Y-137115900D02*
X124657600Y-137700200D01*
X88160000Y-152701900D02*
X86510200Y-154351700D01*
D23*
X118360200Y-167700200D02*
X118160000Y-167500000D01*
D21*
X98275600Y-140153000D02*
X120696600Y-140153000D01*
D24*
X95240200Y-137117600D02*
X95240200Y-135160200D01*
D22*
X124520000Y-84380000D02*
X126448800Y-84380000D01*
D21*
X123071800Y-137777800D02*
X123071800Y-137700200D01*
D23*
X68160000Y-152701900D02*
X68160000Y-152500000D01*
D21*
X95242000Y-163833500D02*
X86510200Y-155101700D01*
X95240200Y-147882400D02*
X91407900Y-144050100D01*
D23*
X68360200Y-137700200D02*
X68160000Y-137500000D01*
D21*
X95242000Y-165000000D02*
X95242000Y-163833500D01*
X86510200Y-154351700D02*
X86510200Y-155101700D01*
X95240200Y-137117600D02*
X98275600Y-140153000D01*
D23*
X118360200Y-137700200D02*
X118160000Y-137500000D01*
D21*
X125241900Y-135000000D02*
X125241900Y-137115900D01*
X128510500Y-82474300D02*
X126581000Y-84403800D01*
X120696600Y-140153000D02*
X123071800Y-137777800D01*
X135000000Y-82474300D02*
X128510500Y-82474300D01*
D23*
X123071800Y-137700200D02*
X118360200Y-137700200D01*
X135000000Y-82474300D02*
X135000000Y-82320000D01*
D21*
X36081700Y-197001700D02*
X33080000Y-194000000D01*
X75398300Y-150321300D02*
X75399800Y-150319800D01*
%TO.N,+12V*%
D22*
X74380400Y-89460000D02*
X73720000Y-89460000D01*
D21*
X258000000Y-115000000D02*
X260901700Y-115000000D01*
D22*
X74450200Y-89529800D02*
X74380400Y-89460000D01*
D21*
X159080800Y-197080800D02*
X156000000Y-194000000D01*
X101784300Y-190786000D02*
X104998300Y-194000000D01*
X108000000Y-194000000D02*
X111001700Y-197001700D01*
X149967800Y-197030500D02*
X132028800Y-197030500D01*
X111001700Y-197001700D02*
X125996600Y-197001700D01*
X176998300Y-194000000D02*
X173917500Y-197080800D01*
X178499200Y-194000000D02*
X176998300Y-194000000D01*
X78091200Y-93170800D02*
X74450200Y-89529800D01*
X28000000Y-194000000D02*
X31214000Y-190786000D01*
X152998300Y-194000000D02*
X149967800Y-197030500D01*
X108000000Y-194000000D02*
X104998300Y-194000000D01*
X178499200Y-194000000D02*
X181723200Y-190776000D01*
X263803400Y-112098300D02*
X260901700Y-115000000D01*
X198196600Y-57098300D02*
X201098300Y-60000000D01*
X276000000Y-115000000D02*
X273098300Y-115000000D01*
X273098300Y-115000000D02*
X270196600Y-112098300D01*
X188901700Y-60000000D02*
X191803400Y-57098300D01*
X127430900Y-93170800D02*
X78091200Y-93170800D01*
D23*
X145160000Y-82381900D02*
X145160000Y-82320000D01*
D21*
X186000000Y-60000000D02*
X188901700Y-60000000D01*
X181723200Y-190776000D02*
X197777700Y-190776000D01*
X132000000Y-88601700D02*
X138940200Y-88601700D01*
X126000000Y-120000000D02*
X131000000Y-115000000D01*
X138940200Y-88601700D02*
X145160000Y-82381900D01*
X204000000Y-60000000D02*
X201098300Y-60000000D01*
X125996600Y-197001700D02*
X128998300Y-194000000D01*
X173917500Y-197080800D02*
X159080800Y-197080800D01*
X132000000Y-86000000D02*
X132000000Y-88601700D01*
X197777700Y-190776000D02*
X198000000Y-190998300D01*
X156000000Y-194000000D02*
X152998300Y-194000000D01*
X180000000Y-194000000D02*
X178499200Y-194000000D01*
X132000000Y-194000000D02*
X128998300Y-194000000D01*
X131000000Y-115000000D02*
X150000000Y-115000000D01*
X31214000Y-190786000D02*
X101784300Y-190786000D01*
X132000000Y-88601700D02*
X127430900Y-93170800D01*
X132028800Y-197030500D02*
X128998300Y-194000000D01*
X191803400Y-57098300D02*
X198196600Y-57098300D01*
X198000000Y-194000000D02*
X198000000Y-190998300D01*
X270196600Y-112098300D02*
X263803400Y-112098300D01*
%TO.N,D2_CIELO_R*%
D25*
X58979200Y-47963800D02*
X50116900Y-56826100D01*
X75096900Y-47963800D02*
X58979200Y-47963800D01*
X54976900Y-130678600D02*
X56798300Y-132500000D01*
X51109200Y-130678600D02*
X54976900Y-130678600D01*
X58000000Y-132500000D02*
X56798300Y-132500000D01*
%TO.N,D3_CIELO_G*%
X80550000Y-86085000D02*
X76931900Y-82466900D01*
X76931900Y-82466900D02*
X76931900Y-82455600D01*
%TO.N,D4_CIELO_B*%
X110582500Y-53899400D02*
X104646900Y-47963800D01*
X104646900Y-47963800D02*
X88103800Y-47963800D01*
%TO.N,D7_TRAM_R*%
X74697900Y-87018400D02*
X78848600Y-91169100D01*
X78848600Y-91169100D02*
X78946000Y-91169100D01*
X74697900Y-84679600D02*
X74697900Y-87018400D01*
%TO.N,D11_TRAM_G*%
X51109200Y-139540900D02*
X68839200Y-139540900D01*
X68839200Y-139540900D02*
X76798300Y-147500000D01*
X78000000Y-147500000D02*
X76798300Y-147500000D01*
%TO.N,D12_TRAM_B*%
X71405500Y-109572000D02*
X106706700Y-109572000D01*
X58994900Y-97161400D02*
X71405500Y-109572000D01*
%TO.N,D44_ALBA_R*%
X67606100Y-121816300D02*
X111814700Y-121816300D01*
X121980000Y-71680000D02*
X117656300Y-71680000D01*
X58000000Y-161298300D02*
X57162800Y-160461100D01*
X57162800Y-160461100D02*
X57162800Y-153981000D01*
X58000000Y-162500000D02*
X58000000Y-161298300D01*
%TO.N,D45_ALBA_G*%
X111677300Y-178890600D02*
X111471100Y-178684400D01*
X101956600Y-178684400D02*
X92371500Y-169099300D01*
X111471100Y-178684400D02*
X101956600Y-178684400D01*
X92371500Y-169099300D02*
X83277200Y-169099300D01*
%TO.N,D5_STELLE_DATA*%
X131547100Y-42165700D02*
X131547100Y-43061800D01*
X79965300Y-40908700D02*
X81874800Y-38999200D01*
X131547100Y-43061800D02*
X131362200Y-43246700D01*
X81874800Y-38999200D02*
X128380600Y-38999200D01*
X78800000Y-41200000D02*
X79965300Y-41200000D01*
X128380600Y-38999200D02*
X131547100Y-42165700D01*
X79965300Y-41200000D02*
X79965300Y-40908700D01*
%TO.N,D8_CASETTE_DATA*%
X120572300Y-42470000D02*
X130945300Y-42470000D01*
X70821300Y-41200000D02*
X73020500Y-43399200D01*
X69656000Y-41200000D02*
X70821300Y-41200000D01*
X73020500Y-43399200D02*
X119643100Y-43399200D01*
X119643100Y-43399200D02*
X120572300Y-42470000D01*
%TO.N,D20_SDA*%
X69413500Y-38541500D02*
X42855600Y-38541500D01*
X110654700Y-41200000D02*
X110654700Y-41562200D01*
X73237300Y-42365300D02*
X69413500Y-38541500D01*
X111820000Y-41200000D02*
X110654700Y-41200000D01*
X110654700Y-41562200D02*
X109851600Y-42365300D01*
X109851600Y-42365300D02*
X73237300Y-42365300D01*
%TO.N,D21_SCL*%
X101589300Y-58860800D02*
X45010500Y-58860800D01*
%TO.N,D22_START*%
X121980000Y-44905300D02*
X121688700Y-44905300D01*
X120536800Y-46057200D02*
X120536800Y-49019500D01*
X121980000Y-43740000D02*
X121980000Y-44905300D01*
X101681800Y-187218200D02*
X68077500Y-187218200D01*
X105123700Y-183776300D02*
X101681800Y-187218200D01*
X121688700Y-44905300D02*
X120536800Y-46057200D01*
X111292700Y-183776300D02*
X105123700Y-183776300D01*
%TO.N,D23_NEXT*%
X83303500Y-174553500D02*
X97186900Y-174553500D01*
X101919500Y-179286100D02*
X105605100Y-179286100D01*
X117102000Y-49985300D02*
X122480700Y-49985300D01*
X97186900Y-174553500D02*
X101919500Y-179286100D01*
X109787400Y-57299900D02*
X117102000Y-49985300D01*
X122480700Y-49985300D02*
X123354700Y-49111300D01*
X123354700Y-49111300D02*
X123354700Y-43740000D01*
X107223800Y-57299900D02*
X109787400Y-57299900D01*
X124520000Y-43740000D02*
X123354700Y-43740000D01*
%TO.N,D24_TEST*%
X93089000Y-188116300D02*
X107069800Y-188116300D01*
X107069800Y-188116300D02*
X110771700Y-184414400D01*
%TO.N,D26_RELAY2*%
X133194300Y-62734300D02*
X129317800Y-62734300D01*
X135000000Y-64540000D02*
X133194300Y-62734300D01*
%TO.N,D27_RELAY3*%
X135000000Y-67080000D02*
X130358000Y-67080000D01*
%TO.N,D28_RELAY4*%
X132001300Y-69620000D02*
X135000000Y-69620000D01*
X129620700Y-64446400D02*
X129620700Y-67239400D01*
X123145300Y-51068700D02*
X124048800Y-50165200D01*
X124048800Y-50165200D02*
X125087700Y-50165200D01*
X121980000Y-51360000D02*
X123145300Y-51360000D01*
X128508800Y-53586300D02*
X128508800Y-63334500D01*
X125087700Y-50165200D02*
X128508800Y-53586300D01*
X128508800Y-63334500D02*
X129620700Y-64446400D01*
X123145300Y-51360000D02*
X123145300Y-51068700D01*
X129620700Y-67239400D02*
X132001300Y-69620000D01*
%TO.N,D29_RELAY5*%
X126085500Y-53799500D02*
X126085500Y-61637300D01*
X124520000Y-51360000D02*
X124520000Y-52525300D01*
X124520000Y-52525300D02*
X124811300Y-52525300D01*
X133902600Y-72160000D02*
X135000000Y-72160000D01*
X126085500Y-61637300D02*
X129219000Y-64770800D01*
X129219000Y-67476400D02*
X133902600Y-72160000D01*
X124811300Y-52525300D02*
X126085500Y-53799500D01*
X129219000Y-64770800D02*
X129219000Y-67476400D01*
%TO.N,D30_RELAY6*%
X129646500Y-70970500D02*
X131270500Y-70970500D01*
X131270500Y-70970500D02*
X135000000Y-74700000D01*
%TO.N,D31_RELAY7*%
X124520000Y-55065300D02*
X124246700Y-55065300D01*
X125685300Y-67925300D02*
X135000000Y-77240000D01*
X124246700Y-55065300D02*
X123354700Y-55957300D01*
X124520000Y-53900000D02*
X124520000Y-55065300D01*
X124884600Y-62685300D02*
X125685300Y-63486000D01*
X123354700Y-62002700D02*
X124037300Y-62685300D01*
X124037300Y-62685300D02*
X124884600Y-62685300D01*
X123354700Y-55957300D02*
X123354700Y-62002700D01*
X125685300Y-63486000D02*
X125685300Y-67925300D01*
%TO.N,D32_RELAY8*%
X128153700Y-72933700D02*
X120113000Y-72933700D01*
X135000000Y-79780000D02*
X128153700Y-72933700D01*
%TO.N,D34_RELAY10*%
X135000000Y-94540000D02*
X134025200Y-95514800D01*
X134025200Y-95514800D02*
X123818400Y-95514800D01*
%TO.N,D36_RELAY12*%
X128618200Y-99620000D02*
X125122900Y-96124700D01*
X135000000Y-99620000D02*
X128618200Y-99620000D01*
%TO.N,RELAY1_COIL_LOW*%
X155620000Y-62000000D02*
X157620000Y-60000000D01*
X145160000Y-62000000D02*
X155620000Y-62000000D01*
%TO.N,RELAY2_COIL_LOW*%
X175620000Y-60000000D02*
X171080000Y-64540000D01*
X171080000Y-64540000D02*
X145160000Y-64540000D01*
%TO.N,RELAY3_COIL_LOW*%
X193620000Y-60000000D02*
X186540000Y-67080000D01*
X186540000Y-67080000D02*
X145160000Y-67080000D01*
%TO.N,RELAY4_COIL_LOW*%
X202000000Y-69620000D02*
X145160000Y-69620000D01*
X211620000Y-60000000D02*
X202000000Y-69620000D01*
%TO.N,RELAY5_COIL_LOW*%
X229620000Y-60000000D02*
X217460000Y-72160000D01*
X217460000Y-72160000D02*
X145160000Y-72160000D01*
%TO.N,RELAY6_COIL_LOW*%
X247620000Y-60000000D02*
X232920000Y-74700000D01*
X232920000Y-74700000D02*
X145160000Y-74700000D01*
%TO.N,RELAY7_COIL_LOW*%
X248380000Y-77240000D02*
X145160000Y-77240000D01*
X265620000Y-60000000D02*
X248380000Y-77240000D01*
%TO.N,RELAY8_COIL_LOW*%
X256389100Y-75891400D02*
X254343300Y-77937200D01*
X267728600Y-75891400D02*
X256389100Y-75891400D01*
X147002800Y-77937200D02*
X145160000Y-79780000D01*
X283620000Y-60000000D02*
X267728600Y-75891400D01*
X254343300Y-77937200D02*
X147002800Y-77937200D01*
%TO.N,RELAY10_COIL_LOW*%
X167268400Y-106648400D02*
X148786100Y-106648400D01*
X175620000Y-115000000D02*
X167268400Y-106648400D01*
X148786100Y-106648400D02*
X146674900Y-104537200D01*
%TO.N,RELAY11_COIL_LOW*%
X144612700Y-103368700D02*
X143919300Y-102675300D01*
X143919300Y-98320700D02*
X145160000Y-97080000D01*
X181927500Y-103307500D02*
X147760600Y-103307500D01*
X143919300Y-102675300D02*
X143919300Y-98320700D01*
X147699400Y-103368700D02*
X144612700Y-103368700D01*
X147760600Y-103307500D02*
X147699400Y-103368700D01*
X193620000Y-115000000D02*
X181927500Y-103307500D01*
%TO.N,RELAY12_COIL_LOW*%
X145160000Y-99620000D02*
X146801700Y-101261700D01*
X197881700Y-101261700D02*
X211620000Y-115000000D01*
X146801700Y-101261700D02*
X197881700Y-101261700D01*
%TO.N,RELAY13_COIL_LOW*%
X209760200Y-116590700D02*
X195329500Y-102160000D01*
X228029300Y-116590700D02*
X209760200Y-116590700D01*
X229620000Y-115000000D02*
X228029300Y-116590700D01*
X195329500Y-102160000D02*
X145160000Y-102160000D01*
%TO.N,RELAY14_COIL_LOW*%
X245579700Y-117040300D02*
X247620000Y-115000000D01*
X157500300Y-117040300D02*
X245579700Y-117040300D01*
X145160000Y-104700000D02*
X157500300Y-117040300D01*
%TO.N,RELAY15_COIL_LOW*%
X155935500Y-117447500D02*
X145728000Y-107240000D01*
X265620000Y-115000000D02*
X263172500Y-117447500D01*
X145728000Y-107240000D02*
X145160000Y-107240000D01*
X263172500Y-117447500D02*
X155935500Y-117447500D01*
%TO.N,RELAY16_COIL_LOW*%
X150018300Y-112098300D02*
X155484900Y-117564900D01*
X155484900Y-117706300D02*
X155678500Y-117899900D01*
X280720100Y-117899900D02*
X283620000Y-115000000D01*
X145160000Y-109780000D02*
X147478300Y-112098300D01*
X155484900Y-117564900D02*
X155484900Y-117706300D01*
X147478300Y-112098300D02*
X150018300Y-112098300D01*
X155678500Y-117899900D02*
X280720100Y-117899900D01*
%TO.N,+5V_MEGA*%
D26*
X124520000Y-41200000D02*
X121980000Y-41200000D01*
%TO.N,TRAM_G_NEG*%
D27*
X142160000Y-194000000D02*
X139708300Y-191548300D01*
X139708300Y-191548300D02*
X113642600Y-191548300D01*
%TO.N,ALBA_R_NEG*%
X72540000Y-165000000D02*
X72540000Y-165560100D01*
X149604600Y-182524600D02*
X161080000Y-194000000D01*
X97938900Y-177581800D02*
X102881700Y-182524600D01*
X84561700Y-177581800D02*
X97938900Y-177581800D01*
X102881700Y-182524600D02*
X149604600Y-182524600D01*
X72540000Y-165560100D02*
X84561700Y-177581800D01*
%TO.N,ALBA_G_NEG*%
X92540000Y-165765300D02*
X92540000Y-165000000D01*
X104407400Y-177632700D02*
X92540000Y-165765300D01*
X149792700Y-177632700D02*
X104407400Y-177632700D01*
X166160000Y-194000000D02*
X149792700Y-177632700D01*
%TO.N,D6_BUZZER*%
D25*
X45009700Y-154311400D02*
X41153100Y-154311400D01*
X48000000Y-156000000D02*
X46698300Y-156000000D01*
X46698300Y-156000000D02*
X45009700Y-154311400D01*
%TO.N,GATE_Q1*%
X59201700Y-137500000D02*
X61701700Y-135000000D01*
X61701700Y-135000000D02*
X70000000Y-135000000D01*
X58000000Y-137500000D02*
X59201700Y-137500000D01*
%TO.N,GATE_Q2*%
X81701700Y-135000000D02*
X90000000Y-135000000D01*
X79201700Y-137500000D02*
X81701700Y-135000000D01*
X78000000Y-137500000D02*
X79201700Y-137500000D01*
%TO.N,GATE_Q3*%
X118160000Y-132500000D02*
X113160000Y-137500000D01*
X113160000Y-137500000D02*
X108000000Y-137500000D01*
%TO.N,GATE_Q4*%
X64201700Y-147500000D02*
X59201700Y-152500000D01*
X68160000Y-147500000D02*
X64201700Y-147500000D01*
X58000000Y-152500000D02*
X59201700Y-152500000D01*
%TO.N,GATE_Q5*%
X81701700Y-150000000D02*
X90000000Y-150000000D01*
X78000000Y-152500000D02*
X79201700Y-152500000D01*
X79201700Y-152500000D02*
X81701700Y-150000000D01*
%TO.N,GATE_Q6*%
X111701700Y-150000000D02*
X120000000Y-150000000D01*
X108000000Y-152500000D02*
X109201700Y-152500000D01*
X109201700Y-152500000D02*
X111701700Y-150000000D01*
%TO.N,GATE_Q7*%
X59201700Y-167500000D02*
X61701700Y-165000000D01*
X58000000Y-167500000D02*
X59201700Y-167500000D01*
X61701700Y-165000000D02*
X70000000Y-165000000D01*
%TO.N,GATE_Q8*%
X90000000Y-165000000D02*
X81701700Y-165000000D01*
X78000000Y-167500000D02*
X79201700Y-167500000D01*
X81701700Y-165000000D02*
X79201700Y-167500000D01*
%TO.N,GATE_Q9*%
X111701700Y-165000000D02*
X120000000Y-165000000D01*
X108000000Y-167500000D02*
X109201700Y-167500000D01*
X109201700Y-167500000D02*
X111701700Y-165000000D01*
%TO.N,R1_NO*%
D28*
X170080000Y-27000000D02*
X170080000Y-32300000D01*
X170080000Y-32300000D02*
X157620000Y-44760000D01*
%TO.N,R2_NO*%
X187080000Y-33300000D02*
X175620000Y-44760000D01*
X187080000Y-27000000D02*
X187080000Y-33300000D01*
%TO.N,R3_COM*%
X186000000Y-48137200D02*
X186000000Y-49840000D01*
X199000000Y-27000000D02*
X199000000Y-35137200D01*
X199000000Y-35137200D02*
X186000000Y-48137200D01*
%TO.N,R3_NO*%
X204080000Y-34300000D02*
X193620000Y-44760000D01*
X204080000Y-27000000D02*
X204080000Y-34300000D01*
%TO.N,R4_COM*%
X216000000Y-27000000D02*
X216000000Y-36137200D01*
X204000000Y-48137200D02*
X204000000Y-49840000D01*
X216000000Y-36137200D02*
X204000000Y-48137200D01*
%TO.N,R4_NO*%
X221080000Y-27000000D02*
X221080000Y-35300000D01*
X221080000Y-35300000D02*
X211620000Y-44760000D01*
%TO.N,R5_COM*%
X233000000Y-27000000D02*
X233000000Y-37137200D01*
X222000000Y-48137200D02*
X222000000Y-49840000D01*
X233000000Y-37137200D02*
X222000000Y-48137200D01*
%TO.N,R5_NO*%
X238080000Y-27000000D02*
X238080000Y-36300000D01*
X238080000Y-36300000D02*
X229620000Y-44760000D01*
%TO.N,R6_COM*%
X250000000Y-27000000D02*
X250000000Y-38137200D01*
X250000000Y-38137200D02*
X240000000Y-48137200D01*
X240000000Y-48137200D02*
X240000000Y-49840000D01*
%TO.N,R6_NO*%
X255080000Y-37300000D02*
X247620000Y-44760000D01*
X255080000Y-27000000D02*
X255080000Y-37300000D01*
%TO.N,R7_COM*%
X267000000Y-27000000D02*
X267000000Y-39137200D01*
X258000000Y-48137200D02*
X258000000Y-49840000D01*
X267000000Y-39137200D02*
X258000000Y-48137200D01*
%TO.N,R8_NC*%
X294160000Y-27000000D02*
X278940000Y-42220000D01*
X278940000Y-42220000D02*
X276000000Y-42220000D01*
%TO.N,R8_COM*%
X284000000Y-27000000D02*
X284000000Y-29501700D01*
X273551500Y-47391500D02*
X276000000Y-49840000D01*
X273551500Y-39950200D02*
X273551500Y-47391500D01*
X284000000Y-29501700D02*
X273551500Y-39950200D01*
%TO.N,R9_NC*%
X312000000Y-37840000D02*
X272646900Y-77193100D01*
X254882400Y-79238900D02*
X167981100Y-79238900D01*
X272646900Y-77193100D02*
X256928200Y-77193100D01*
X167981100Y-79238900D02*
X150000000Y-97220000D01*
X256928200Y-77193100D02*
X254882400Y-79238900D01*
%TO.N,R11_NC*%
X257840100Y-79394800D02*
X255794300Y-81440600D01*
X255794300Y-81440600D02*
X201779400Y-81440600D01*
X302445200Y-79394800D02*
X257840100Y-79394800D01*
X312000000Y-69840000D02*
X302445200Y-79394800D01*
X201779400Y-81440600D02*
X186000000Y-97220000D01*
%TO.N,R11_NO*%
X312000000Y-74920000D02*
X305323500Y-81596500D01*
X256706200Y-83642300D02*
X209737700Y-83642300D01*
X258752000Y-81596500D02*
X256706200Y-83642300D01*
X209737700Y-83642300D02*
X193620000Y-99760000D01*
X305323500Y-81596500D02*
X258752000Y-81596500D01*
%TO.N,R12_NC*%
X257618100Y-85844000D02*
X215376000Y-85844000D01*
X312000000Y-85840000D02*
X311996000Y-85844000D01*
X287044100Y-85844000D02*
X284998300Y-83798200D01*
X284998300Y-83798200D02*
X259663900Y-83798200D01*
X215376000Y-85844000D02*
X204000000Y-97220000D01*
X311996000Y-85844000D02*
X287044100Y-85844000D01*
X259663900Y-83798200D02*
X257618100Y-85844000D01*
%TO.N,R12_NO*%
X260575800Y-85999900D02*
X258374100Y-88201600D01*
X284086400Y-85999900D02*
X260575800Y-85999900D01*
X312000000Y-90920000D02*
X309281600Y-88201600D01*
X258374100Y-88201600D02*
X223178400Y-88201600D01*
X286288100Y-88201600D02*
X284086400Y-85999900D01*
X309281600Y-88201600D02*
X286288100Y-88201600D01*
X223178400Y-88201600D02*
X211620000Y-99760000D01*
%TO.N,R13_NC*%
X228816700Y-90403300D02*
X222000000Y-97220000D01*
X312000000Y-101840000D02*
X300563300Y-90403300D01*
X259286000Y-90403300D02*
X228816700Y-90403300D01*
X285376200Y-90403300D02*
X283174500Y-88201600D01*
X261487700Y-88201600D02*
X259286000Y-90403300D01*
X300563300Y-90403300D02*
X285376200Y-90403300D01*
X283174500Y-88201600D02*
X261487700Y-88201600D01*
%TO.N,R13_COM*%
X235776600Y-104840000D02*
X222000000Y-104840000D01*
X261109800Y-94806700D02*
X245809900Y-94806700D01*
X312000000Y-112000000D02*
X309498300Y-112000000D01*
X283552300Y-94806700D02*
X281350600Y-92605000D01*
X263311500Y-92605000D02*
X261109800Y-94806700D01*
X309498300Y-112000000D02*
X292305000Y-94806700D01*
X281350600Y-92605000D02*
X263311500Y-92605000D01*
X292305000Y-94806700D02*
X283552300Y-94806700D01*
X245809900Y-94806700D02*
X235776600Y-104840000D01*
%TO.N,R13_NO*%
X232373100Y-97006900D02*
X229620000Y-99760000D01*
X236816700Y-97006800D02*
X236816700Y-97006900D01*
X312000000Y-106920000D02*
X297685000Y-92605000D01*
X284464300Y-92605000D02*
X282262600Y-90403300D01*
X262399600Y-90403300D02*
X260197900Y-92605000D01*
X297685000Y-92605000D02*
X284464300Y-92605000D01*
X236816700Y-97006900D02*
X232373100Y-97006900D01*
X241218500Y-92605000D02*
X236816700Y-97006800D01*
X282262600Y-90403300D02*
X262399600Y-90403300D01*
X260197900Y-92605000D02*
X241218500Y-92605000D01*
%TO.N,R14_COM*%
X310983600Y-125498300D02*
X309498300Y-124013000D01*
X279510800Y-94806700D02*
X264639000Y-94806700D01*
X309498300Y-122225900D02*
X284455700Y-97183300D01*
X257285500Y-102160200D02*
X249706700Y-102160200D01*
X264639000Y-94806700D02*
X257285500Y-102160200D01*
X249706700Y-102160200D02*
X247026900Y-104840000D01*
X312000000Y-128000000D02*
X312000000Y-125498300D01*
X284455700Y-97183300D02*
X281887400Y-97183300D01*
X312000000Y-125498300D02*
X310983600Y-125498300D01*
X247026900Y-104840000D02*
X240000000Y-104840000D01*
X281887400Y-97183300D02*
X279510800Y-94806700D01*
X309498300Y-124013000D02*
X309498300Y-122225900D01*
%TO.N,R16_COM*%
X291646500Y-138161100D02*
X291646500Y-119629900D01*
X310983700Y-157498300D02*
X291646500Y-138161100D01*
X291646500Y-119629900D02*
X276856600Y-104840000D01*
X312000000Y-157498300D02*
X310983700Y-157498300D01*
X276856600Y-104840000D02*
X276000000Y-104840000D01*
X312000000Y-160000000D02*
X312000000Y-157498300D01*
%TO.N,R16_NO*%
X293848200Y-136768200D02*
X293848200Y-109988200D01*
X312000000Y-154920000D02*
X293848200Y-136768200D01*
X293848200Y-109988200D02*
X283620000Y-99760000D01*
%TD*%
M02*
