%TF.GenerationSoftware,KiCad,Pcbnew,10.0.6*%
%TF.CreationDate,2026-10-03T17:44:26+00:00*%
%TF.ProjectId,PSN-Presepe-Mega-FREEROUTED,50534e2d-5072-4657-9365-70652d4d6567,rev?*%
%TF.SameCoordinates,Original*%
%TF.FileFunction,Legend,Top*%
%TF.FilePolarity,Positive*%
%FSLAX46Y46*%
G04 Gerber Fmt 4.6, Leading zero omitted, Abs format (unit mm)*
G04 Created by KiCad (PCBNEW 10.0.6) date 2026-10-03 17:44:26*
%MOMM*%
%LPD*%
G01*
G04 APERTURE LIST*
%ADD10C,0.110000*%
%ADD11C,0.120000*%
%ADD12C,0.160000*%
%ADD13C,0.150000*%
%ADD14C,0.250000*%
G04 APERTURE END LIST*
D10*
X27695238Y-178559613D02*
X28304762Y-178559613D01*
X28000000Y-178864375D02*
X28000000Y-178254851D01*
X32775238Y-178559613D02*
X33384762Y-178559613D01*
D11*
X87619048Y-35363855D02*
X87619048Y-34563855D01*
X87619048Y-34563855D02*
X88076191Y-35363855D01*
X88076191Y-35363855D02*
X88076191Y-34563855D01*
X88609524Y-34563855D02*
X88761905Y-34563855D01*
X88761905Y-34563855D02*
X88838095Y-34601950D01*
X88838095Y-34601950D02*
X88914286Y-34678140D01*
X88914286Y-34678140D02*
X88952381Y-34830521D01*
X88952381Y-34830521D02*
X88952381Y-35097188D01*
X88952381Y-35097188D02*
X88914286Y-35249569D01*
X88914286Y-35249569D02*
X88838095Y-35325760D01*
X88838095Y-35325760D02*
X88761905Y-35363855D01*
X88761905Y-35363855D02*
X88609524Y-35363855D01*
X88609524Y-35363855D02*
X88533333Y-35325760D01*
X88533333Y-35325760D02*
X88457143Y-35249569D01*
X88457143Y-35249569D02*
X88419047Y-35097188D01*
X88419047Y-35097188D02*
X88419047Y-34830521D01*
X88419047Y-34830521D02*
X88457143Y-34678140D01*
X88457143Y-34678140D02*
X88533333Y-34601950D01*
X88533333Y-34601950D02*
X88609524Y-34563855D01*
X90323809Y-34601950D02*
X90247619Y-34563855D01*
X90247619Y-34563855D02*
X90133333Y-34563855D01*
X90133333Y-34563855D02*
X90019047Y-34601950D01*
X90019047Y-34601950D02*
X89942857Y-34678140D01*
X89942857Y-34678140D02*
X89904762Y-34754331D01*
X89904762Y-34754331D02*
X89866666Y-34906712D01*
X89866666Y-34906712D02*
X89866666Y-35020998D01*
X89866666Y-35020998D02*
X89904762Y-35173379D01*
X89904762Y-35173379D02*
X89942857Y-35249569D01*
X89942857Y-35249569D02*
X90019047Y-35325760D01*
X90019047Y-35325760D02*
X90133333Y-35363855D01*
X90133333Y-35363855D02*
X90209524Y-35363855D01*
X90209524Y-35363855D02*
X90323809Y-35325760D01*
X90323809Y-35325760D02*
X90361905Y-35287664D01*
X90361905Y-35287664D02*
X90361905Y-35020998D01*
X90361905Y-35020998D02*
X90209524Y-35020998D01*
X90704762Y-35363855D02*
X90704762Y-34563855D01*
X90704762Y-34563855D02*
X91161905Y-35363855D01*
X91161905Y-35363855D02*
X91161905Y-34563855D01*
X91542857Y-35363855D02*
X91542857Y-34563855D01*
X91542857Y-34563855D02*
X91733333Y-34563855D01*
X91733333Y-34563855D02*
X91847619Y-34601950D01*
X91847619Y-34601950D02*
X91923809Y-34678140D01*
X91923809Y-34678140D02*
X91961904Y-34754331D01*
X91961904Y-34754331D02*
X92000000Y-34906712D01*
X92000000Y-34906712D02*
X92000000Y-35020998D01*
X92000000Y-35020998D02*
X91961904Y-35173379D01*
X91961904Y-35173379D02*
X91923809Y-35249569D01*
X91923809Y-35249569D02*
X91847619Y-35325760D01*
X91847619Y-35325760D02*
X91733333Y-35363855D01*
X91733333Y-35363855D02*
X91542857Y-35363855D01*
X92952381Y-35363855D02*
X92952381Y-34563855D01*
X92952381Y-34563855D02*
X93257143Y-34563855D01*
X93257143Y-34563855D02*
X93333333Y-34601950D01*
X93333333Y-34601950D02*
X93371428Y-34640045D01*
X93371428Y-34640045D02*
X93409524Y-34716236D01*
X93409524Y-34716236D02*
X93409524Y-34830521D01*
X93409524Y-34830521D02*
X93371428Y-34906712D01*
X93371428Y-34906712D02*
X93333333Y-34944807D01*
X93333333Y-34944807D02*
X93257143Y-34982902D01*
X93257143Y-34982902D02*
X92952381Y-34982902D01*
X94133333Y-35363855D02*
X93752381Y-35363855D01*
X93752381Y-35363855D02*
X93752381Y-34563855D01*
X94361904Y-35135283D02*
X94742857Y-35135283D01*
X94285714Y-35363855D02*
X94552381Y-34563855D01*
X94552381Y-34563855D02*
X94819047Y-35363855D01*
X95085714Y-35363855D02*
X95085714Y-34563855D01*
X95085714Y-34563855D02*
X95542857Y-35363855D01*
X95542857Y-35363855D02*
X95542857Y-34563855D01*
X95923809Y-34944807D02*
X96190475Y-34944807D01*
X96304761Y-35363855D02*
X95923809Y-35363855D01*
X95923809Y-35363855D02*
X95923809Y-34563855D01*
X95923809Y-34563855D02*
X96304761Y-34563855D01*
X97257143Y-34563855D02*
X97257143Y-35211474D01*
X97257143Y-35211474D02*
X97295238Y-35287664D01*
X97295238Y-35287664D02*
X97333333Y-35325760D01*
X97333333Y-35325760D02*
X97409524Y-35363855D01*
X97409524Y-35363855D02*
X97561905Y-35363855D01*
X97561905Y-35363855D02*
X97638095Y-35325760D01*
X97638095Y-35325760D02*
X97676190Y-35287664D01*
X97676190Y-35287664D02*
X97714286Y-35211474D01*
X97714286Y-35211474D02*
X97714286Y-34563855D01*
X98095238Y-35363855D02*
X98095238Y-34563855D01*
X98095238Y-34563855D02*
X98552381Y-35363855D01*
X98552381Y-35363855D02*
X98552381Y-34563855D01*
X98933333Y-35363855D02*
X98933333Y-34563855D01*
X98933333Y-34563855D02*
X99123809Y-34563855D01*
X99123809Y-34563855D02*
X99238095Y-34601950D01*
X99238095Y-34601950D02*
X99314285Y-34678140D01*
X99314285Y-34678140D02*
X99352380Y-34754331D01*
X99352380Y-34754331D02*
X99390476Y-34906712D01*
X99390476Y-34906712D02*
X99390476Y-35020998D01*
X99390476Y-35020998D02*
X99352380Y-35173379D01*
X99352380Y-35173379D02*
X99314285Y-35249569D01*
X99314285Y-35249569D02*
X99238095Y-35325760D01*
X99238095Y-35325760D02*
X99123809Y-35363855D01*
X99123809Y-35363855D02*
X98933333Y-35363855D01*
X99733333Y-34944807D02*
X99999999Y-34944807D01*
X100114285Y-35363855D02*
X99733333Y-35363855D01*
X99733333Y-35363855D02*
X99733333Y-34563855D01*
X99733333Y-34563855D02*
X100114285Y-34563855D01*
X100914286Y-35363855D02*
X100647619Y-34982902D01*
X100457143Y-35363855D02*
X100457143Y-34563855D01*
X100457143Y-34563855D02*
X100761905Y-34563855D01*
X100761905Y-34563855D02*
X100838095Y-34601950D01*
X100838095Y-34601950D02*
X100876190Y-34640045D01*
X100876190Y-34640045D02*
X100914286Y-34716236D01*
X100914286Y-34716236D02*
X100914286Y-34830521D01*
X100914286Y-34830521D02*
X100876190Y-34906712D01*
X100876190Y-34906712D02*
X100838095Y-34944807D01*
X100838095Y-34944807D02*
X100761905Y-34982902D01*
X100761905Y-34982902D02*
X100457143Y-34982902D01*
X102323810Y-35287664D02*
X102285714Y-35325760D01*
X102285714Y-35325760D02*
X102171429Y-35363855D01*
X102171429Y-35363855D02*
X102095238Y-35363855D01*
X102095238Y-35363855D02*
X101980952Y-35325760D01*
X101980952Y-35325760D02*
X101904762Y-35249569D01*
X101904762Y-35249569D02*
X101866667Y-35173379D01*
X101866667Y-35173379D02*
X101828571Y-35020998D01*
X101828571Y-35020998D02*
X101828571Y-34906712D01*
X101828571Y-34906712D02*
X101866667Y-34754331D01*
X101866667Y-34754331D02*
X101904762Y-34678140D01*
X101904762Y-34678140D02*
X101980952Y-34601950D01*
X101980952Y-34601950D02*
X102095238Y-34563855D01*
X102095238Y-34563855D02*
X102171429Y-34563855D01*
X102171429Y-34563855D02*
X102285714Y-34601950D01*
X102285714Y-34601950D02*
X102323810Y-34640045D01*
X102819048Y-34563855D02*
X102971429Y-34563855D01*
X102971429Y-34563855D02*
X103047619Y-34601950D01*
X103047619Y-34601950D02*
X103123810Y-34678140D01*
X103123810Y-34678140D02*
X103161905Y-34830521D01*
X103161905Y-34830521D02*
X103161905Y-35097188D01*
X103161905Y-35097188D02*
X103123810Y-35249569D01*
X103123810Y-35249569D02*
X103047619Y-35325760D01*
X103047619Y-35325760D02*
X102971429Y-35363855D01*
X102971429Y-35363855D02*
X102819048Y-35363855D01*
X102819048Y-35363855D02*
X102742857Y-35325760D01*
X102742857Y-35325760D02*
X102666667Y-35249569D01*
X102666667Y-35249569D02*
X102628571Y-35097188D01*
X102628571Y-35097188D02*
X102628571Y-34830521D01*
X102628571Y-34830521D02*
X102666667Y-34678140D01*
X102666667Y-34678140D02*
X102742857Y-34601950D01*
X102742857Y-34601950D02*
X102819048Y-34563855D01*
X103504762Y-35363855D02*
X103504762Y-34563855D01*
X103504762Y-34563855D02*
X103961905Y-35363855D01*
X103961905Y-35363855D02*
X103961905Y-34563855D01*
X104228571Y-34563855D02*
X104685714Y-34563855D01*
X104457142Y-35363855D02*
X104457142Y-34563855D01*
X104914285Y-35135283D02*
X105295238Y-35135283D01*
X104838095Y-35363855D02*
X105104762Y-34563855D01*
X105104762Y-34563855D02*
X105371428Y-35363855D01*
X106095238Y-35287664D02*
X106057142Y-35325760D01*
X106057142Y-35325760D02*
X105942857Y-35363855D01*
X105942857Y-35363855D02*
X105866666Y-35363855D01*
X105866666Y-35363855D02*
X105752380Y-35325760D01*
X105752380Y-35325760D02*
X105676190Y-35249569D01*
X105676190Y-35249569D02*
X105638095Y-35173379D01*
X105638095Y-35173379D02*
X105599999Y-35020998D01*
X105599999Y-35020998D02*
X105599999Y-34906712D01*
X105599999Y-34906712D02*
X105638095Y-34754331D01*
X105638095Y-34754331D02*
X105676190Y-34678140D01*
X105676190Y-34678140D02*
X105752380Y-34601950D01*
X105752380Y-34601950D02*
X105866666Y-34563855D01*
X105866666Y-34563855D02*
X105942857Y-34563855D01*
X105942857Y-34563855D02*
X106057142Y-34601950D01*
X106057142Y-34601950D02*
X106095238Y-34640045D01*
X106323809Y-34563855D02*
X106780952Y-34563855D01*
X106552380Y-35363855D02*
X106552380Y-34563855D01*
X108114286Y-35363855D02*
X107847619Y-34982902D01*
X107657143Y-35363855D02*
X107657143Y-34563855D01*
X107657143Y-34563855D02*
X107961905Y-34563855D01*
X107961905Y-34563855D02*
X108038095Y-34601950D01*
X108038095Y-34601950D02*
X108076190Y-34640045D01*
X108076190Y-34640045D02*
X108114286Y-34716236D01*
X108114286Y-34716236D02*
X108114286Y-34830521D01*
X108114286Y-34830521D02*
X108076190Y-34906712D01*
X108076190Y-34906712D02*
X108038095Y-34944807D01*
X108038095Y-34944807D02*
X107961905Y-34982902D01*
X107961905Y-34982902D02*
X107657143Y-34982902D01*
X108609524Y-34563855D02*
X108761905Y-34563855D01*
X108761905Y-34563855D02*
X108838095Y-34601950D01*
X108838095Y-34601950D02*
X108914286Y-34678140D01*
X108914286Y-34678140D02*
X108952381Y-34830521D01*
X108952381Y-34830521D02*
X108952381Y-35097188D01*
X108952381Y-35097188D02*
X108914286Y-35249569D01*
X108914286Y-35249569D02*
X108838095Y-35325760D01*
X108838095Y-35325760D02*
X108761905Y-35363855D01*
X108761905Y-35363855D02*
X108609524Y-35363855D01*
X108609524Y-35363855D02*
X108533333Y-35325760D01*
X108533333Y-35325760D02*
X108457143Y-35249569D01*
X108457143Y-35249569D02*
X108419047Y-35097188D01*
X108419047Y-35097188D02*
X108419047Y-34830521D01*
X108419047Y-34830521D02*
X108457143Y-34678140D01*
X108457143Y-34678140D02*
X108533333Y-34601950D01*
X108533333Y-34601950D02*
X108609524Y-34563855D01*
X109295238Y-34563855D02*
X109295238Y-35211474D01*
X109295238Y-35211474D02*
X109333333Y-35287664D01*
X109333333Y-35287664D02*
X109371428Y-35325760D01*
X109371428Y-35325760D02*
X109447619Y-35363855D01*
X109447619Y-35363855D02*
X109600000Y-35363855D01*
X109600000Y-35363855D02*
X109676190Y-35325760D01*
X109676190Y-35325760D02*
X109714285Y-35287664D01*
X109714285Y-35287664D02*
X109752381Y-35211474D01*
X109752381Y-35211474D02*
X109752381Y-34563855D01*
X110019047Y-34563855D02*
X110476190Y-34563855D01*
X110247618Y-35363855D02*
X110247618Y-34563855D01*
X110742857Y-35363855D02*
X110742857Y-34563855D01*
X111123809Y-35363855D02*
X111123809Y-34563855D01*
X111123809Y-34563855D02*
X111580952Y-35363855D01*
X111580952Y-35363855D02*
X111580952Y-34563855D01*
X112380951Y-34601950D02*
X112304761Y-34563855D01*
X112304761Y-34563855D02*
X112190475Y-34563855D01*
X112190475Y-34563855D02*
X112076189Y-34601950D01*
X112076189Y-34601950D02*
X111999999Y-34678140D01*
X111999999Y-34678140D02*
X111961904Y-34754331D01*
X111961904Y-34754331D02*
X111923808Y-34906712D01*
X111923808Y-34906712D02*
X111923808Y-35020998D01*
X111923808Y-35020998D02*
X111961904Y-35173379D01*
X111961904Y-35173379D02*
X111999999Y-35249569D01*
X111999999Y-35249569D02*
X112076189Y-35325760D01*
X112076189Y-35325760D02*
X112190475Y-35363855D01*
X112190475Y-35363855D02*
X112266666Y-35363855D01*
X112266666Y-35363855D02*
X112380951Y-35325760D01*
X112380951Y-35325760D02*
X112419047Y-35287664D01*
X112419047Y-35287664D02*
X112419047Y-35020998D01*
X112419047Y-35020998D02*
X112266666Y-35020998D01*
D12*
X73585715Y-130408037D02*
X73585715Y-129508037D01*
X73585715Y-129508037D02*
X73885715Y-130150894D01*
X73885715Y-130150894D02*
X74185715Y-129508037D01*
X74185715Y-129508037D02*
X74185715Y-130408037D01*
X74785715Y-129508037D02*
X74957143Y-129508037D01*
X74957143Y-129508037D02*
X75042858Y-129550894D01*
X75042858Y-129550894D02*
X75128572Y-129636608D01*
X75128572Y-129636608D02*
X75171429Y-129808037D01*
X75171429Y-129808037D02*
X75171429Y-130108037D01*
X75171429Y-130108037D02*
X75128572Y-130279465D01*
X75128572Y-130279465D02*
X75042858Y-130365180D01*
X75042858Y-130365180D02*
X74957143Y-130408037D01*
X74957143Y-130408037D02*
X74785715Y-130408037D01*
X74785715Y-130408037D02*
X74700001Y-130365180D01*
X74700001Y-130365180D02*
X74614286Y-130279465D01*
X74614286Y-130279465D02*
X74571429Y-130108037D01*
X74571429Y-130108037D02*
X74571429Y-129808037D01*
X74571429Y-129808037D02*
X74614286Y-129636608D01*
X74614286Y-129636608D02*
X74700001Y-129550894D01*
X74700001Y-129550894D02*
X74785715Y-129508037D01*
X75514286Y-130365180D02*
X75642858Y-130408037D01*
X75642858Y-130408037D02*
X75857143Y-130408037D01*
X75857143Y-130408037D02*
X75942858Y-130365180D01*
X75942858Y-130365180D02*
X75985715Y-130322322D01*
X75985715Y-130322322D02*
X76028572Y-130236608D01*
X76028572Y-130236608D02*
X76028572Y-130150894D01*
X76028572Y-130150894D02*
X75985715Y-130065180D01*
X75985715Y-130065180D02*
X75942858Y-130022322D01*
X75942858Y-130022322D02*
X75857143Y-129979465D01*
X75857143Y-129979465D02*
X75685715Y-129936608D01*
X75685715Y-129936608D02*
X75600000Y-129893751D01*
X75600000Y-129893751D02*
X75557143Y-129850894D01*
X75557143Y-129850894D02*
X75514286Y-129765180D01*
X75514286Y-129765180D02*
X75514286Y-129679465D01*
X75514286Y-129679465D02*
X75557143Y-129593751D01*
X75557143Y-129593751D02*
X75600000Y-129550894D01*
X75600000Y-129550894D02*
X75685715Y-129508037D01*
X75685715Y-129508037D02*
X75900000Y-129508037D01*
X75900000Y-129508037D02*
X76028572Y-129550894D01*
X76714286Y-129936608D02*
X76414286Y-129936608D01*
X76414286Y-130408037D02*
X76414286Y-129508037D01*
X76414286Y-129508037D02*
X76842858Y-129508037D01*
X77185715Y-129936608D02*
X77485715Y-129936608D01*
X77614287Y-130408037D02*
X77185715Y-130408037D01*
X77185715Y-130408037D02*
X77185715Y-129508037D01*
X77185715Y-129508037D02*
X77614287Y-129508037D01*
X77871430Y-129508037D02*
X78385716Y-129508037D01*
X78128573Y-130408037D02*
X78128573Y-129508037D01*
X80014286Y-129465180D02*
X79242858Y-130622322D01*
X81000000Y-130408037D02*
X81000000Y-129508037D01*
X81000000Y-129936608D02*
X81514286Y-129936608D01*
X81514286Y-130408037D02*
X81514286Y-129508037D01*
X81942857Y-129936608D02*
X82242857Y-129936608D01*
X82371429Y-130408037D02*
X81942857Y-130408037D01*
X81942857Y-130408037D02*
X81942857Y-129508037D01*
X81942857Y-129508037D02*
X82371429Y-129508037D01*
X82714286Y-130150894D02*
X83142858Y-130150894D01*
X82628572Y-130408037D02*
X82928572Y-129508037D01*
X82928572Y-129508037D02*
X83228572Y-130408037D01*
X83400001Y-129508037D02*
X83914287Y-129508037D01*
X83657144Y-130408037D02*
X83657144Y-129508037D01*
X84171429Y-130365180D02*
X84300001Y-130408037D01*
X84300001Y-130408037D02*
X84514286Y-130408037D01*
X84514286Y-130408037D02*
X84600001Y-130365180D01*
X84600001Y-130365180D02*
X84642858Y-130322322D01*
X84642858Y-130322322D02*
X84685715Y-130236608D01*
X84685715Y-130236608D02*
X84685715Y-130150894D01*
X84685715Y-130150894D02*
X84642858Y-130065180D01*
X84642858Y-130065180D02*
X84600001Y-130022322D01*
X84600001Y-130022322D02*
X84514286Y-129979465D01*
X84514286Y-129979465D02*
X84342858Y-129936608D01*
X84342858Y-129936608D02*
X84257143Y-129893751D01*
X84257143Y-129893751D02*
X84214286Y-129850894D01*
X84214286Y-129850894D02*
X84171429Y-129765180D01*
X84171429Y-129765180D02*
X84171429Y-129679465D01*
X84171429Y-129679465D02*
X84214286Y-129593751D01*
X84214286Y-129593751D02*
X84257143Y-129550894D01*
X84257143Y-129550894D02*
X84342858Y-129508037D01*
X84342858Y-129508037D02*
X84557143Y-129508037D01*
X84557143Y-129508037D02*
X84685715Y-129550894D01*
X85071429Y-130408037D02*
X85071429Y-129508037D01*
X85500000Y-130408037D02*
X85500000Y-129508037D01*
X85500000Y-129508037D02*
X86014286Y-130408037D01*
X86014286Y-130408037D02*
X86014286Y-129508037D01*
X86442857Y-130408037D02*
X86442857Y-129508037D01*
X86957143Y-130408037D02*
X86571429Y-129893751D01*
X86957143Y-129508037D02*
X86442857Y-130022322D01*
X87985714Y-130150894D02*
X88414286Y-130150894D01*
X87900000Y-130408037D02*
X88200000Y-129508037D01*
X88200000Y-129508037D02*
X88500000Y-130408037D01*
X88800000Y-130408037D02*
X88800000Y-129508037D01*
X89742857Y-130408037D02*
X89442857Y-129979465D01*
X89228571Y-130408037D02*
X89228571Y-129508037D01*
X89228571Y-129508037D02*
X89571428Y-129508037D01*
X89571428Y-129508037D02*
X89657143Y-129550894D01*
X89657143Y-129550894D02*
X89700000Y-129593751D01*
X89700000Y-129593751D02*
X89742857Y-129679465D01*
X89742857Y-129679465D02*
X89742857Y-129808037D01*
X89742857Y-129808037D02*
X89700000Y-129893751D01*
X89700000Y-129893751D02*
X89657143Y-129936608D01*
X89657143Y-129936608D02*
X89571428Y-129979465D01*
X89571428Y-129979465D02*
X89228571Y-129979465D01*
X90428571Y-129936608D02*
X90128571Y-129936608D01*
X90128571Y-130408037D02*
X90128571Y-129508037D01*
X90128571Y-129508037D02*
X90557143Y-129508037D01*
X91328572Y-130408037D02*
X90900000Y-130408037D01*
X90900000Y-130408037D02*
X90900000Y-129508037D01*
X91800000Y-129508037D02*
X91971428Y-129508037D01*
X91971428Y-129508037D02*
X92057143Y-129550894D01*
X92057143Y-129550894D02*
X92142857Y-129636608D01*
X92142857Y-129636608D02*
X92185714Y-129808037D01*
X92185714Y-129808037D02*
X92185714Y-130108037D01*
X92185714Y-130108037D02*
X92142857Y-130279465D01*
X92142857Y-130279465D02*
X92057143Y-130365180D01*
X92057143Y-130365180D02*
X91971428Y-130408037D01*
X91971428Y-130408037D02*
X91800000Y-130408037D01*
X91800000Y-130408037D02*
X91714286Y-130365180D01*
X91714286Y-130365180D02*
X91628571Y-130279465D01*
X91628571Y-130279465D02*
X91585714Y-130108037D01*
X91585714Y-130108037D02*
X91585714Y-129808037D01*
X91585714Y-129808037D02*
X91628571Y-129636608D01*
X91628571Y-129636608D02*
X91714286Y-129550894D01*
X91714286Y-129550894D02*
X91800000Y-129508037D01*
X92485714Y-129508037D02*
X92700000Y-130408037D01*
X92700000Y-130408037D02*
X92871428Y-129765180D01*
X92871428Y-129765180D02*
X93042857Y-130408037D01*
X93042857Y-130408037D02*
X93257143Y-129508037D01*
X94199999Y-129508037D02*
X94799999Y-129508037D01*
X94799999Y-129508037D02*
X94199999Y-130408037D01*
X94199999Y-130408037D02*
X94799999Y-130408037D01*
X95314285Y-129508037D02*
X95485713Y-129508037D01*
X95485713Y-129508037D02*
X95571428Y-129550894D01*
X95571428Y-129550894D02*
X95657142Y-129636608D01*
X95657142Y-129636608D02*
X95699999Y-129808037D01*
X95699999Y-129808037D02*
X95699999Y-130108037D01*
X95699999Y-130108037D02*
X95657142Y-130279465D01*
X95657142Y-130279465D02*
X95571428Y-130365180D01*
X95571428Y-130365180D02*
X95485713Y-130408037D01*
X95485713Y-130408037D02*
X95314285Y-130408037D01*
X95314285Y-130408037D02*
X95228571Y-130365180D01*
X95228571Y-130365180D02*
X95142856Y-130279465D01*
X95142856Y-130279465D02*
X95099999Y-130108037D01*
X95099999Y-130108037D02*
X95099999Y-129808037D01*
X95099999Y-129808037D02*
X95142856Y-129636608D01*
X95142856Y-129636608D02*
X95228571Y-129550894D01*
X95228571Y-129550894D02*
X95314285Y-129508037D01*
X96085713Y-130408037D02*
X96085713Y-129508037D01*
X96085713Y-129508037D02*
X96599999Y-130408037D01*
X96599999Y-130408037D02*
X96599999Y-129508037D01*
X97028570Y-129936608D02*
X97328570Y-129936608D01*
X97457142Y-130408037D02*
X97028570Y-130408037D01*
X97028570Y-130408037D02*
X97028570Y-129508037D01*
X97028570Y-129508037D02*
X97457142Y-129508037D01*
D11*
X232371429Y-23287664D02*
X232333333Y-23325760D01*
X232333333Y-23325760D02*
X232219048Y-23363855D01*
X232219048Y-23363855D02*
X232142857Y-23363855D01*
X232142857Y-23363855D02*
X232028571Y-23325760D01*
X232028571Y-23325760D02*
X231952381Y-23249569D01*
X231952381Y-23249569D02*
X231914286Y-23173379D01*
X231914286Y-23173379D02*
X231876190Y-23020998D01*
X231876190Y-23020998D02*
X231876190Y-22906712D01*
X231876190Y-22906712D02*
X231914286Y-22754331D01*
X231914286Y-22754331D02*
X231952381Y-22678140D01*
X231952381Y-22678140D02*
X232028571Y-22601950D01*
X232028571Y-22601950D02*
X232142857Y-22563855D01*
X232142857Y-22563855D02*
X232219048Y-22563855D01*
X232219048Y-22563855D02*
X232333333Y-22601950D01*
X232333333Y-22601950D02*
X232371429Y-22640045D01*
X232866667Y-22563855D02*
X233019048Y-22563855D01*
X233019048Y-22563855D02*
X233095238Y-22601950D01*
X233095238Y-22601950D02*
X233171429Y-22678140D01*
X233171429Y-22678140D02*
X233209524Y-22830521D01*
X233209524Y-22830521D02*
X233209524Y-23097188D01*
X233209524Y-23097188D02*
X233171429Y-23249569D01*
X233171429Y-23249569D02*
X233095238Y-23325760D01*
X233095238Y-23325760D02*
X233019048Y-23363855D01*
X233019048Y-23363855D02*
X232866667Y-23363855D01*
X232866667Y-23363855D02*
X232790476Y-23325760D01*
X232790476Y-23325760D02*
X232714286Y-23249569D01*
X232714286Y-23249569D02*
X232676190Y-23097188D01*
X232676190Y-23097188D02*
X232676190Y-22830521D01*
X232676190Y-22830521D02*
X232714286Y-22678140D01*
X232714286Y-22678140D02*
X232790476Y-22601950D01*
X232790476Y-22601950D02*
X232866667Y-22563855D01*
X233552381Y-23363855D02*
X233552381Y-22563855D01*
X233552381Y-22563855D02*
X233819047Y-23135283D01*
X233819047Y-23135283D02*
X234085714Y-22563855D01*
X234085714Y-22563855D02*
X234085714Y-23363855D01*
D13*
X232833333Y-31454819D02*
X232500000Y-30978628D01*
X232261905Y-31454819D02*
X232261905Y-30454819D01*
X232261905Y-30454819D02*
X232642857Y-30454819D01*
X232642857Y-30454819D02*
X232738095Y-30502438D01*
X232738095Y-30502438D02*
X232785714Y-30550057D01*
X232785714Y-30550057D02*
X232833333Y-30645295D01*
X232833333Y-30645295D02*
X232833333Y-30788152D01*
X232833333Y-30788152D02*
X232785714Y-30883390D01*
X232785714Y-30883390D02*
X232738095Y-30931009D01*
X232738095Y-30931009D02*
X232642857Y-30978628D01*
X232642857Y-30978628D02*
X232261905Y-30978628D01*
X233738095Y-30454819D02*
X233261905Y-30454819D01*
X233261905Y-30454819D02*
X233214286Y-30931009D01*
X233214286Y-30931009D02*
X233261905Y-30883390D01*
X233261905Y-30883390D02*
X233357143Y-30835771D01*
X233357143Y-30835771D02*
X233595238Y-30835771D01*
X233595238Y-30835771D02*
X233690476Y-30883390D01*
X233690476Y-30883390D02*
X233738095Y-30931009D01*
X233738095Y-30931009D02*
X233785714Y-31026247D01*
X233785714Y-31026247D02*
X233785714Y-31264342D01*
X233785714Y-31264342D02*
X233738095Y-31359580D01*
X233738095Y-31359580D02*
X233690476Y-31407200D01*
X233690476Y-31407200D02*
X233595238Y-31454819D01*
X233595238Y-31454819D02*
X233357143Y-31454819D01*
X233357143Y-31454819D02*
X233261905Y-31407200D01*
X233261905Y-31407200D02*
X233214286Y-31359580D01*
D11*
X237432381Y-23363855D02*
X237432381Y-22563855D01*
X237432381Y-22563855D02*
X237889524Y-23363855D01*
X237889524Y-23363855D02*
X237889524Y-22563855D01*
X238422857Y-22563855D02*
X238575238Y-22563855D01*
X238575238Y-22563855D02*
X238651428Y-22601950D01*
X238651428Y-22601950D02*
X238727619Y-22678140D01*
X238727619Y-22678140D02*
X238765714Y-22830521D01*
X238765714Y-22830521D02*
X238765714Y-23097188D01*
X238765714Y-23097188D02*
X238727619Y-23249569D01*
X238727619Y-23249569D02*
X238651428Y-23325760D01*
X238651428Y-23325760D02*
X238575238Y-23363855D01*
X238575238Y-23363855D02*
X238422857Y-23363855D01*
X238422857Y-23363855D02*
X238346666Y-23325760D01*
X238346666Y-23325760D02*
X238270476Y-23249569D01*
X238270476Y-23249569D02*
X238232380Y-23097188D01*
X238232380Y-23097188D02*
X238232380Y-22830521D01*
X238232380Y-22830521D02*
X238270476Y-22678140D01*
X238270476Y-22678140D02*
X238346666Y-22601950D01*
X238346666Y-22601950D02*
X238422857Y-22563855D01*
X242531429Y-23363855D02*
X242531429Y-22563855D01*
X242531429Y-22563855D02*
X242988572Y-23363855D01*
X242988572Y-23363855D02*
X242988572Y-22563855D01*
X243826667Y-23287664D02*
X243788571Y-23325760D01*
X243788571Y-23325760D02*
X243674286Y-23363855D01*
X243674286Y-23363855D02*
X243598095Y-23363855D01*
X243598095Y-23363855D02*
X243483809Y-23325760D01*
X243483809Y-23325760D02*
X243407619Y-23249569D01*
X243407619Y-23249569D02*
X243369524Y-23173379D01*
X243369524Y-23173379D02*
X243331428Y-23020998D01*
X243331428Y-23020998D02*
X243331428Y-22906712D01*
X243331428Y-22906712D02*
X243369524Y-22754331D01*
X243369524Y-22754331D02*
X243407619Y-22678140D01*
X243407619Y-22678140D02*
X243483809Y-22601950D01*
X243483809Y-22601950D02*
X243598095Y-22563855D01*
X243598095Y-22563855D02*
X243674286Y-22563855D01*
X243674286Y-22563855D02*
X243788571Y-22601950D01*
X243788571Y-22601950D02*
X243826667Y-22640045D01*
X63419047Y-190325760D02*
X63533333Y-190363855D01*
X63533333Y-190363855D02*
X63723809Y-190363855D01*
X63723809Y-190363855D02*
X63800000Y-190325760D01*
X63800000Y-190325760D02*
X63838095Y-190287664D01*
X63838095Y-190287664D02*
X63876190Y-190211474D01*
X63876190Y-190211474D02*
X63876190Y-190135283D01*
X63876190Y-190135283D02*
X63838095Y-190059093D01*
X63838095Y-190059093D02*
X63800000Y-190020998D01*
X63800000Y-190020998D02*
X63723809Y-189982902D01*
X63723809Y-189982902D02*
X63571428Y-189944807D01*
X63571428Y-189944807D02*
X63495238Y-189906712D01*
X63495238Y-189906712D02*
X63457143Y-189868617D01*
X63457143Y-189868617D02*
X63419047Y-189792426D01*
X63419047Y-189792426D02*
X63419047Y-189716236D01*
X63419047Y-189716236D02*
X63457143Y-189640045D01*
X63457143Y-189640045D02*
X63495238Y-189601950D01*
X63495238Y-189601950D02*
X63571428Y-189563855D01*
X63571428Y-189563855D02*
X63761905Y-189563855D01*
X63761905Y-189563855D02*
X63876190Y-189601950D01*
X64104762Y-189563855D02*
X64561905Y-189563855D01*
X64333333Y-190363855D02*
X64333333Y-189563855D01*
X64790476Y-190135283D02*
X65171429Y-190135283D01*
X64714286Y-190363855D02*
X64980953Y-189563855D01*
X64980953Y-189563855D02*
X65247619Y-190363855D01*
X65971429Y-190363855D02*
X65704762Y-189982902D01*
X65514286Y-190363855D02*
X65514286Y-189563855D01*
X65514286Y-189563855D02*
X65819048Y-189563855D01*
X65819048Y-189563855D02*
X65895238Y-189601950D01*
X65895238Y-189601950D02*
X65933333Y-189640045D01*
X65933333Y-189640045D02*
X65971429Y-189716236D01*
X65971429Y-189716236D02*
X65971429Y-189830521D01*
X65971429Y-189830521D02*
X65933333Y-189906712D01*
X65933333Y-189906712D02*
X65895238Y-189944807D01*
X65895238Y-189944807D02*
X65819048Y-189982902D01*
X65819048Y-189982902D02*
X65514286Y-189982902D01*
X66200000Y-189563855D02*
X66657143Y-189563855D01*
X66428571Y-190363855D02*
X66428571Y-189563855D01*
X69470476Y-189601950D02*
X69394286Y-189563855D01*
X69394286Y-189563855D02*
X69280000Y-189563855D01*
X69280000Y-189563855D02*
X69165714Y-189601950D01*
X69165714Y-189601950D02*
X69089524Y-189678140D01*
X69089524Y-189678140D02*
X69051429Y-189754331D01*
X69051429Y-189754331D02*
X69013333Y-189906712D01*
X69013333Y-189906712D02*
X69013333Y-190020998D01*
X69013333Y-190020998D02*
X69051429Y-190173379D01*
X69051429Y-190173379D02*
X69089524Y-190249569D01*
X69089524Y-190249569D02*
X69165714Y-190325760D01*
X69165714Y-190325760D02*
X69280000Y-190363855D01*
X69280000Y-190363855D02*
X69356191Y-190363855D01*
X69356191Y-190363855D02*
X69470476Y-190325760D01*
X69470476Y-190325760D02*
X69508572Y-190287664D01*
X69508572Y-190287664D02*
X69508572Y-190020998D01*
X69508572Y-190020998D02*
X69356191Y-190020998D01*
X69851429Y-190363855D02*
X69851429Y-189563855D01*
X69851429Y-189563855D02*
X70308572Y-190363855D01*
X70308572Y-190363855D02*
X70308572Y-189563855D01*
X70689524Y-190363855D02*
X70689524Y-189563855D01*
X70689524Y-189563855D02*
X70880000Y-189563855D01*
X70880000Y-189563855D02*
X70994286Y-189601950D01*
X70994286Y-189601950D02*
X71070476Y-189678140D01*
X71070476Y-189678140D02*
X71108571Y-189754331D01*
X71108571Y-189754331D02*
X71146667Y-189906712D01*
X71146667Y-189906712D02*
X71146667Y-190020998D01*
X71146667Y-190020998D02*
X71108571Y-190173379D01*
X71108571Y-190173379D02*
X71070476Y-190249569D01*
X71070476Y-190249569D02*
X70994286Y-190325760D01*
X70994286Y-190325760D02*
X70880000Y-190363855D01*
X70880000Y-190363855D02*
X70689524Y-190363855D01*
X307371429Y-118203855D02*
X307371429Y-117403855D01*
X307371429Y-117403855D02*
X307828572Y-118203855D01*
X307828572Y-118203855D02*
X307828572Y-117403855D01*
X308666667Y-118127664D02*
X308628571Y-118165760D01*
X308628571Y-118165760D02*
X308514286Y-118203855D01*
X308514286Y-118203855D02*
X308438095Y-118203855D01*
X308438095Y-118203855D02*
X308323809Y-118165760D01*
X308323809Y-118165760D02*
X308247619Y-118089569D01*
X308247619Y-118089569D02*
X308209524Y-118013379D01*
X308209524Y-118013379D02*
X308171428Y-117860998D01*
X308171428Y-117860998D02*
X308171428Y-117746712D01*
X308171428Y-117746712D02*
X308209524Y-117594331D01*
X308209524Y-117594331D02*
X308247619Y-117518140D01*
X308247619Y-117518140D02*
X308323809Y-117441950D01*
X308323809Y-117441950D02*
X308438095Y-117403855D01*
X308438095Y-117403855D02*
X308514286Y-117403855D01*
X308514286Y-117403855D02*
X308628571Y-117441950D01*
X308628571Y-117441950D02*
X308666667Y-117480045D01*
X307352381Y-123283855D02*
X307352381Y-122483855D01*
X307352381Y-122483855D02*
X307809524Y-123283855D01*
X307809524Y-123283855D02*
X307809524Y-122483855D01*
X308342857Y-122483855D02*
X308495238Y-122483855D01*
X308495238Y-122483855D02*
X308571428Y-122521950D01*
X308571428Y-122521950D02*
X308647619Y-122598140D01*
X308647619Y-122598140D02*
X308685714Y-122750521D01*
X308685714Y-122750521D02*
X308685714Y-123017188D01*
X308685714Y-123017188D02*
X308647619Y-123169569D01*
X308647619Y-123169569D02*
X308571428Y-123245760D01*
X308571428Y-123245760D02*
X308495238Y-123283855D01*
X308495238Y-123283855D02*
X308342857Y-123283855D01*
X308342857Y-123283855D02*
X308266666Y-123245760D01*
X308266666Y-123245760D02*
X308190476Y-123169569D01*
X308190476Y-123169569D02*
X308152380Y-123017188D01*
X308152380Y-123017188D02*
X308152380Y-122750521D01*
X308152380Y-122750521D02*
X308190476Y-122598140D01*
X308190476Y-122598140D02*
X308266666Y-122521950D01*
X308266666Y-122521950D02*
X308342857Y-122483855D01*
X307371429Y-128287664D02*
X307333333Y-128325760D01*
X307333333Y-128325760D02*
X307219048Y-128363855D01*
X307219048Y-128363855D02*
X307142857Y-128363855D01*
X307142857Y-128363855D02*
X307028571Y-128325760D01*
X307028571Y-128325760D02*
X306952381Y-128249569D01*
X306952381Y-128249569D02*
X306914286Y-128173379D01*
X306914286Y-128173379D02*
X306876190Y-128020998D01*
X306876190Y-128020998D02*
X306876190Y-127906712D01*
X306876190Y-127906712D02*
X306914286Y-127754331D01*
X306914286Y-127754331D02*
X306952381Y-127678140D01*
X306952381Y-127678140D02*
X307028571Y-127601950D01*
X307028571Y-127601950D02*
X307142857Y-127563855D01*
X307142857Y-127563855D02*
X307219048Y-127563855D01*
X307219048Y-127563855D02*
X307333333Y-127601950D01*
X307333333Y-127601950D02*
X307371429Y-127640045D01*
X307866667Y-127563855D02*
X308019048Y-127563855D01*
X308019048Y-127563855D02*
X308095238Y-127601950D01*
X308095238Y-127601950D02*
X308171429Y-127678140D01*
X308171429Y-127678140D02*
X308209524Y-127830521D01*
X308209524Y-127830521D02*
X308209524Y-128097188D01*
X308209524Y-128097188D02*
X308171429Y-128249569D01*
X308171429Y-128249569D02*
X308095238Y-128325760D01*
X308095238Y-128325760D02*
X308019048Y-128363855D01*
X308019048Y-128363855D02*
X307866667Y-128363855D01*
X307866667Y-128363855D02*
X307790476Y-128325760D01*
X307790476Y-128325760D02*
X307714286Y-128249569D01*
X307714286Y-128249569D02*
X307676190Y-128097188D01*
X307676190Y-128097188D02*
X307676190Y-127830521D01*
X307676190Y-127830521D02*
X307714286Y-127678140D01*
X307714286Y-127678140D02*
X307790476Y-127601950D01*
X307790476Y-127601950D02*
X307866667Y-127563855D01*
X308552381Y-128363855D02*
X308552381Y-127563855D01*
X308552381Y-127563855D02*
X308819047Y-128135283D01*
X308819047Y-128135283D02*
X309085714Y-127563855D01*
X309085714Y-127563855D02*
X309085714Y-128363855D01*
D13*
X315357142Y-128454819D02*
X315023809Y-127978628D01*
X314785714Y-128454819D02*
X314785714Y-127454819D01*
X314785714Y-127454819D02*
X315166666Y-127454819D01*
X315166666Y-127454819D02*
X315261904Y-127502438D01*
X315261904Y-127502438D02*
X315309523Y-127550057D01*
X315309523Y-127550057D02*
X315357142Y-127645295D01*
X315357142Y-127645295D02*
X315357142Y-127788152D01*
X315357142Y-127788152D02*
X315309523Y-127883390D01*
X315309523Y-127883390D02*
X315261904Y-127931009D01*
X315261904Y-127931009D02*
X315166666Y-127978628D01*
X315166666Y-127978628D02*
X314785714Y-127978628D01*
X316309523Y-128454819D02*
X315738095Y-128454819D01*
X316023809Y-128454819D02*
X316023809Y-127454819D01*
X316023809Y-127454819D02*
X315928571Y-127597676D01*
X315928571Y-127597676D02*
X315833333Y-127692914D01*
X315833333Y-127692914D02*
X315738095Y-127740533D01*
X317166666Y-127788152D02*
X317166666Y-128454819D01*
X316928571Y-127407200D02*
X316690476Y-128121485D01*
X316690476Y-128121485D02*
X317309523Y-128121485D01*
D11*
X198371429Y-23287664D02*
X198333333Y-23325760D01*
X198333333Y-23325760D02*
X198219048Y-23363855D01*
X198219048Y-23363855D02*
X198142857Y-23363855D01*
X198142857Y-23363855D02*
X198028571Y-23325760D01*
X198028571Y-23325760D02*
X197952381Y-23249569D01*
X197952381Y-23249569D02*
X197914286Y-23173379D01*
X197914286Y-23173379D02*
X197876190Y-23020998D01*
X197876190Y-23020998D02*
X197876190Y-22906712D01*
X197876190Y-22906712D02*
X197914286Y-22754331D01*
X197914286Y-22754331D02*
X197952381Y-22678140D01*
X197952381Y-22678140D02*
X198028571Y-22601950D01*
X198028571Y-22601950D02*
X198142857Y-22563855D01*
X198142857Y-22563855D02*
X198219048Y-22563855D01*
X198219048Y-22563855D02*
X198333333Y-22601950D01*
X198333333Y-22601950D02*
X198371429Y-22640045D01*
X198866667Y-22563855D02*
X199019048Y-22563855D01*
X199019048Y-22563855D02*
X199095238Y-22601950D01*
X199095238Y-22601950D02*
X199171429Y-22678140D01*
X199171429Y-22678140D02*
X199209524Y-22830521D01*
X199209524Y-22830521D02*
X199209524Y-23097188D01*
X199209524Y-23097188D02*
X199171429Y-23249569D01*
X199171429Y-23249569D02*
X199095238Y-23325760D01*
X199095238Y-23325760D02*
X199019048Y-23363855D01*
X199019048Y-23363855D02*
X198866667Y-23363855D01*
X198866667Y-23363855D02*
X198790476Y-23325760D01*
X198790476Y-23325760D02*
X198714286Y-23249569D01*
X198714286Y-23249569D02*
X198676190Y-23097188D01*
X198676190Y-23097188D02*
X198676190Y-22830521D01*
X198676190Y-22830521D02*
X198714286Y-22678140D01*
X198714286Y-22678140D02*
X198790476Y-22601950D01*
X198790476Y-22601950D02*
X198866667Y-22563855D01*
X199552381Y-23363855D02*
X199552381Y-22563855D01*
X199552381Y-22563855D02*
X199819047Y-23135283D01*
X199819047Y-23135283D02*
X200085714Y-22563855D01*
X200085714Y-22563855D02*
X200085714Y-23363855D01*
D13*
X198833333Y-31454819D02*
X198500000Y-30978628D01*
X198261905Y-31454819D02*
X198261905Y-30454819D01*
X198261905Y-30454819D02*
X198642857Y-30454819D01*
X198642857Y-30454819D02*
X198738095Y-30502438D01*
X198738095Y-30502438D02*
X198785714Y-30550057D01*
X198785714Y-30550057D02*
X198833333Y-30645295D01*
X198833333Y-30645295D02*
X198833333Y-30788152D01*
X198833333Y-30788152D02*
X198785714Y-30883390D01*
X198785714Y-30883390D02*
X198738095Y-30931009D01*
X198738095Y-30931009D02*
X198642857Y-30978628D01*
X198642857Y-30978628D02*
X198261905Y-30978628D01*
X199166667Y-30454819D02*
X199785714Y-30454819D01*
X199785714Y-30454819D02*
X199452381Y-30835771D01*
X199452381Y-30835771D02*
X199595238Y-30835771D01*
X199595238Y-30835771D02*
X199690476Y-30883390D01*
X199690476Y-30883390D02*
X199738095Y-30931009D01*
X199738095Y-30931009D02*
X199785714Y-31026247D01*
X199785714Y-31026247D02*
X199785714Y-31264342D01*
X199785714Y-31264342D02*
X199738095Y-31359580D01*
X199738095Y-31359580D02*
X199690476Y-31407200D01*
X199690476Y-31407200D02*
X199595238Y-31454819D01*
X199595238Y-31454819D02*
X199309524Y-31454819D01*
X199309524Y-31454819D02*
X199214286Y-31407200D01*
X199214286Y-31407200D02*
X199166667Y-31359580D01*
D11*
X203432381Y-23363855D02*
X203432381Y-22563855D01*
X203432381Y-22563855D02*
X203889524Y-23363855D01*
X203889524Y-23363855D02*
X203889524Y-22563855D01*
X204422857Y-22563855D02*
X204575238Y-22563855D01*
X204575238Y-22563855D02*
X204651428Y-22601950D01*
X204651428Y-22601950D02*
X204727619Y-22678140D01*
X204727619Y-22678140D02*
X204765714Y-22830521D01*
X204765714Y-22830521D02*
X204765714Y-23097188D01*
X204765714Y-23097188D02*
X204727619Y-23249569D01*
X204727619Y-23249569D02*
X204651428Y-23325760D01*
X204651428Y-23325760D02*
X204575238Y-23363855D01*
X204575238Y-23363855D02*
X204422857Y-23363855D01*
X204422857Y-23363855D02*
X204346666Y-23325760D01*
X204346666Y-23325760D02*
X204270476Y-23249569D01*
X204270476Y-23249569D02*
X204232380Y-23097188D01*
X204232380Y-23097188D02*
X204232380Y-22830521D01*
X204232380Y-22830521D02*
X204270476Y-22678140D01*
X204270476Y-22678140D02*
X204346666Y-22601950D01*
X204346666Y-22601950D02*
X204422857Y-22563855D01*
X208531429Y-23363855D02*
X208531429Y-22563855D01*
X208531429Y-22563855D02*
X208988572Y-23363855D01*
X208988572Y-23363855D02*
X208988572Y-22563855D01*
X209826667Y-23287664D02*
X209788571Y-23325760D01*
X209788571Y-23325760D02*
X209674286Y-23363855D01*
X209674286Y-23363855D02*
X209598095Y-23363855D01*
X209598095Y-23363855D02*
X209483809Y-23325760D01*
X209483809Y-23325760D02*
X209407619Y-23249569D01*
X209407619Y-23249569D02*
X209369524Y-23173379D01*
X209369524Y-23173379D02*
X209331428Y-23020998D01*
X209331428Y-23020998D02*
X209331428Y-22906712D01*
X209331428Y-22906712D02*
X209369524Y-22754331D01*
X209369524Y-22754331D02*
X209407619Y-22678140D01*
X209407619Y-22678140D02*
X209483809Y-22601950D01*
X209483809Y-22601950D02*
X209598095Y-22563855D01*
X209598095Y-22563855D02*
X209674286Y-22563855D01*
X209674286Y-22563855D02*
X209788571Y-22601950D01*
X209788571Y-22601950D02*
X209826667Y-22640045D01*
X215371429Y-23287664D02*
X215333333Y-23325760D01*
X215333333Y-23325760D02*
X215219048Y-23363855D01*
X215219048Y-23363855D02*
X215142857Y-23363855D01*
X215142857Y-23363855D02*
X215028571Y-23325760D01*
X215028571Y-23325760D02*
X214952381Y-23249569D01*
X214952381Y-23249569D02*
X214914286Y-23173379D01*
X214914286Y-23173379D02*
X214876190Y-23020998D01*
X214876190Y-23020998D02*
X214876190Y-22906712D01*
X214876190Y-22906712D02*
X214914286Y-22754331D01*
X214914286Y-22754331D02*
X214952381Y-22678140D01*
X214952381Y-22678140D02*
X215028571Y-22601950D01*
X215028571Y-22601950D02*
X215142857Y-22563855D01*
X215142857Y-22563855D02*
X215219048Y-22563855D01*
X215219048Y-22563855D02*
X215333333Y-22601950D01*
X215333333Y-22601950D02*
X215371429Y-22640045D01*
X215866667Y-22563855D02*
X216019048Y-22563855D01*
X216019048Y-22563855D02*
X216095238Y-22601950D01*
X216095238Y-22601950D02*
X216171429Y-22678140D01*
X216171429Y-22678140D02*
X216209524Y-22830521D01*
X216209524Y-22830521D02*
X216209524Y-23097188D01*
X216209524Y-23097188D02*
X216171429Y-23249569D01*
X216171429Y-23249569D02*
X216095238Y-23325760D01*
X216095238Y-23325760D02*
X216019048Y-23363855D01*
X216019048Y-23363855D02*
X215866667Y-23363855D01*
X215866667Y-23363855D02*
X215790476Y-23325760D01*
X215790476Y-23325760D02*
X215714286Y-23249569D01*
X215714286Y-23249569D02*
X215676190Y-23097188D01*
X215676190Y-23097188D02*
X215676190Y-22830521D01*
X215676190Y-22830521D02*
X215714286Y-22678140D01*
X215714286Y-22678140D02*
X215790476Y-22601950D01*
X215790476Y-22601950D02*
X215866667Y-22563855D01*
X216552381Y-23363855D02*
X216552381Y-22563855D01*
X216552381Y-22563855D02*
X216819047Y-23135283D01*
X216819047Y-23135283D02*
X217085714Y-22563855D01*
X217085714Y-22563855D02*
X217085714Y-23363855D01*
D13*
X215833333Y-31454819D02*
X215500000Y-30978628D01*
X215261905Y-31454819D02*
X215261905Y-30454819D01*
X215261905Y-30454819D02*
X215642857Y-30454819D01*
X215642857Y-30454819D02*
X215738095Y-30502438D01*
X215738095Y-30502438D02*
X215785714Y-30550057D01*
X215785714Y-30550057D02*
X215833333Y-30645295D01*
X215833333Y-30645295D02*
X215833333Y-30788152D01*
X215833333Y-30788152D02*
X215785714Y-30883390D01*
X215785714Y-30883390D02*
X215738095Y-30931009D01*
X215738095Y-30931009D02*
X215642857Y-30978628D01*
X215642857Y-30978628D02*
X215261905Y-30978628D01*
X216690476Y-30788152D02*
X216690476Y-31454819D01*
X216452381Y-30407200D02*
X216214286Y-31121485D01*
X216214286Y-31121485D02*
X216833333Y-31121485D01*
D11*
X220432381Y-23363855D02*
X220432381Y-22563855D01*
X220432381Y-22563855D02*
X220889524Y-23363855D01*
X220889524Y-23363855D02*
X220889524Y-22563855D01*
X221422857Y-22563855D02*
X221575238Y-22563855D01*
X221575238Y-22563855D02*
X221651428Y-22601950D01*
X221651428Y-22601950D02*
X221727619Y-22678140D01*
X221727619Y-22678140D02*
X221765714Y-22830521D01*
X221765714Y-22830521D02*
X221765714Y-23097188D01*
X221765714Y-23097188D02*
X221727619Y-23249569D01*
X221727619Y-23249569D02*
X221651428Y-23325760D01*
X221651428Y-23325760D02*
X221575238Y-23363855D01*
X221575238Y-23363855D02*
X221422857Y-23363855D01*
X221422857Y-23363855D02*
X221346666Y-23325760D01*
X221346666Y-23325760D02*
X221270476Y-23249569D01*
X221270476Y-23249569D02*
X221232380Y-23097188D01*
X221232380Y-23097188D02*
X221232380Y-22830521D01*
X221232380Y-22830521D02*
X221270476Y-22678140D01*
X221270476Y-22678140D02*
X221346666Y-22601950D01*
X221346666Y-22601950D02*
X221422857Y-22563855D01*
X225531429Y-23363855D02*
X225531429Y-22563855D01*
X225531429Y-22563855D02*
X225988572Y-23363855D01*
X225988572Y-23363855D02*
X225988572Y-22563855D01*
X226826667Y-23287664D02*
X226788571Y-23325760D01*
X226788571Y-23325760D02*
X226674286Y-23363855D01*
X226674286Y-23363855D02*
X226598095Y-23363855D01*
X226598095Y-23363855D02*
X226483809Y-23325760D01*
X226483809Y-23325760D02*
X226407619Y-23249569D01*
X226407619Y-23249569D02*
X226369524Y-23173379D01*
X226369524Y-23173379D02*
X226331428Y-23020998D01*
X226331428Y-23020998D02*
X226331428Y-22906712D01*
X226331428Y-22906712D02*
X226369524Y-22754331D01*
X226369524Y-22754331D02*
X226407619Y-22678140D01*
X226407619Y-22678140D02*
X226483809Y-22601950D01*
X226483809Y-22601950D02*
X226598095Y-22563855D01*
X226598095Y-22563855D02*
X226674286Y-22563855D01*
X226674286Y-22563855D02*
X226788571Y-22601950D01*
X226788571Y-22601950D02*
X226826667Y-22640045D01*
X131504761Y-190363855D02*
X131047618Y-190363855D01*
X131276190Y-190363855D02*
X131276190Y-189563855D01*
X131276190Y-189563855D02*
X131199999Y-189678140D01*
X131199999Y-189678140D02*
X131123809Y-189754331D01*
X131123809Y-189754331D02*
X131047618Y-189792426D01*
X131809523Y-189640045D02*
X131847619Y-189601950D01*
X131847619Y-189601950D02*
X131923809Y-189563855D01*
X131923809Y-189563855D02*
X132114285Y-189563855D01*
X132114285Y-189563855D02*
X132190476Y-189601950D01*
X132190476Y-189601950D02*
X132228571Y-189640045D01*
X132228571Y-189640045D02*
X132266666Y-189716236D01*
X132266666Y-189716236D02*
X132266666Y-189792426D01*
X132266666Y-189792426D02*
X132228571Y-189906712D01*
X132228571Y-189906712D02*
X131771428Y-190363855D01*
X131771428Y-190363855D02*
X132266666Y-190363855D01*
X132495238Y-189563855D02*
X132761905Y-190363855D01*
X132761905Y-190363855D02*
X133028571Y-189563855D01*
D13*
X128261905Y-197454819D02*
X128833333Y-197454819D01*
X128547619Y-198454819D02*
X128547619Y-197454819D01*
X129738095Y-198454819D02*
X129404762Y-197978628D01*
X129166667Y-198454819D02*
X129166667Y-197454819D01*
X129166667Y-197454819D02*
X129547619Y-197454819D01*
X129547619Y-197454819D02*
X129642857Y-197502438D01*
X129642857Y-197502438D02*
X129690476Y-197550057D01*
X129690476Y-197550057D02*
X129738095Y-197645295D01*
X129738095Y-197645295D02*
X129738095Y-197788152D01*
X129738095Y-197788152D02*
X129690476Y-197883390D01*
X129690476Y-197883390D02*
X129642857Y-197931009D01*
X129642857Y-197931009D02*
X129547619Y-197978628D01*
X129547619Y-197978628D02*
X129166667Y-197978628D01*
X130119048Y-198169104D02*
X130595238Y-198169104D01*
X130023810Y-198454819D02*
X130357143Y-197454819D01*
X130357143Y-197454819D02*
X130690476Y-198454819D01*
X131023810Y-198454819D02*
X131023810Y-197454819D01*
X131023810Y-197454819D02*
X131357143Y-198169104D01*
X131357143Y-198169104D02*
X131690476Y-197454819D01*
X131690476Y-197454819D02*
X131690476Y-198454819D01*
X132357143Y-197454819D02*
X132547619Y-197454819D01*
X132547619Y-197454819D02*
X132642857Y-197502438D01*
X132642857Y-197502438D02*
X132738095Y-197597676D01*
X132738095Y-197597676D02*
X132785714Y-197788152D01*
X132785714Y-197788152D02*
X132785714Y-198121485D01*
X132785714Y-198121485D02*
X132738095Y-198311961D01*
X132738095Y-198311961D02*
X132642857Y-198407200D01*
X132642857Y-198407200D02*
X132547619Y-198454819D01*
X132547619Y-198454819D02*
X132357143Y-198454819D01*
X132357143Y-198454819D02*
X132261905Y-198407200D01*
X132261905Y-198407200D02*
X132166667Y-198311961D01*
X132166667Y-198311961D02*
X132119048Y-198121485D01*
X132119048Y-198121485D02*
X132119048Y-197788152D01*
X132119048Y-197788152D02*
X132166667Y-197597676D01*
X132166667Y-197597676D02*
X132261905Y-197502438D01*
X132261905Y-197502438D02*
X132357143Y-197454819D01*
X133214286Y-198454819D02*
X133214286Y-197454819D01*
X133214286Y-197454819D02*
X133785714Y-198454819D01*
X133785714Y-198454819D02*
X133785714Y-197454819D01*
X134119048Y-197454819D02*
X134690476Y-197454819D01*
X134404762Y-198454819D02*
X134404762Y-197454819D01*
X135214286Y-197454819D02*
X135404762Y-197454819D01*
X135404762Y-197454819D02*
X135500000Y-197502438D01*
X135500000Y-197502438D02*
X135595238Y-197597676D01*
X135595238Y-197597676D02*
X135642857Y-197788152D01*
X135642857Y-197788152D02*
X135642857Y-198121485D01*
X135642857Y-198121485D02*
X135595238Y-198311961D01*
X135595238Y-198311961D02*
X135500000Y-198407200D01*
X135500000Y-198407200D02*
X135404762Y-198454819D01*
X135404762Y-198454819D02*
X135214286Y-198454819D01*
X135214286Y-198454819D02*
X135119048Y-198407200D01*
X135119048Y-198407200D02*
X135023810Y-198311961D01*
X135023810Y-198311961D02*
X134976191Y-198121485D01*
X134976191Y-198121485D02*
X134976191Y-197788152D01*
X134976191Y-197788152D02*
X135023810Y-197597676D01*
X135023810Y-197597676D02*
X135119048Y-197502438D01*
X135119048Y-197502438D02*
X135214286Y-197454819D01*
D11*
X137327619Y-190363855D02*
X137060952Y-189982902D01*
X136870476Y-190363855D02*
X136870476Y-189563855D01*
X136870476Y-189563855D02*
X137175238Y-189563855D01*
X137175238Y-189563855D02*
X137251428Y-189601950D01*
X137251428Y-189601950D02*
X137289523Y-189640045D01*
X137289523Y-189640045D02*
X137327619Y-189716236D01*
X137327619Y-189716236D02*
X137327619Y-189830521D01*
X137327619Y-189830521D02*
X137289523Y-189906712D01*
X137289523Y-189906712D02*
X137251428Y-189944807D01*
X137251428Y-189944807D02*
X137175238Y-189982902D01*
X137175238Y-189982902D02*
X136870476Y-189982902D01*
X142369523Y-189601950D02*
X142293333Y-189563855D01*
X142293333Y-189563855D02*
X142179047Y-189563855D01*
X142179047Y-189563855D02*
X142064761Y-189601950D01*
X142064761Y-189601950D02*
X141988571Y-189678140D01*
X141988571Y-189678140D02*
X141950476Y-189754331D01*
X141950476Y-189754331D02*
X141912380Y-189906712D01*
X141912380Y-189906712D02*
X141912380Y-190020998D01*
X141912380Y-190020998D02*
X141950476Y-190173379D01*
X141950476Y-190173379D02*
X141988571Y-190249569D01*
X141988571Y-190249569D02*
X142064761Y-190325760D01*
X142064761Y-190325760D02*
X142179047Y-190363855D01*
X142179047Y-190363855D02*
X142255238Y-190363855D01*
X142255238Y-190363855D02*
X142369523Y-190325760D01*
X142369523Y-190325760D02*
X142407619Y-190287664D01*
X142407619Y-190287664D02*
X142407619Y-190020998D01*
X142407619Y-190020998D02*
X142255238Y-190020998D01*
X147297142Y-189944807D02*
X147411428Y-189982902D01*
X147411428Y-189982902D02*
X147449523Y-190020998D01*
X147449523Y-190020998D02*
X147487619Y-190097188D01*
X147487619Y-190097188D02*
X147487619Y-190211474D01*
X147487619Y-190211474D02*
X147449523Y-190287664D01*
X147449523Y-190287664D02*
X147411428Y-190325760D01*
X147411428Y-190325760D02*
X147335238Y-190363855D01*
X147335238Y-190363855D02*
X147030476Y-190363855D01*
X147030476Y-190363855D02*
X147030476Y-189563855D01*
X147030476Y-189563855D02*
X147297142Y-189563855D01*
X147297142Y-189563855D02*
X147373333Y-189601950D01*
X147373333Y-189601950D02*
X147411428Y-189640045D01*
X147411428Y-189640045D02*
X147449523Y-189716236D01*
X147449523Y-189716236D02*
X147449523Y-189792426D01*
X147449523Y-189792426D02*
X147411428Y-189868617D01*
X147411428Y-189868617D02*
X147373333Y-189906712D01*
X147373333Y-189906712D02*
X147297142Y-189944807D01*
X147297142Y-189944807D02*
X147030476Y-189944807D01*
X164371429Y-23287664D02*
X164333333Y-23325760D01*
X164333333Y-23325760D02*
X164219048Y-23363855D01*
X164219048Y-23363855D02*
X164142857Y-23363855D01*
X164142857Y-23363855D02*
X164028571Y-23325760D01*
X164028571Y-23325760D02*
X163952381Y-23249569D01*
X163952381Y-23249569D02*
X163914286Y-23173379D01*
X163914286Y-23173379D02*
X163876190Y-23020998D01*
X163876190Y-23020998D02*
X163876190Y-22906712D01*
X163876190Y-22906712D02*
X163914286Y-22754331D01*
X163914286Y-22754331D02*
X163952381Y-22678140D01*
X163952381Y-22678140D02*
X164028571Y-22601950D01*
X164028571Y-22601950D02*
X164142857Y-22563855D01*
X164142857Y-22563855D02*
X164219048Y-22563855D01*
X164219048Y-22563855D02*
X164333333Y-22601950D01*
X164333333Y-22601950D02*
X164371429Y-22640045D01*
X164866667Y-22563855D02*
X165019048Y-22563855D01*
X165019048Y-22563855D02*
X165095238Y-22601950D01*
X165095238Y-22601950D02*
X165171429Y-22678140D01*
X165171429Y-22678140D02*
X165209524Y-22830521D01*
X165209524Y-22830521D02*
X165209524Y-23097188D01*
X165209524Y-23097188D02*
X165171429Y-23249569D01*
X165171429Y-23249569D02*
X165095238Y-23325760D01*
X165095238Y-23325760D02*
X165019048Y-23363855D01*
X165019048Y-23363855D02*
X164866667Y-23363855D01*
X164866667Y-23363855D02*
X164790476Y-23325760D01*
X164790476Y-23325760D02*
X164714286Y-23249569D01*
X164714286Y-23249569D02*
X164676190Y-23097188D01*
X164676190Y-23097188D02*
X164676190Y-22830521D01*
X164676190Y-22830521D02*
X164714286Y-22678140D01*
X164714286Y-22678140D02*
X164790476Y-22601950D01*
X164790476Y-22601950D02*
X164866667Y-22563855D01*
X165552381Y-23363855D02*
X165552381Y-22563855D01*
X165552381Y-22563855D02*
X165819047Y-23135283D01*
X165819047Y-23135283D02*
X166085714Y-22563855D01*
X166085714Y-22563855D02*
X166085714Y-23363855D01*
D13*
X164833333Y-31454819D02*
X164500000Y-30978628D01*
X164261905Y-31454819D02*
X164261905Y-30454819D01*
X164261905Y-30454819D02*
X164642857Y-30454819D01*
X164642857Y-30454819D02*
X164738095Y-30502438D01*
X164738095Y-30502438D02*
X164785714Y-30550057D01*
X164785714Y-30550057D02*
X164833333Y-30645295D01*
X164833333Y-30645295D02*
X164833333Y-30788152D01*
X164833333Y-30788152D02*
X164785714Y-30883390D01*
X164785714Y-30883390D02*
X164738095Y-30931009D01*
X164738095Y-30931009D02*
X164642857Y-30978628D01*
X164642857Y-30978628D02*
X164261905Y-30978628D01*
X165785714Y-31454819D02*
X165214286Y-31454819D01*
X165500000Y-31454819D02*
X165500000Y-30454819D01*
X165500000Y-30454819D02*
X165404762Y-30597676D01*
X165404762Y-30597676D02*
X165309524Y-30692914D01*
X165309524Y-30692914D02*
X165214286Y-30740533D01*
D11*
X169432381Y-23363855D02*
X169432381Y-22563855D01*
X169432381Y-22563855D02*
X169889524Y-23363855D01*
X169889524Y-23363855D02*
X169889524Y-22563855D01*
X170422857Y-22563855D02*
X170575238Y-22563855D01*
X170575238Y-22563855D02*
X170651428Y-22601950D01*
X170651428Y-22601950D02*
X170727619Y-22678140D01*
X170727619Y-22678140D02*
X170765714Y-22830521D01*
X170765714Y-22830521D02*
X170765714Y-23097188D01*
X170765714Y-23097188D02*
X170727619Y-23249569D01*
X170727619Y-23249569D02*
X170651428Y-23325760D01*
X170651428Y-23325760D02*
X170575238Y-23363855D01*
X170575238Y-23363855D02*
X170422857Y-23363855D01*
X170422857Y-23363855D02*
X170346666Y-23325760D01*
X170346666Y-23325760D02*
X170270476Y-23249569D01*
X170270476Y-23249569D02*
X170232380Y-23097188D01*
X170232380Y-23097188D02*
X170232380Y-22830521D01*
X170232380Y-22830521D02*
X170270476Y-22678140D01*
X170270476Y-22678140D02*
X170346666Y-22601950D01*
X170346666Y-22601950D02*
X170422857Y-22563855D01*
X174531429Y-23363855D02*
X174531429Y-22563855D01*
X174531429Y-22563855D02*
X174988572Y-23363855D01*
X174988572Y-23363855D02*
X174988572Y-22563855D01*
X175826667Y-23287664D02*
X175788571Y-23325760D01*
X175788571Y-23325760D02*
X175674286Y-23363855D01*
X175674286Y-23363855D02*
X175598095Y-23363855D01*
X175598095Y-23363855D02*
X175483809Y-23325760D01*
X175483809Y-23325760D02*
X175407619Y-23249569D01*
X175407619Y-23249569D02*
X175369524Y-23173379D01*
X175369524Y-23173379D02*
X175331428Y-23020998D01*
X175331428Y-23020998D02*
X175331428Y-22906712D01*
X175331428Y-22906712D02*
X175369524Y-22754331D01*
X175369524Y-22754331D02*
X175407619Y-22678140D01*
X175407619Y-22678140D02*
X175483809Y-22601950D01*
X175483809Y-22601950D02*
X175598095Y-22563855D01*
X175598095Y-22563855D02*
X175674286Y-22563855D01*
X175674286Y-22563855D02*
X175788571Y-22601950D01*
X175788571Y-22601950D02*
X175826667Y-22640045D01*
D13*
X90484000Y-60355580D02*
X90531619Y-60403200D01*
X90531619Y-60403200D02*
X90484000Y-60450819D01*
X90484000Y-60450819D02*
X90436381Y-60403200D01*
X90436381Y-60403200D02*
X90484000Y-60355580D01*
X90484000Y-60355580D02*
X90484000Y-60450819D01*
X90761905Y-43559819D02*
X90761905Y-42559819D01*
X90761905Y-42559819D02*
X91000000Y-42559819D01*
X91000000Y-42559819D02*
X91142857Y-42607438D01*
X91142857Y-42607438D02*
X91238095Y-42702676D01*
X91238095Y-42702676D02*
X91285714Y-42797914D01*
X91285714Y-42797914D02*
X91333333Y-42988390D01*
X91333333Y-42988390D02*
X91333333Y-43131247D01*
X91333333Y-43131247D02*
X91285714Y-43321723D01*
X91285714Y-43321723D02*
X91238095Y-43416961D01*
X91238095Y-43416961D02*
X91142857Y-43512200D01*
X91142857Y-43512200D02*
X91000000Y-43559819D01*
X91000000Y-43559819D02*
X90761905Y-43559819D01*
X91952381Y-42559819D02*
X92047619Y-42559819D01*
X92047619Y-42559819D02*
X92142857Y-42607438D01*
X92142857Y-42607438D02*
X92190476Y-42655057D01*
X92190476Y-42655057D02*
X92238095Y-42750295D01*
X92238095Y-42750295D02*
X92285714Y-42940771D01*
X92285714Y-42940771D02*
X92285714Y-43178866D01*
X92285714Y-43178866D02*
X92238095Y-43369342D01*
X92238095Y-43369342D02*
X92190476Y-43464580D01*
X92190476Y-43464580D02*
X92142857Y-43512200D01*
X92142857Y-43512200D02*
X92047619Y-43559819D01*
X92047619Y-43559819D02*
X91952381Y-43559819D01*
X91952381Y-43559819D02*
X91857143Y-43512200D01*
X91857143Y-43512200D02*
X91809524Y-43464580D01*
X91809524Y-43464580D02*
X91761905Y-43369342D01*
X91761905Y-43369342D02*
X91714286Y-43178866D01*
X91714286Y-43178866D02*
X91714286Y-42940771D01*
X91714286Y-42940771D02*
X91761905Y-42750295D01*
X91761905Y-42750295D02*
X91809524Y-42655057D01*
X91809524Y-42655057D02*
X91857143Y-42607438D01*
X91857143Y-42607438D02*
X91952381Y-42559819D01*
D11*
X249371429Y-23287664D02*
X249333333Y-23325760D01*
X249333333Y-23325760D02*
X249219048Y-23363855D01*
X249219048Y-23363855D02*
X249142857Y-23363855D01*
X249142857Y-23363855D02*
X249028571Y-23325760D01*
X249028571Y-23325760D02*
X248952381Y-23249569D01*
X248952381Y-23249569D02*
X248914286Y-23173379D01*
X248914286Y-23173379D02*
X248876190Y-23020998D01*
X248876190Y-23020998D02*
X248876190Y-22906712D01*
X248876190Y-22906712D02*
X248914286Y-22754331D01*
X248914286Y-22754331D02*
X248952381Y-22678140D01*
X248952381Y-22678140D02*
X249028571Y-22601950D01*
X249028571Y-22601950D02*
X249142857Y-22563855D01*
X249142857Y-22563855D02*
X249219048Y-22563855D01*
X249219048Y-22563855D02*
X249333333Y-22601950D01*
X249333333Y-22601950D02*
X249371429Y-22640045D01*
X249866667Y-22563855D02*
X250019048Y-22563855D01*
X250019048Y-22563855D02*
X250095238Y-22601950D01*
X250095238Y-22601950D02*
X250171429Y-22678140D01*
X250171429Y-22678140D02*
X250209524Y-22830521D01*
X250209524Y-22830521D02*
X250209524Y-23097188D01*
X250209524Y-23097188D02*
X250171429Y-23249569D01*
X250171429Y-23249569D02*
X250095238Y-23325760D01*
X250095238Y-23325760D02*
X250019048Y-23363855D01*
X250019048Y-23363855D02*
X249866667Y-23363855D01*
X249866667Y-23363855D02*
X249790476Y-23325760D01*
X249790476Y-23325760D02*
X249714286Y-23249569D01*
X249714286Y-23249569D02*
X249676190Y-23097188D01*
X249676190Y-23097188D02*
X249676190Y-22830521D01*
X249676190Y-22830521D02*
X249714286Y-22678140D01*
X249714286Y-22678140D02*
X249790476Y-22601950D01*
X249790476Y-22601950D02*
X249866667Y-22563855D01*
X250552381Y-23363855D02*
X250552381Y-22563855D01*
X250552381Y-22563855D02*
X250819047Y-23135283D01*
X250819047Y-23135283D02*
X251085714Y-22563855D01*
X251085714Y-22563855D02*
X251085714Y-23363855D01*
D13*
X249833333Y-31454819D02*
X249500000Y-30978628D01*
X249261905Y-31454819D02*
X249261905Y-30454819D01*
X249261905Y-30454819D02*
X249642857Y-30454819D01*
X249642857Y-30454819D02*
X249738095Y-30502438D01*
X249738095Y-30502438D02*
X249785714Y-30550057D01*
X249785714Y-30550057D02*
X249833333Y-30645295D01*
X249833333Y-30645295D02*
X249833333Y-30788152D01*
X249833333Y-30788152D02*
X249785714Y-30883390D01*
X249785714Y-30883390D02*
X249738095Y-30931009D01*
X249738095Y-30931009D02*
X249642857Y-30978628D01*
X249642857Y-30978628D02*
X249261905Y-30978628D01*
X250690476Y-30454819D02*
X250500000Y-30454819D01*
X250500000Y-30454819D02*
X250404762Y-30502438D01*
X250404762Y-30502438D02*
X250357143Y-30550057D01*
X250357143Y-30550057D02*
X250261905Y-30692914D01*
X250261905Y-30692914D02*
X250214286Y-30883390D01*
X250214286Y-30883390D02*
X250214286Y-31264342D01*
X250214286Y-31264342D02*
X250261905Y-31359580D01*
X250261905Y-31359580D02*
X250309524Y-31407200D01*
X250309524Y-31407200D02*
X250404762Y-31454819D01*
X250404762Y-31454819D02*
X250595238Y-31454819D01*
X250595238Y-31454819D02*
X250690476Y-31407200D01*
X250690476Y-31407200D02*
X250738095Y-31359580D01*
X250738095Y-31359580D02*
X250785714Y-31264342D01*
X250785714Y-31264342D02*
X250785714Y-31026247D01*
X250785714Y-31026247D02*
X250738095Y-30931009D01*
X250738095Y-30931009D02*
X250690476Y-30883390D01*
X250690476Y-30883390D02*
X250595238Y-30835771D01*
X250595238Y-30835771D02*
X250404762Y-30835771D01*
X250404762Y-30835771D02*
X250309524Y-30883390D01*
X250309524Y-30883390D02*
X250261905Y-30931009D01*
X250261905Y-30931009D02*
X250214286Y-31026247D01*
D11*
X254432381Y-23363855D02*
X254432381Y-22563855D01*
X254432381Y-22563855D02*
X254889524Y-23363855D01*
X254889524Y-23363855D02*
X254889524Y-22563855D01*
X255422857Y-22563855D02*
X255575238Y-22563855D01*
X255575238Y-22563855D02*
X255651428Y-22601950D01*
X255651428Y-22601950D02*
X255727619Y-22678140D01*
X255727619Y-22678140D02*
X255765714Y-22830521D01*
X255765714Y-22830521D02*
X255765714Y-23097188D01*
X255765714Y-23097188D02*
X255727619Y-23249569D01*
X255727619Y-23249569D02*
X255651428Y-23325760D01*
X255651428Y-23325760D02*
X255575238Y-23363855D01*
X255575238Y-23363855D02*
X255422857Y-23363855D01*
X255422857Y-23363855D02*
X255346666Y-23325760D01*
X255346666Y-23325760D02*
X255270476Y-23249569D01*
X255270476Y-23249569D02*
X255232380Y-23097188D01*
X255232380Y-23097188D02*
X255232380Y-22830521D01*
X255232380Y-22830521D02*
X255270476Y-22678140D01*
X255270476Y-22678140D02*
X255346666Y-22601950D01*
X255346666Y-22601950D02*
X255422857Y-22563855D01*
X259531429Y-23363855D02*
X259531429Y-22563855D01*
X259531429Y-22563855D02*
X259988572Y-23363855D01*
X259988572Y-23363855D02*
X259988572Y-22563855D01*
X260826667Y-23287664D02*
X260788571Y-23325760D01*
X260788571Y-23325760D02*
X260674286Y-23363855D01*
X260674286Y-23363855D02*
X260598095Y-23363855D01*
X260598095Y-23363855D02*
X260483809Y-23325760D01*
X260483809Y-23325760D02*
X260407619Y-23249569D01*
X260407619Y-23249569D02*
X260369524Y-23173379D01*
X260369524Y-23173379D02*
X260331428Y-23020998D01*
X260331428Y-23020998D02*
X260331428Y-22906712D01*
X260331428Y-22906712D02*
X260369524Y-22754331D01*
X260369524Y-22754331D02*
X260407619Y-22678140D01*
X260407619Y-22678140D02*
X260483809Y-22601950D01*
X260483809Y-22601950D02*
X260598095Y-22563855D01*
X260598095Y-22563855D02*
X260674286Y-22563855D01*
X260674286Y-22563855D02*
X260788571Y-22601950D01*
X260788571Y-22601950D02*
X260826667Y-22640045D01*
X197504761Y-190363855D02*
X197047618Y-190363855D01*
X197276190Y-190363855D02*
X197276190Y-189563855D01*
X197276190Y-189563855D02*
X197199999Y-189678140D01*
X197199999Y-189678140D02*
X197123809Y-189754331D01*
X197123809Y-189754331D02*
X197047618Y-189792426D01*
X197809523Y-189640045D02*
X197847619Y-189601950D01*
X197847619Y-189601950D02*
X197923809Y-189563855D01*
X197923809Y-189563855D02*
X198114285Y-189563855D01*
X198114285Y-189563855D02*
X198190476Y-189601950D01*
X198190476Y-189601950D02*
X198228571Y-189640045D01*
X198228571Y-189640045D02*
X198266666Y-189716236D01*
X198266666Y-189716236D02*
X198266666Y-189792426D01*
X198266666Y-189792426D02*
X198228571Y-189906712D01*
X198228571Y-189906712D02*
X197771428Y-190363855D01*
X197771428Y-190363855D02*
X198266666Y-190363855D01*
X198495238Y-189563855D02*
X198761905Y-190363855D01*
X198761905Y-190363855D02*
X199028571Y-189563855D01*
D13*
X195738094Y-198359580D02*
X195690475Y-198407200D01*
X195690475Y-198407200D02*
X195547618Y-198454819D01*
X195547618Y-198454819D02*
X195452380Y-198454819D01*
X195452380Y-198454819D02*
X195309523Y-198407200D01*
X195309523Y-198407200D02*
X195214285Y-198311961D01*
X195214285Y-198311961D02*
X195166666Y-198216723D01*
X195166666Y-198216723D02*
X195119047Y-198026247D01*
X195119047Y-198026247D02*
X195119047Y-197883390D01*
X195119047Y-197883390D02*
X195166666Y-197692914D01*
X195166666Y-197692914D02*
X195214285Y-197597676D01*
X195214285Y-197597676D02*
X195309523Y-197502438D01*
X195309523Y-197502438D02*
X195452380Y-197454819D01*
X195452380Y-197454819D02*
X195547618Y-197454819D01*
X195547618Y-197454819D02*
X195690475Y-197502438D01*
X195690475Y-197502438D02*
X195738094Y-197550057D01*
X196119047Y-198169104D02*
X196595237Y-198169104D01*
X196023809Y-198454819D02*
X196357142Y-197454819D01*
X196357142Y-197454819D02*
X196690475Y-198454819D01*
X196976190Y-198407200D02*
X197119047Y-198454819D01*
X197119047Y-198454819D02*
X197357142Y-198454819D01*
X197357142Y-198454819D02*
X197452380Y-198407200D01*
X197452380Y-198407200D02*
X197499999Y-198359580D01*
X197499999Y-198359580D02*
X197547618Y-198264342D01*
X197547618Y-198264342D02*
X197547618Y-198169104D01*
X197547618Y-198169104D02*
X197499999Y-198073866D01*
X197499999Y-198073866D02*
X197452380Y-198026247D01*
X197452380Y-198026247D02*
X197357142Y-197978628D01*
X197357142Y-197978628D02*
X197166666Y-197931009D01*
X197166666Y-197931009D02*
X197071428Y-197883390D01*
X197071428Y-197883390D02*
X197023809Y-197835771D01*
X197023809Y-197835771D02*
X196976190Y-197740533D01*
X196976190Y-197740533D02*
X196976190Y-197645295D01*
X196976190Y-197645295D02*
X197023809Y-197550057D01*
X197023809Y-197550057D02*
X197071428Y-197502438D01*
X197071428Y-197502438D02*
X197166666Y-197454819D01*
X197166666Y-197454819D02*
X197404761Y-197454819D01*
X197404761Y-197454819D02*
X197547618Y-197502438D01*
X197976190Y-197931009D02*
X198309523Y-197931009D01*
X198452380Y-198454819D02*
X197976190Y-198454819D01*
X197976190Y-198454819D02*
X197976190Y-197454819D01*
X197976190Y-197454819D02*
X198452380Y-197454819D01*
X198738095Y-197454819D02*
X199309523Y-197454819D01*
X199023809Y-198454819D02*
X199023809Y-197454819D01*
X199500000Y-197454819D02*
X200071428Y-197454819D01*
X199785714Y-198454819D02*
X199785714Y-197454819D01*
X200404762Y-197931009D02*
X200738095Y-197931009D01*
X200880952Y-198454819D02*
X200404762Y-198454819D01*
X200404762Y-198454819D02*
X200404762Y-197454819D01*
X200404762Y-197454819D02*
X200880952Y-197454819D01*
D11*
X202470476Y-189601950D02*
X202394286Y-189563855D01*
X202394286Y-189563855D02*
X202280000Y-189563855D01*
X202280000Y-189563855D02*
X202165714Y-189601950D01*
X202165714Y-189601950D02*
X202089524Y-189678140D01*
X202089524Y-189678140D02*
X202051429Y-189754331D01*
X202051429Y-189754331D02*
X202013333Y-189906712D01*
X202013333Y-189906712D02*
X202013333Y-190020998D01*
X202013333Y-190020998D02*
X202051429Y-190173379D01*
X202051429Y-190173379D02*
X202089524Y-190249569D01*
X202089524Y-190249569D02*
X202165714Y-190325760D01*
X202165714Y-190325760D02*
X202280000Y-190363855D01*
X202280000Y-190363855D02*
X202356191Y-190363855D01*
X202356191Y-190363855D02*
X202470476Y-190325760D01*
X202470476Y-190325760D02*
X202508572Y-190287664D01*
X202508572Y-190287664D02*
X202508572Y-190020998D01*
X202508572Y-190020998D02*
X202356191Y-190020998D01*
X202851429Y-190363855D02*
X202851429Y-189563855D01*
X202851429Y-189563855D02*
X203308572Y-190363855D01*
X203308572Y-190363855D02*
X203308572Y-189563855D01*
X203689524Y-190363855D02*
X203689524Y-189563855D01*
X203689524Y-189563855D02*
X203880000Y-189563855D01*
X203880000Y-189563855D02*
X203994286Y-189601950D01*
X203994286Y-189601950D02*
X204070476Y-189678140D01*
X204070476Y-189678140D02*
X204108571Y-189754331D01*
X204108571Y-189754331D02*
X204146667Y-189906712D01*
X204146667Y-189906712D02*
X204146667Y-190020998D01*
X204146667Y-190020998D02*
X204108571Y-190173379D01*
X204108571Y-190173379D02*
X204070476Y-190249569D01*
X204070476Y-190249569D02*
X203994286Y-190325760D01*
X203994286Y-190325760D02*
X203880000Y-190363855D01*
X203880000Y-190363855D02*
X203689524Y-190363855D01*
X206960000Y-190363855D02*
X206960000Y-189563855D01*
X206960000Y-189563855D02*
X207150476Y-189563855D01*
X207150476Y-189563855D02*
X207264762Y-189601950D01*
X207264762Y-189601950D02*
X207340952Y-189678140D01*
X207340952Y-189678140D02*
X207379047Y-189754331D01*
X207379047Y-189754331D02*
X207417143Y-189906712D01*
X207417143Y-189906712D02*
X207417143Y-190020998D01*
X207417143Y-190020998D02*
X207379047Y-190173379D01*
X207379047Y-190173379D02*
X207340952Y-190249569D01*
X207340952Y-190249569D02*
X207264762Y-190325760D01*
X207264762Y-190325760D02*
X207150476Y-190363855D01*
X207150476Y-190363855D02*
X206960000Y-190363855D01*
X207721904Y-190135283D02*
X208102857Y-190135283D01*
X207645714Y-190363855D02*
X207912381Y-189563855D01*
X207912381Y-189563855D02*
X208179047Y-190363855D01*
X208331428Y-189563855D02*
X208788571Y-189563855D01*
X208559999Y-190363855D02*
X208559999Y-189563855D01*
X209017142Y-190135283D02*
X209398095Y-190135283D01*
X208940952Y-190363855D02*
X209207619Y-189563855D01*
X209207619Y-189563855D02*
X209474285Y-190363855D01*
X179504761Y-190363855D02*
X179047618Y-190363855D01*
X179276190Y-190363855D02*
X179276190Y-189563855D01*
X179276190Y-189563855D02*
X179199999Y-189678140D01*
X179199999Y-189678140D02*
X179123809Y-189754331D01*
X179123809Y-189754331D02*
X179047618Y-189792426D01*
X179809523Y-189640045D02*
X179847619Y-189601950D01*
X179847619Y-189601950D02*
X179923809Y-189563855D01*
X179923809Y-189563855D02*
X180114285Y-189563855D01*
X180114285Y-189563855D02*
X180190476Y-189601950D01*
X180190476Y-189601950D02*
X180228571Y-189640045D01*
X180228571Y-189640045D02*
X180266666Y-189716236D01*
X180266666Y-189716236D02*
X180266666Y-189792426D01*
X180266666Y-189792426D02*
X180228571Y-189906712D01*
X180228571Y-189906712D02*
X179771428Y-190363855D01*
X179771428Y-190363855D02*
X180266666Y-190363855D01*
X180495238Y-189563855D02*
X180761905Y-190363855D01*
X180761905Y-190363855D02*
X181028571Y-189563855D01*
D13*
X177619047Y-198407200D02*
X177761904Y-198454819D01*
X177761904Y-198454819D02*
X177999999Y-198454819D01*
X177999999Y-198454819D02*
X178095237Y-198407200D01*
X178095237Y-198407200D02*
X178142856Y-198359580D01*
X178142856Y-198359580D02*
X178190475Y-198264342D01*
X178190475Y-198264342D02*
X178190475Y-198169104D01*
X178190475Y-198169104D02*
X178142856Y-198073866D01*
X178142856Y-198073866D02*
X178095237Y-198026247D01*
X178095237Y-198026247D02*
X177999999Y-197978628D01*
X177999999Y-197978628D02*
X177809523Y-197931009D01*
X177809523Y-197931009D02*
X177714285Y-197883390D01*
X177714285Y-197883390D02*
X177666666Y-197835771D01*
X177666666Y-197835771D02*
X177619047Y-197740533D01*
X177619047Y-197740533D02*
X177619047Y-197645295D01*
X177619047Y-197645295D02*
X177666666Y-197550057D01*
X177666666Y-197550057D02*
X177714285Y-197502438D01*
X177714285Y-197502438D02*
X177809523Y-197454819D01*
X177809523Y-197454819D02*
X178047618Y-197454819D01*
X178047618Y-197454819D02*
X178190475Y-197502438D01*
X178476190Y-197454819D02*
X179047618Y-197454819D01*
X178761904Y-198454819D02*
X178761904Y-197454819D01*
X179380952Y-197931009D02*
X179714285Y-197931009D01*
X179857142Y-198454819D02*
X179380952Y-198454819D01*
X179380952Y-198454819D02*
X179380952Y-197454819D01*
X179380952Y-197454819D02*
X179857142Y-197454819D01*
X180761904Y-198454819D02*
X180285714Y-198454819D01*
X180285714Y-198454819D02*
X180285714Y-197454819D01*
X181571428Y-198454819D02*
X181095238Y-198454819D01*
X181095238Y-198454819D02*
X181095238Y-197454819D01*
X181904762Y-197931009D02*
X182238095Y-197931009D01*
X182380952Y-198454819D02*
X181904762Y-198454819D01*
X181904762Y-198454819D02*
X181904762Y-197454819D01*
X181904762Y-197454819D02*
X182380952Y-197454819D01*
D11*
X184470476Y-189601950D02*
X184394286Y-189563855D01*
X184394286Y-189563855D02*
X184280000Y-189563855D01*
X184280000Y-189563855D02*
X184165714Y-189601950D01*
X184165714Y-189601950D02*
X184089524Y-189678140D01*
X184089524Y-189678140D02*
X184051429Y-189754331D01*
X184051429Y-189754331D02*
X184013333Y-189906712D01*
X184013333Y-189906712D02*
X184013333Y-190020998D01*
X184013333Y-190020998D02*
X184051429Y-190173379D01*
X184051429Y-190173379D02*
X184089524Y-190249569D01*
X184089524Y-190249569D02*
X184165714Y-190325760D01*
X184165714Y-190325760D02*
X184280000Y-190363855D01*
X184280000Y-190363855D02*
X184356191Y-190363855D01*
X184356191Y-190363855D02*
X184470476Y-190325760D01*
X184470476Y-190325760D02*
X184508572Y-190287664D01*
X184508572Y-190287664D02*
X184508572Y-190020998D01*
X184508572Y-190020998D02*
X184356191Y-190020998D01*
X184851429Y-190363855D02*
X184851429Y-189563855D01*
X184851429Y-189563855D02*
X185308572Y-190363855D01*
X185308572Y-190363855D02*
X185308572Y-189563855D01*
X185689524Y-190363855D02*
X185689524Y-189563855D01*
X185689524Y-189563855D02*
X185880000Y-189563855D01*
X185880000Y-189563855D02*
X185994286Y-189601950D01*
X185994286Y-189601950D02*
X186070476Y-189678140D01*
X186070476Y-189678140D02*
X186108571Y-189754331D01*
X186108571Y-189754331D02*
X186146667Y-189906712D01*
X186146667Y-189906712D02*
X186146667Y-190020998D01*
X186146667Y-190020998D02*
X186108571Y-190173379D01*
X186108571Y-190173379D02*
X186070476Y-190249569D01*
X186070476Y-190249569D02*
X185994286Y-190325760D01*
X185994286Y-190325760D02*
X185880000Y-190363855D01*
X185880000Y-190363855D02*
X185689524Y-190363855D01*
X188960000Y-190363855D02*
X188960000Y-189563855D01*
X188960000Y-189563855D02*
X189150476Y-189563855D01*
X189150476Y-189563855D02*
X189264762Y-189601950D01*
X189264762Y-189601950D02*
X189340952Y-189678140D01*
X189340952Y-189678140D02*
X189379047Y-189754331D01*
X189379047Y-189754331D02*
X189417143Y-189906712D01*
X189417143Y-189906712D02*
X189417143Y-190020998D01*
X189417143Y-190020998D02*
X189379047Y-190173379D01*
X189379047Y-190173379D02*
X189340952Y-190249569D01*
X189340952Y-190249569D02*
X189264762Y-190325760D01*
X189264762Y-190325760D02*
X189150476Y-190363855D01*
X189150476Y-190363855D02*
X188960000Y-190363855D01*
X189721904Y-190135283D02*
X190102857Y-190135283D01*
X189645714Y-190363855D02*
X189912381Y-189563855D01*
X189912381Y-189563855D02*
X190179047Y-190363855D01*
X190331428Y-189563855D02*
X190788571Y-189563855D01*
X190559999Y-190363855D02*
X190559999Y-189563855D01*
X191017142Y-190135283D02*
X191398095Y-190135283D01*
X190940952Y-190363855D02*
X191207619Y-189563855D01*
X191207619Y-189563855D02*
X191474285Y-190363855D01*
X181371429Y-23287664D02*
X181333333Y-23325760D01*
X181333333Y-23325760D02*
X181219048Y-23363855D01*
X181219048Y-23363855D02*
X181142857Y-23363855D01*
X181142857Y-23363855D02*
X181028571Y-23325760D01*
X181028571Y-23325760D02*
X180952381Y-23249569D01*
X180952381Y-23249569D02*
X180914286Y-23173379D01*
X180914286Y-23173379D02*
X180876190Y-23020998D01*
X180876190Y-23020998D02*
X180876190Y-22906712D01*
X180876190Y-22906712D02*
X180914286Y-22754331D01*
X180914286Y-22754331D02*
X180952381Y-22678140D01*
X180952381Y-22678140D02*
X181028571Y-22601950D01*
X181028571Y-22601950D02*
X181142857Y-22563855D01*
X181142857Y-22563855D02*
X181219048Y-22563855D01*
X181219048Y-22563855D02*
X181333333Y-22601950D01*
X181333333Y-22601950D02*
X181371429Y-22640045D01*
X181866667Y-22563855D02*
X182019048Y-22563855D01*
X182019048Y-22563855D02*
X182095238Y-22601950D01*
X182095238Y-22601950D02*
X182171429Y-22678140D01*
X182171429Y-22678140D02*
X182209524Y-22830521D01*
X182209524Y-22830521D02*
X182209524Y-23097188D01*
X182209524Y-23097188D02*
X182171429Y-23249569D01*
X182171429Y-23249569D02*
X182095238Y-23325760D01*
X182095238Y-23325760D02*
X182019048Y-23363855D01*
X182019048Y-23363855D02*
X181866667Y-23363855D01*
X181866667Y-23363855D02*
X181790476Y-23325760D01*
X181790476Y-23325760D02*
X181714286Y-23249569D01*
X181714286Y-23249569D02*
X181676190Y-23097188D01*
X181676190Y-23097188D02*
X181676190Y-22830521D01*
X181676190Y-22830521D02*
X181714286Y-22678140D01*
X181714286Y-22678140D02*
X181790476Y-22601950D01*
X181790476Y-22601950D02*
X181866667Y-22563855D01*
X182552381Y-23363855D02*
X182552381Y-22563855D01*
X182552381Y-22563855D02*
X182819047Y-23135283D01*
X182819047Y-23135283D02*
X183085714Y-22563855D01*
X183085714Y-22563855D02*
X183085714Y-23363855D01*
D13*
X181833333Y-31454819D02*
X181500000Y-30978628D01*
X181261905Y-31454819D02*
X181261905Y-30454819D01*
X181261905Y-30454819D02*
X181642857Y-30454819D01*
X181642857Y-30454819D02*
X181738095Y-30502438D01*
X181738095Y-30502438D02*
X181785714Y-30550057D01*
X181785714Y-30550057D02*
X181833333Y-30645295D01*
X181833333Y-30645295D02*
X181833333Y-30788152D01*
X181833333Y-30788152D02*
X181785714Y-30883390D01*
X181785714Y-30883390D02*
X181738095Y-30931009D01*
X181738095Y-30931009D02*
X181642857Y-30978628D01*
X181642857Y-30978628D02*
X181261905Y-30978628D01*
X182214286Y-30550057D02*
X182261905Y-30502438D01*
X182261905Y-30502438D02*
X182357143Y-30454819D01*
X182357143Y-30454819D02*
X182595238Y-30454819D01*
X182595238Y-30454819D02*
X182690476Y-30502438D01*
X182690476Y-30502438D02*
X182738095Y-30550057D01*
X182738095Y-30550057D02*
X182785714Y-30645295D01*
X182785714Y-30645295D02*
X182785714Y-30740533D01*
X182785714Y-30740533D02*
X182738095Y-30883390D01*
X182738095Y-30883390D02*
X182166667Y-31454819D01*
X182166667Y-31454819D02*
X182785714Y-31454819D01*
D11*
X186432381Y-23363855D02*
X186432381Y-22563855D01*
X186432381Y-22563855D02*
X186889524Y-23363855D01*
X186889524Y-23363855D02*
X186889524Y-22563855D01*
X187422857Y-22563855D02*
X187575238Y-22563855D01*
X187575238Y-22563855D02*
X187651428Y-22601950D01*
X187651428Y-22601950D02*
X187727619Y-22678140D01*
X187727619Y-22678140D02*
X187765714Y-22830521D01*
X187765714Y-22830521D02*
X187765714Y-23097188D01*
X187765714Y-23097188D02*
X187727619Y-23249569D01*
X187727619Y-23249569D02*
X187651428Y-23325760D01*
X187651428Y-23325760D02*
X187575238Y-23363855D01*
X187575238Y-23363855D02*
X187422857Y-23363855D01*
X187422857Y-23363855D02*
X187346666Y-23325760D01*
X187346666Y-23325760D02*
X187270476Y-23249569D01*
X187270476Y-23249569D02*
X187232380Y-23097188D01*
X187232380Y-23097188D02*
X187232380Y-22830521D01*
X187232380Y-22830521D02*
X187270476Y-22678140D01*
X187270476Y-22678140D02*
X187346666Y-22601950D01*
X187346666Y-22601950D02*
X187422857Y-22563855D01*
X191531429Y-23363855D02*
X191531429Y-22563855D01*
X191531429Y-22563855D02*
X191988572Y-23363855D01*
X191988572Y-23363855D02*
X191988572Y-22563855D01*
X192826667Y-23287664D02*
X192788571Y-23325760D01*
X192788571Y-23325760D02*
X192674286Y-23363855D01*
X192674286Y-23363855D02*
X192598095Y-23363855D01*
X192598095Y-23363855D02*
X192483809Y-23325760D01*
X192483809Y-23325760D02*
X192407619Y-23249569D01*
X192407619Y-23249569D02*
X192369524Y-23173379D01*
X192369524Y-23173379D02*
X192331428Y-23020998D01*
X192331428Y-23020998D02*
X192331428Y-22906712D01*
X192331428Y-22906712D02*
X192369524Y-22754331D01*
X192369524Y-22754331D02*
X192407619Y-22678140D01*
X192407619Y-22678140D02*
X192483809Y-22601950D01*
X192483809Y-22601950D02*
X192598095Y-22563855D01*
X192598095Y-22563855D02*
X192674286Y-22563855D01*
X192674286Y-22563855D02*
X192788571Y-22601950D01*
X192788571Y-22601950D02*
X192826667Y-22640045D01*
X155504761Y-190363855D02*
X155047618Y-190363855D01*
X155276190Y-190363855D02*
X155276190Y-189563855D01*
X155276190Y-189563855D02*
X155199999Y-189678140D01*
X155199999Y-189678140D02*
X155123809Y-189754331D01*
X155123809Y-189754331D02*
X155047618Y-189792426D01*
X155809523Y-189640045D02*
X155847619Y-189601950D01*
X155847619Y-189601950D02*
X155923809Y-189563855D01*
X155923809Y-189563855D02*
X156114285Y-189563855D01*
X156114285Y-189563855D02*
X156190476Y-189601950D01*
X156190476Y-189601950D02*
X156228571Y-189640045D01*
X156228571Y-189640045D02*
X156266666Y-189716236D01*
X156266666Y-189716236D02*
X156266666Y-189792426D01*
X156266666Y-189792426D02*
X156228571Y-189906712D01*
X156228571Y-189906712D02*
X155771428Y-190363855D01*
X155771428Y-190363855D02*
X156266666Y-190363855D01*
X156495238Y-189563855D02*
X156761905Y-190363855D01*
X156761905Y-190363855D02*
X157028571Y-189563855D01*
D13*
X154428571Y-198169104D02*
X154904761Y-198169104D01*
X154333333Y-198454819D02*
X154666666Y-197454819D01*
X154666666Y-197454819D02*
X154999999Y-198454819D01*
X155809523Y-198454819D02*
X155333333Y-198454819D01*
X155333333Y-198454819D02*
X155333333Y-197454819D01*
X156476190Y-197931009D02*
X156619047Y-197978628D01*
X156619047Y-197978628D02*
X156666666Y-198026247D01*
X156666666Y-198026247D02*
X156714285Y-198121485D01*
X156714285Y-198121485D02*
X156714285Y-198264342D01*
X156714285Y-198264342D02*
X156666666Y-198359580D01*
X156666666Y-198359580D02*
X156619047Y-198407200D01*
X156619047Y-198407200D02*
X156523809Y-198454819D01*
X156523809Y-198454819D02*
X156142857Y-198454819D01*
X156142857Y-198454819D02*
X156142857Y-197454819D01*
X156142857Y-197454819D02*
X156476190Y-197454819D01*
X156476190Y-197454819D02*
X156571428Y-197502438D01*
X156571428Y-197502438D02*
X156619047Y-197550057D01*
X156619047Y-197550057D02*
X156666666Y-197645295D01*
X156666666Y-197645295D02*
X156666666Y-197740533D01*
X156666666Y-197740533D02*
X156619047Y-197835771D01*
X156619047Y-197835771D02*
X156571428Y-197883390D01*
X156571428Y-197883390D02*
X156476190Y-197931009D01*
X156476190Y-197931009D02*
X156142857Y-197931009D01*
X157095238Y-198169104D02*
X157571428Y-198169104D01*
X157000000Y-198454819D02*
X157333333Y-197454819D01*
X157333333Y-197454819D02*
X157666666Y-198454819D01*
D11*
X161327619Y-190363855D02*
X161060952Y-189982902D01*
X160870476Y-190363855D02*
X160870476Y-189563855D01*
X160870476Y-189563855D02*
X161175238Y-189563855D01*
X161175238Y-189563855D02*
X161251428Y-189601950D01*
X161251428Y-189601950D02*
X161289523Y-189640045D01*
X161289523Y-189640045D02*
X161327619Y-189716236D01*
X161327619Y-189716236D02*
X161327619Y-189830521D01*
X161327619Y-189830521D02*
X161289523Y-189906712D01*
X161289523Y-189906712D02*
X161251428Y-189944807D01*
X161251428Y-189944807D02*
X161175238Y-189982902D01*
X161175238Y-189982902D02*
X160870476Y-189982902D01*
X166369523Y-189601950D02*
X166293333Y-189563855D01*
X166293333Y-189563855D02*
X166179047Y-189563855D01*
X166179047Y-189563855D02*
X166064761Y-189601950D01*
X166064761Y-189601950D02*
X165988571Y-189678140D01*
X165988571Y-189678140D02*
X165950476Y-189754331D01*
X165950476Y-189754331D02*
X165912380Y-189906712D01*
X165912380Y-189906712D02*
X165912380Y-190020998D01*
X165912380Y-190020998D02*
X165950476Y-190173379D01*
X165950476Y-190173379D02*
X165988571Y-190249569D01*
X165988571Y-190249569D02*
X166064761Y-190325760D01*
X166064761Y-190325760D02*
X166179047Y-190363855D01*
X166179047Y-190363855D02*
X166255238Y-190363855D01*
X166255238Y-190363855D02*
X166369523Y-190325760D01*
X166369523Y-190325760D02*
X166407619Y-190287664D01*
X166407619Y-190287664D02*
X166407619Y-190020998D01*
X166407619Y-190020998D02*
X166255238Y-190020998D01*
X171297142Y-189944807D02*
X171411428Y-189982902D01*
X171411428Y-189982902D02*
X171449523Y-190020998D01*
X171449523Y-190020998D02*
X171487619Y-190097188D01*
X171487619Y-190097188D02*
X171487619Y-190211474D01*
X171487619Y-190211474D02*
X171449523Y-190287664D01*
X171449523Y-190287664D02*
X171411428Y-190325760D01*
X171411428Y-190325760D02*
X171335238Y-190363855D01*
X171335238Y-190363855D02*
X171030476Y-190363855D01*
X171030476Y-190363855D02*
X171030476Y-189563855D01*
X171030476Y-189563855D02*
X171297142Y-189563855D01*
X171297142Y-189563855D02*
X171373333Y-189601950D01*
X171373333Y-189601950D02*
X171411428Y-189640045D01*
X171411428Y-189640045D02*
X171449523Y-189716236D01*
X171449523Y-189716236D02*
X171449523Y-189792426D01*
X171449523Y-189792426D02*
X171411428Y-189868617D01*
X171411428Y-189868617D02*
X171373333Y-189906712D01*
X171373333Y-189906712D02*
X171297142Y-189944807D01*
X171297142Y-189944807D02*
X171030476Y-189944807D01*
X89723809Y-189563855D02*
X90180952Y-189563855D01*
X89952380Y-190363855D02*
X89952380Y-189563855D01*
X90447619Y-189944807D02*
X90714285Y-189944807D01*
X90828571Y-190363855D02*
X90447619Y-190363855D01*
X90447619Y-190363855D02*
X90447619Y-189563855D01*
X90447619Y-189563855D02*
X90828571Y-189563855D01*
X91133333Y-190325760D02*
X91247619Y-190363855D01*
X91247619Y-190363855D02*
X91438095Y-190363855D01*
X91438095Y-190363855D02*
X91514286Y-190325760D01*
X91514286Y-190325760D02*
X91552381Y-190287664D01*
X91552381Y-190287664D02*
X91590476Y-190211474D01*
X91590476Y-190211474D02*
X91590476Y-190135283D01*
X91590476Y-190135283D02*
X91552381Y-190059093D01*
X91552381Y-190059093D02*
X91514286Y-190020998D01*
X91514286Y-190020998D02*
X91438095Y-189982902D01*
X91438095Y-189982902D02*
X91285714Y-189944807D01*
X91285714Y-189944807D02*
X91209524Y-189906712D01*
X91209524Y-189906712D02*
X91171429Y-189868617D01*
X91171429Y-189868617D02*
X91133333Y-189792426D01*
X91133333Y-189792426D02*
X91133333Y-189716236D01*
X91133333Y-189716236D02*
X91171429Y-189640045D01*
X91171429Y-189640045D02*
X91209524Y-189601950D01*
X91209524Y-189601950D02*
X91285714Y-189563855D01*
X91285714Y-189563855D02*
X91476191Y-189563855D01*
X91476191Y-189563855D02*
X91590476Y-189601950D01*
X91819048Y-189563855D02*
X92276191Y-189563855D01*
X92047619Y-190363855D02*
X92047619Y-189563855D01*
X95470476Y-189601950D02*
X95394286Y-189563855D01*
X95394286Y-189563855D02*
X95280000Y-189563855D01*
X95280000Y-189563855D02*
X95165714Y-189601950D01*
X95165714Y-189601950D02*
X95089524Y-189678140D01*
X95089524Y-189678140D02*
X95051429Y-189754331D01*
X95051429Y-189754331D02*
X95013333Y-189906712D01*
X95013333Y-189906712D02*
X95013333Y-190020998D01*
X95013333Y-190020998D02*
X95051429Y-190173379D01*
X95051429Y-190173379D02*
X95089524Y-190249569D01*
X95089524Y-190249569D02*
X95165714Y-190325760D01*
X95165714Y-190325760D02*
X95280000Y-190363855D01*
X95280000Y-190363855D02*
X95356191Y-190363855D01*
X95356191Y-190363855D02*
X95470476Y-190325760D01*
X95470476Y-190325760D02*
X95508572Y-190287664D01*
X95508572Y-190287664D02*
X95508572Y-190020998D01*
X95508572Y-190020998D02*
X95356191Y-190020998D01*
X95851429Y-190363855D02*
X95851429Y-189563855D01*
X95851429Y-189563855D02*
X96308572Y-190363855D01*
X96308572Y-190363855D02*
X96308572Y-189563855D01*
X96689524Y-190363855D02*
X96689524Y-189563855D01*
X96689524Y-189563855D02*
X96880000Y-189563855D01*
X96880000Y-189563855D02*
X96994286Y-189601950D01*
X96994286Y-189601950D02*
X97070476Y-189678140D01*
X97070476Y-189678140D02*
X97108571Y-189754331D01*
X97108571Y-189754331D02*
X97146667Y-189906712D01*
X97146667Y-189906712D02*
X97146667Y-190020998D01*
X97146667Y-190020998D02*
X97108571Y-190173379D01*
X97108571Y-190173379D02*
X97070476Y-190249569D01*
X97070476Y-190249569D02*
X96994286Y-190325760D01*
X96994286Y-190325760D02*
X96880000Y-190363855D01*
X96880000Y-190363855D02*
X96689524Y-190363855D01*
X107504761Y-190363855D02*
X107047618Y-190363855D01*
X107276190Y-190363855D02*
X107276190Y-189563855D01*
X107276190Y-189563855D02*
X107199999Y-189678140D01*
X107199999Y-189678140D02*
X107123809Y-189754331D01*
X107123809Y-189754331D02*
X107047618Y-189792426D01*
X107809523Y-189640045D02*
X107847619Y-189601950D01*
X107847619Y-189601950D02*
X107923809Y-189563855D01*
X107923809Y-189563855D02*
X108114285Y-189563855D01*
X108114285Y-189563855D02*
X108190476Y-189601950D01*
X108190476Y-189601950D02*
X108228571Y-189640045D01*
X108228571Y-189640045D02*
X108266666Y-189716236D01*
X108266666Y-189716236D02*
X108266666Y-189792426D01*
X108266666Y-189792426D02*
X108228571Y-189906712D01*
X108228571Y-189906712D02*
X107771428Y-190363855D01*
X107771428Y-190363855D02*
X108266666Y-190363855D01*
X108495238Y-189563855D02*
X108761905Y-190363855D01*
X108761905Y-190363855D02*
X109028571Y-189563855D01*
D13*
X106690476Y-198359580D02*
X106642857Y-198407200D01*
X106642857Y-198407200D02*
X106500000Y-198454819D01*
X106500000Y-198454819D02*
X106404762Y-198454819D01*
X106404762Y-198454819D02*
X106261905Y-198407200D01*
X106261905Y-198407200D02*
X106166667Y-198311961D01*
X106166667Y-198311961D02*
X106119048Y-198216723D01*
X106119048Y-198216723D02*
X106071429Y-198026247D01*
X106071429Y-198026247D02*
X106071429Y-197883390D01*
X106071429Y-197883390D02*
X106119048Y-197692914D01*
X106119048Y-197692914D02*
X106166667Y-197597676D01*
X106166667Y-197597676D02*
X106261905Y-197502438D01*
X106261905Y-197502438D02*
X106404762Y-197454819D01*
X106404762Y-197454819D02*
X106500000Y-197454819D01*
X106500000Y-197454819D02*
X106642857Y-197502438D01*
X106642857Y-197502438D02*
X106690476Y-197550057D01*
X107119048Y-198454819D02*
X107119048Y-197454819D01*
X107595238Y-197931009D02*
X107928571Y-197931009D01*
X108071428Y-198454819D02*
X107595238Y-198454819D01*
X107595238Y-198454819D02*
X107595238Y-197454819D01*
X107595238Y-197454819D02*
X108071428Y-197454819D01*
X108976190Y-198454819D02*
X108500000Y-198454819D01*
X108500000Y-198454819D02*
X108500000Y-197454819D01*
X109500000Y-197454819D02*
X109690476Y-197454819D01*
X109690476Y-197454819D02*
X109785714Y-197502438D01*
X109785714Y-197502438D02*
X109880952Y-197597676D01*
X109880952Y-197597676D02*
X109928571Y-197788152D01*
X109928571Y-197788152D02*
X109928571Y-198121485D01*
X109928571Y-198121485D02*
X109880952Y-198311961D01*
X109880952Y-198311961D02*
X109785714Y-198407200D01*
X109785714Y-198407200D02*
X109690476Y-198454819D01*
X109690476Y-198454819D02*
X109500000Y-198454819D01*
X109500000Y-198454819D02*
X109404762Y-198407200D01*
X109404762Y-198407200D02*
X109309524Y-198311961D01*
X109309524Y-198311961D02*
X109261905Y-198121485D01*
X109261905Y-198121485D02*
X109261905Y-197788152D01*
X109261905Y-197788152D02*
X109309524Y-197597676D01*
X109309524Y-197597676D02*
X109404762Y-197502438D01*
X109404762Y-197502438D02*
X109500000Y-197454819D01*
D11*
X113327619Y-190363855D02*
X113060952Y-189982902D01*
X112870476Y-190363855D02*
X112870476Y-189563855D01*
X112870476Y-189563855D02*
X113175238Y-189563855D01*
X113175238Y-189563855D02*
X113251428Y-189601950D01*
X113251428Y-189601950D02*
X113289523Y-189640045D01*
X113289523Y-189640045D02*
X113327619Y-189716236D01*
X113327619Y-189716236D02*
X113327619Y-189830521D01*
X113327619Y-189830521D02*
X113289523Y-189906712D01*
X113289523Y-189906712D02*
X113251428Y-189944807D01*
X113251428Y-189944807D02*
X113175238Y-189982902D01*
X113175238Y-189982902D02*
X112870476Y-189982902D01*
X118369523Y-189601950D02*
X118293333Y-189563855D01*
X118293333Y-189563855D02*
X118179047Y-189563855D01*
X118179047Y-189563855D02*
X118064761Y-189601950D01*
X118064761Y-189601950D02*
X117988571Y-189678140D01*
X117988571Y-189678140D02*
X117950476Y-189754331D01*
X117950476Y-189754331D02*
X117912380Y-189906712D01*
X117912380Y-189906712D02*
X117912380Y-190020998D01*
X117912380Y-190020998D02*
X117950476Y-190173379D01*
X117950476Y-190173379D02*
X117988571Y-190249569D01*
X117988571Y-190249569D02*
X118064761Y-190325760D01*
X118064761Y-190325760D02*
X118179047Y-190363855D01*
X118179047Y-190363855D02*
X118255238Y-190363855D01*
X118255238Y-190363855D02*
X118369523Y-190325760D01*
X118369523Y-190325760D02*
X118407619Y-190287664D01*
X118407619Y-190287664D02*
X118407619Y-190020998D01*
X118407619Y-190020998D02*
X118255238Y-190020998D01*
X123297142Y-189944807D02*
X123411428Y-189982902D01*
X123411428Y-189982902D02*
X123449523Y-190020998D01*
X123449523Y-190020998D02*
X123487619Y-190097188D01*
X123487619Y-190097188D02*
X123487619Y-190211474D01*
X123487619Y-190211474D02*
X123449523Y-190287664D01*
X123449523Y-190287664D02*
X123411428Y-190325760D01*
X123411428Y-190325760D02*
X123335238Y-190363855D01*
X123335238Y-190363855D02*
X123030476Y-190363855D01*
X123030476Y-190363855D02*
X123030476Y-189563855D01*
X123030476Y-189563855D02*
X123297142Y-189563855D01*
X123297142Y-189563855D02*
X123373333Y-189601950D01*
X123373333Y-189601950D02*
X123411428Y-189640045D01*
X123411428Y-189640045D02*
X123449523Y-189716236D01*
X123449523Y-189716236D02*
X123449523Y-189792426D01*
X123449523Y-189792426D02*
X123411428Y-189868617D01*
X123411428Y-189868617D02*
X123373333Y-189906712D01*
X123373333Y-189906712D02*
X123297142Y-189944807D01*
X123297142Y-189944807D02*
X123030476Y-189944807D01*
X307371429Y-38203855D02*
X307371429Y-37403855D01*
X307371429Y-37403855D02*
X307828572Y-38203855D01*
X307828572Y-38203855D02*
X307828572Y-37403855D01*
X308666667Y-38127664D02*
X308628571Y-38165760D01*
X308628571Y-38165760D02*
X308514286Y-38203855D01*
X308514286Y-38203855D02*
X308438095Y-38203855D01*
X308438095Y-38203855D02*
X308323809Y-38165760D01*
X308323809Y-38165760D02*
X308247619Y-38089569D01*
X308247619Y-38089569D02*
X308209524Y-38013379D01*
X308209524Y-38013379D02*
X308171428Y-37860998D01*
X308171428Y-37860998D02*
X308171428Y-37746712D01*
X308171428Y-37746712D02*
X308209524Y-37594331D01*
X308209524Y-37594331D02*
X308247619Y-37518140D01*
X308247619Y-37518140D02*
X308323809Y-37441950D01*
X308323809Y-37441950D02*
X308438095Y-37403855D01*
X308438095Y-37403855D02*
X308514286Y-37403855D01*
X308514286Y-37403855D02*
X308628571Y-37441950D01*
X308628571Y-37441950D02*
X308666667Y-37480045D01*
X307352381Y-43283855D02*
X307352381Y-42483855D01*
X307352381Y-42483855D02*
X307809524Y-43283855D01*
X307809524Y-43283855D02*
X307809524Y-42483855D01*
X308342857Y-42483855D02*
X308495238Y-42483855D01*
X308495238Y-42483855D02*
X308571428Y-42521950D01*
X308571428Y-42521950D02*
X308647619Y-42598140D01*
X308647619Y-42598140D02*
X308685714Y-42750521D01*
X308685714Y-42750521D02*
X308685714Y-43017188D01*
X308685714Y-43017188D02*
X308647619Y-43169569D01*
X308647619Y-43169569D02*
X308571428Y-43245760D01*
X308571428Y-43245760D02*
X308495238Y-43283855D01*
X308495238Y-43283855D02*
X308342857Y-43283855D01*
X308342857Y-43283855D02*
X308266666Y-43245760D01*
X308266666Y-43245760D02*
X308190476Y-43169569D01*
X308190476Y-43169569D02*
X308152380Y-43017188D01*
X308152380Y-43017188D02*
X308152380Y-42750521D01*
X308152380Y-42750521D02*
X308190476Y-42598140D01*
X308190476Y-42598140D02*
X308266666Y-42521950D01*
X308266666Y-42521950D02*
X308342857Y-42483855D01*
X307371429Y-48287664D02*
X307333333Y-48325760D01*
X307333333Y-48325760D02*
X307219048Y-48363855D01*
X307219048Y-48363855D02*
X307142857Y-48363855D01*
X307142857Y-48363855D02*
X307028571Y-48325760D01*
X307028571Y-48325760D02*
X306952381Y-48249569D01*
X306952381Y-48249569D02*
X306914286Y-48173379D01*
X306914286Y-48173379D02*
X306876190Y-48020998D01*
X306876190Y-48020998D02*
X306876190Y-47906712D01*
X306876190Y-47906712D02*
X306914286Y-47754331D01*
X306914286Y-47754331D02*
X306952381Y-47678140D01*
X306952381Y-47678140D02*
X307028571Y-47601950D01*
X307028571Y-47601950D02*
X307142857Y-47563855D01*
X307142857Y-47563855D02*
X307219048Y-47563855D01*
X307219048Y-47563855D02*
X307333333Y-47601950D01*
X307333333Y-47601950D02*
X307371429Y-47640045D01*
X307866667Y-47563855D02*
X308019048Y-47563855D01*
X308019048Y-47563855D02*
X308095238Y-47601950D01*
X308095238Y-47601950D02*
X308171429Y-47678140D01*
X308171429Y-47678140D02*
X308209524Y-47830521D01*
X308209524Y-47830521D02*
X308209524Y-48097188D01*
X308209524Y-48097188D02*
X308171429Y-48249569D01*
X308171429Y-48249569D02*
X308095238Y-48325760D01*
X308095238Y-48325760D02*
X308019048Y-48363855D01*
X308019048Y-48363855D02*
X307866667Y-48363855D01*
X307866667Y-48363855D02*
X307790476Y-48325760D01*
X307790476Y-48325760D02*
X307714286Y-48249569D01*
X307714286Y-48249569D02*
X307676190Y-48097188D01*
X307676190Y-48097188D02*
X307676190Y-47830521D01*
X307676190Y-47830521D02*
X307714286Y-47678140D01*
X307714286Y-47678140D02*
X307790476Y-47601950D01*
X307790476Y-47601950D02*
X307866667Y-47563855D01*
X308552381Y-48363855D02*
X308552381Y-47563855D01*
X308552381Y-47563855D02*
X308819047Y-48135283D01*
X308819047Y-48135283D02*
X309085714Y-47563855D01*
X309085714Y-47563855D02*
X309085714Y-48363855D01*
D13*
X315833333Y-48454819D02*
X315500000Y-47978628D01*
X315261905Y-48454819D02*
X315261905Y-47454819D01*
X315261905Y-47454819D02*
X315642857Y-47454819D01*
X315642857Y-47454819D02*
X315738095Y-47502438D01*
X315738095Y-47502438D02*
X315785714Y-47550057D01*
X315785714Y-47550057D02*
X315833333Y-47645295D01*
X315833333Y-47645295D02*
X315833333Y-47788152D01*
X315833333Y-47788152D02*
X315785714Y-47883390D01*
X315785714Y-47883390D02*
X315738095Y-47931009D01*
X315738095Y-47931009D02*
X315642857Y-47978628D01*
X315642857Y-47978628D02*
X315261905Y-47978628D01*
X316309524Y-48454819D02*
X316500000Y-48454819D01*
X316500000Y-48454819D02*
X316595238Y-48407200D01*
X316595238Y-48407200D02*
X316642857Y-48359580D01*
X316642857Y-48359580D02*
X316738095Y-48216723D01*
X316738095Y-48216723D02*
X316785714Y-48026247D01*
X316785714Y-48026247D02*
X316785714Y-47645295D01*
X316785714Y-47645295D02*
X316738095Y-47550057D01*
X316738095Y-47550057D02*
X316690476Y-47502438D01*
X316690476Y-47502438D02*
X316595238Y-47454819D01*
X316595238Y-47454819D02*
X316404762Y-47454819D01*
X316404762Y-47454819D02*
X316309524Y-47502438D01*
X316309524Y-47502438D02*
X316261905Y-47550057D01*
X316261905Y-47550057D02*
X316214286Y-47645295D01*
X316214286Y-47645295D02*
X316214286Y-47883390D01*
X316214286Y-47883390D02*
X316261905Y-47978628D01*
X316261905Y-47978628D02*
X316309524Y-48026247D01*
X316309524Y-48026247D02*
X316404762Y-48073866D01*
X316404762Y-48073866D02*
X316595238Y-48073866D01*
X316595238Y-48073866D02*
X316690476Y-48026247D01*
X316690476Y-48026247D02*
X316738095Y-47978628D01*
X316738095Y-47978628D02*
X316785714Y-47883390D01*
D11*
X27504761Y-190363855D02*
X27047618Y-190363855D01*
X27276190Y-190363855D02*
X27276190Y-189563855D01*
X27276190Y-189563855D02*
X27199999Y-189678140D01*
X27199999Y-189678140D02*
X27123809Y-189754331D01*
X27123809Y-189754331D02*
X27047618Y-189792426D01*
X27809523Y-189640045D02*
X27847619Y-189601950D01*
X27847619Y-189601950D02*
X27923809Y-189563855D01*
X27923809Y-189563855D02*
X28114285Y-189563855D01*
X28114285Y-189563855D02*
X28190476Y-189601950D01*
X28190476Y-189601950D02*
X28228571Y-189640045D01*
X28228571Y-189640045D02*
X28266666Y-189716236D01*
X28266666Y-189716236D02*
X28266666Y-189792426D01*
X28266666Y-189792426D02*
X28228571Y-189906712D01*
X28228571Y-189906712D02*
X27771428Y-190363855D01*
X27771428Y-190363855D02*
X28266666Y-190363855D01*
X28495238Y-189563855D02*
X28761905Y-190363855D01*
X28761905Y-190363855D02*
X29028571Y-189563855D01*
D13*
X25690476Y-198454819D02*
X25690476Y-197454819D01*
X25690476Y-197454819D02*
X26071428Y-197454819D01*
X26071428Y-197454819D02*
X26166666Y-197502438D01*
X26166666Y-197502438D02*
X26214285Y-197550057D01*
X26214285Y-197550057D02*
X26261904Y-197645295D01*
X26261904Y-197645295D02*
X26261904Y-197788152D01*
X26261904Y-197788152D02*
X26214285Y-197883390D01*
X26214285Y-197883390D02*
X26166666Y-197931009D01*
X26166666Y-197931009D02*
X26071428Y-197978628D01*
X26071428Y-197978628D02*
X25690476Y-197978628D01*
X26880952Y-197454819D02*
X27071428Y-197454819D01*
X27071428Y-197454819D02*
X27166666Y-197502438D01*
X27166666Y-197502438D02*
X27261904Y-197597676D01*
X27261904Y-197597676D02*
X27309523Y-197788152D01*
X27309523Y-197788152D02*
X27309523Y-198121485D01*
X27309523Y-198121485D02*
X27261904Y-198311961D01*
X27261904Y-198311961D02*
X27166666Y-198407200D01*
X27166666Y-198407200D02*
X27071428Y-198454819D01*
X27071428Y-198454819D02*
X26880952Y-198454819D01*
X26880952Y-198454819D02*
X26785714Y-198407200D01*
X26785714Y-198407200D02*
X26690476Y-198311961D01*
X26690476Y-198311961D02*
X26642857Y-198121485D01*
X26642857Y-198121485D02*
X26642857Y-197788152D01*
X26642857Y-197788152D02*
X26690476Y-197597676D01*
X26690476Y-197597676D02*
X26785714Y-197502438D01*
X26785714Y-197502438D02*
X26880952Y-197454819D01*
X27642857Y-197454819D02*
X27880952Y-198454819D01*
X27880952Y-198454819D02*
X28071428Y-197740533D01*
X28071428Y-197740533D02*
X28261904Y-198454819D01*
X28261904Y-198454819D02*
X28500000Y-197454819D01*
X28880952Y-197931009D02*
X29214285Y-197931009D01*
X29357142Y-198454819D02*
X28880952Y-198454819D01*
X28880952Y-198454819D02*
X28880952Y-197454819D01*
X28880952Y-197454819D02*
X29357142Y-197454819D01*
X30357142Y-198454819D02*
X30023809Y-197978628D01*
X29785714Y-198454819D02*
X29785714Y-197454819D01*
X29785714Y-197454819D02*
X30166666Y-197454819D01*
X30166666Y-197454819D02*
X30261904Y-197502438D01*
X30261904Y-197502438D02*
X30309523Y-197550057D01*
X30309523Y-197550057D02*
X30357142Y-197645295D01*
X30357142Y-197645295D02*
X30357142Y-197788152D01*
X30357142Y-197788152D02*
X30309523Y-197883390D01*
X30309523Y-197883390D02*
X30261904Y-197931009D01*
X30261904Y-197931009D02*
X30166666Y-197978628D01*
X30166666Y-197978628D02*
X29785714Y-197978628D01*
D11*
X32470476Y-189601950D02*
X32394286Y-189563855D01*
X32394286Y-189563855D02*
X32280000Y-189563855D01*
X32280000Y-189563855D02*
X32165714Y-189601950D01*
X32165714Y-189601950D02*
X32089524Y-189678140D01*
X32089524Y-189678140D02*
X32051429Y-189754331D01*
X32051429Y-189754331D02*
X32013333Y-189906712D01*
X32013333Y-189906712D02*
X32013333Y-190020998D01*
X32013333Y-190020998D02*
X32051429Y-190173379D01*
X32051429Y-190173379D02*
X32089524Y-190249569D01*
X32089524Y-190249569D02*
X32165714Y-190325760D01*
X32165714Y-190325760D02*
X32280000Y-190363855D01*
X32280000Y-190363855D02*
X32356191Y-190363855D01*
X32356191Y-190363855D02*
X32470476Y-190325760D01*
X32470476Y-190325760D02*
X32508572Y-190287664D01*
X32508572Y-190287664D02*
X32508572Y-190020998D01*
X32508572Y-190020998D02*
X32356191Y-190020998D01*
X32851429Y-190363855D02*
X32851429Y-189563855D01*
X32851429Y-189563855D02*
X33308572Y-190363855D01*
X33308572Y-190363855D02*
X33308572Y-189563855D01*
X33689524Y-190363855D02*
X33689524Y-189563855D01*
X33689524Y-189563855D02*
X33880000Y-189563855D01*
X33880000Y-189563855D02*
X33994286Y-189601950D01*
X33994286Y-189601950D02*
X34070476Y-189678140D01*
X34070476Y-189678140D02*
X34108571Y-189754331D01*
X34108571Y-189754331D02*
X34146667Y-189906712D01*
X34146667Y-189906712D02*
X34146667Y-190020998D01*
X34146667Y-190020998D02*
X34108571Y-190173379D01*
X34108571Y-190173379D02*
X34070476Y-190249569D01*
X34070476Y-190249569D02*
X33994286Y-190325760D01*
X33994286Y-190325760D02*
X33880000Y-190363855D01*
X33880000Y-190363855D02*
X33689524Y-190363855D01*
X307371429Y-102203855D02*
X307371429Y-101403855D01*
X307371429Y-101403855D02*
X307828572Y-102203855D01*
X307828572Y-102203855D02*
X307828572Y-101403855D01*
X308666667Y-102127664D02*
X308628571Y-102165760D01*
X308628571Y-102165760D02*
X308514286Y-102203855D01*
X308514286Y-102203855D02*
X308438095Y-102203855D01*
X308438095Y-102203855D02*
X308323809Y-102165760D01*
X308323809Y-102165760D02*
X308247619Y-102089569D01*
X308247619Y-102089569D02*
X308209524Y-102013379D01*
X308209524Y-102013379D02*
X308171428Y-101860998D01*
X308171428Y-101860998D02*
X308171428Y-101746712D01*
X308171428Y-101746712D02*
X308209524Y-101594331D01*
X308209524Y-101594331D02*
X308247619Y-101518140D01*
X308247619Y-101518140D02*
X308323809Y-101441950D01*
X308323809Y-101441950D02*
X308438095Y-101403855D01*
X308438095Y-101403855D02*
X308514286Y-101403855D01*
X308514286Y-101403855D02*
X308628571Y-101441950D01*
X308628571Y-101441950D02*
X308666667Y-101480045D01*
X307352381Y-107283855D02*
X307352381Y-106483855D01*
X307352381Y-106483855D02*
X307809524Y-107283855D01*
X307809524Y-107283855D02*
X307809524Y-106483855D01*
X308342857Y-106483855D02*
X308495238Y-106483855D01*
X308495238Y-106483855D02*
X308571428Y-106521950D01*
X308571428Y-106521950D02*
X308647619Y-106598140D01*
X308647619Y-106598140D02*
X308685714Y-106750521D01*
X308685714Y-106750521D02*
X308685714Y-107017188D01*
X308685714Y-107017188D02*
X308647619Y-107169569D01*
X308647619Y-107169569D02*
X308571428Y-107245760D01*
X308571428Y-107245760D02*
X308495238Y-107283855D01*
X308495238Y-107283855D02*
X308342857Y-107283855D01*
X308342857Y-107283855D02*
X308266666Y-107245760D01*
X308266666Y-107245760D02*
X308190476Y-107169569D01*
X308190476Y-107169569D02*
X308152380Y-107017188D01*
X308152380Y-107017188D02*
X308152380Y-106750521D01*
X308152380Y-106750521D02*
X308190476Y-106598140D01*
X308190476Y-106598140D02*
X308266666Y-106521950D01*
X308266666Y-106521950D02*
X308342857Y-106483855D01*
X307371429Y-112287664D02*
X307333333Y-112325760D01*
X307333333Y-112325760D02*
X307219048Y-112363855D01*
X307219048Y-112363855D02*
X307142857Y-112363855D01*
X307142857Y-112363855D02*
X307028571Y-112325760D01*
X307028571Y-112325760D02*
X306952381Y-112249569D01*
X306952381Y-112249569D02*
X306914286Y-112173379D01*
X306914286Y-112173379D02*
X306876190Y-112020998D01*
X306876190Y-112020998D02*
X306876190Y-111906712D01*
X306876190Y-111906712D02*
X306914286Y-111754331D01*
X306914286Y-111754331D02*
X306952381Y-111678140D01*
X306952381Y-111678140D02*
X307028571Y-111601950D01*
X307028571Y-111601950D02*
X307142857Y-111563855D01*
X307142857Y-111563855D02*
X307219048Y-111563855D01*
X307219048Y-111563855D02*
X307333333Y-111601950D01*
X307333333Y-111601950D02*
X307371429Y-111640045D01*
X307866667Y-111563855D02*
X308019048Y-111563855D01*
X308019048Y-111563855D02*
X308095238Y-111601950D01*
X308095238Y-111601950D02*
X308171429Y-111678140D01*
X308171429Y-111678140D02*
X308209524Y-111830521D01*
X308209524Y-111830521D02*
X308209524Y-112097188D01*
X308209524Y-112097188D02*
X308171429Y-112249569D01*
X308171429Y-112249569D02*
X308095238Y-112325760D01*
X308095238Y-112325760D02*
X308019048Y-112363855D01*
X308019048Y-112363855D02*
X307866667Y-112363855D01*
X307866667Y-112363855D02*
X307790476Y-112325760D01*
X307790476Y-112325760D02*
X307714286Y-112249569D01*
X307714286Y-112249569D02*
X307676190Y-112097188D01*
X307676190Y-112097188D02*
X307676190Y-111830521D01*
X307676190Y-111830521D02*
X307714286Y-111678140D01*
X307714286Y-111678140D02*
X307790476Y-111601950D01*
X307790476Y-111601950D02*
X307866667Y-111563855D01*
X308552381Y-112363855D02*
X308552381Y-111563855D01*
X308552381Y-111563855D02*
X308819047Y-112135283D01*
X308819047Y-112135283D02*
X309085714Y-111563855D01*
X309085714Y-111563855D02*
X309085714Y-112363855D01*
D13*
X315357142Y-112454819D02*
X315023809Y-111978628D01*
X314785714Y-112454819D02*
X314785714Y-111454819D01*
X314785714Y-111454819D02*
X315166666Y-111454819D01*
X315166666Y-111454819D02*
X315261904Y-111502438D01*
X315261904Y-111502438D02*
X315309523Y-111550057D01*
X315309523Y-111550057D02*
X315357142Y-111645295D01*
X315357142Y-111645295D02*
X315357142Y-111788152D01*
X315357142Y-111788152D02*
X315309523Y-111883390D01*
X315309523Y-111883390D02*
X315261904Y-111931009D01*
X315261904Y-111931009D02*
X315166666Y-111978628D01*
X315166666Y-111978628D02*
X314785714Y-111978628D01*
X316309523Y-112454819D02*
X315738095Y-112454819D01*
X316023809Y-112454819D02*
X316023809Y-111454819D01*
X316023809Y-111454819D02*
X315928571Y-111597676D01*
X315928571Y-111597676D02*
X315833333Y-111692914D01*
X315833333Y-111692914D02*
X315738095Y-111740533D01*
X316642857Y-111454819D02*
X317261904Y-111454819D01*
X317261904Y-111454819D02*
X316928571Y-111835771D01*
X316928571Y-111835771D02*
X317071428Y-111835771D01*
X317071428Y-111835771D02*
X317166666Y-111883390D01*
X317166666Y-111883390D02*
X317214285Y-111931009D01*
X317214285Y-111931009D02*
X317261904Y-112026247D01*
X317261904Y-112026247D02*
X317261904Y-112264342D01*
X317261904Y-112264342D02*
X317214285Y-112359580D01*
X317214285Y-112359580D02*
X317166666Y-112407200D01*
X317166666Y-112407200D02*
X317071428Y-112454819D01*
X317071428Y-112454819D02*
X316785714Y-112454819D01*
X316785714Y-112454819D02*
X316690476Y-112407200D01*
X316690476Y-112407200D02*
X316642857Y-112359580D01*
D11*
X307371429Y-54203855D02*
X307371429Y-53403855D01*
X307371429Y-53403855D02*
X307828572Y-54203855D01*
X307828572Y-54203855D02*
X307828572Y-53403855D01*
X308666667Y-54127664D02*
X308628571Y-54165760D01*
X308628571Y-54165760D02*
X308514286Y-54203855D01*
X308514286Y-54203855D02*
X308438095Y-54203855D01*
X308438095Y-54203855D02*
X308323809Y-54165760D01*
X308323809Y-54165760D02*
X308247619Y-54089569D01*
X308247619Y-54089569D02*
X308209524Y-54013379D01*
X308209524Y-54013379D02*
X308171428Y-53860998D01*
X308171428Y-53860998D02*
X308171428Y-53746712D01*
X308171428Y-53746712D02*
X308209524Y-53594331D01*
X308209524Y-53594331D02*
X308247619Y-53518140D01*
X308247619Y-53518140D02*
X308323809Y-53441950D01*
X308323809Y-53441950D02*
X308438095Y-53403855D01*
X308438095Y-53403855D02*
X308514286Y-53403855D01*
X308514286Y-53403855D02*
X308628571Y-53441950D01*
X308628571Y-53441950D02*
X308666667Y-53480045D01*
X307352381Y-59283855D02*
X307352381Y-58483855D01*
X307352381Y-58483855D02*
X307809524Y-59283855D01*
X307809524Y-59283855D02*
X307809524Y-58483855D01*
X308342857Y-58483855D02*
X308495238Y-58483855D01*
X308495238Y-58483855D02*
X308571428Y-58521950D01*
X308571428Y-58521950D02*
X308647619Y-58598140D01*
X308647619Y-58598140D02*
X308685714Y-58750521D01*
X308685714Y-58750521D02*
X308685714Y-59017188D01*
X308685714Y-59017188D02*
X308647619Y-59169569D01*
X308647619Y-59169569D02*
X308571428Y-59245760D01*
X308571428Y-59245760D02*
X308495238Y-59283855D01*
X308495238Y-59283855D02*
X308342857Y-59283855D01*
X308342857Y-59283855D02*
X308266666Y-59245760D01*
X308266666Y-59245760D02*
X308190476Y-59169569D01*
X308190476Y-59169569D02*
X308152380Y-59017188D01*
X308152380Y-59017188D02*
X308152380Y-58750521D01*
X308152380Y-58750521D02*
X308190476Y-58598140D01*
X308190476Y-58598140D02*
X308266666Y-58521950D01*
X308266666Y-58521950D02*
X308342857Y-58483855D01*
X307371429Y-64287664D02*
X307333333Y-64325760D01*
X307333333Y-64325760D02*
X307219048Y-64363855D01*
X307219048Y-64363855D02*
X307142857Y-64363855D01*
X307142857Y-64363855D02*
X307028571Y-64325760D01*
X307028571Y-64325760D02*
X306952381Y-64249569D01*
X306952381Y-64249569D02*
X306914286Y-64173379D01*
X306914286Y-64173379D02*
X306876190Y-64020998D01*
X306876190Y-64020998D02*
X306876190Y-63906712D01*
X306876190Y-63906712D02*
X306914286Y-63754331D01*
X306914286Y-63754331D02*
X306952381Y-63678140D01*
X306952381Y-63678140D02*
X307028571Y-63601950D01*
X307028571Y-63601950D02*
X307142857Y-63563855D01*
X307142857Y-63563855D02*
X307219048Y-63563855D01*
X307219048Y-63563855D02*
X307333333Y-63601950D01*
X307333333Y-63601950D02*
X307371429Y-63640045D01*
X307866667Y-63563855D02*
X308019048Y-63563855D01*
X308019048Y-63563855D02*
X308095238Y-63601950D01*
X308095238Y-63601950D02*
X308171429Y-63678140D01*
X308171429Y-63678140D02*
X308209524Y-63830521D01*
X308209524Y-63830521D02*
X308209524Y-64097188D01*
X308209524Y-64097188D02*
X308171429Y-64249569D01*
X308171429Y-64249569D02*
X308095238Y-64325760D01*
X308095238Y-64325760D02*
X308019048Y-64363855D01*
X308019048Y-64363855D02*
X307866667Y-64363855D01*
X307866667Y-64363855D02*
X307790476Y-64325760D01*
X307790476Y-64325760D02*
X307714286Y-64249569D01*
X307714286Y-64249569D02*
X307676190Y-64097188D01*
X307676190Y-64097188D02*
X307676190Y-63830521D01*
X307676190Y-63830521D02*
X307714286Y-63678140D01*
X307714286Y-63678140D02*
X307790476Y-63601950D01*
X307790476Y-63601950D02*
X307866667Y-63563855D01*
X308552381Y-64363855D02*
X308552381Y-63563855D01*
X308552381Y-63563855D02*
X308819047Y-64135283D01*
X308819047Y-64135283D02*
X309085714Y-63563855D01*
X309085714Y-63563855D02*
X309085714Y-64363855D01*
D13*
X315357142Y-64454819D02*
X315023809Y-63978628D01*
X314785714Y-64454819D02*
X314785714Y-63454819D01*
X314785714Y-63454819D02*
X315166666Y-63454819D01*
X315166666Y-63454819D02*
X315261904Y-63502438D01*
X315261904Y-63502438D02*
X315309523Y-63550057D01*
X315309523Y-63550057D02*
X315357142Y-63645295D01*
X315357142Y-63645295D02*
X315357142Y-63788152D01*
X315357142Y-63788152D02*
X315309523Y-63883390D01*
X315309523Y-63883390D02*
X315261904Y-63931009D01*
X315261904Y-63931009D02*
X315166666Y-63978628D01*
X315166666Y-63978628D02*
X314785714Y-63978628D01*
X316309523Y-64454819D02*
X315738095Y-64454819D01*
X316023809Y-64454819D02*
X316023809Y-63454819D01*
X316023809Y-63454819D02*
X315928571Y-63597676D01*
X315928571Y-63597676D02*
X315833333Y-63692914D01*
X315833333Y-63692914D02*
X315738095Y-63740533D01*
X316928571Y-63454819D02*
X317023809Y-63454819D01*
X317023809Y-63454819D02*
X317119047Y-63502438D01*
X317119047Y-63502438D02*
X317166666Y-63550057D01*
X317166666Y-63550057D02*
X317214285Y-63645295D01*
X317214285Y-63645295D02*
X317261904Y-63835771D01*
X317261904Y-63835771D02*
X317261904Y-64073866D01*
X317261904Y-64073866D02*
X317214285Y-64264342D01*
X317214285Y-64264342D02*
X317166666Y-64359580D01*
X317166666Y-64359580D02*
X317119047Y-64407200D01*
X317119047Y-64407200D02*
X317023809Y-64454819D01*
X317023809Y-64454819D02*
X316928571Y-64454819D01*
X316928571Y-64454819D02*
X316833333Y-64407200D01*
X316833333Y-64407200D02*
X316785714Y-64359580D01*
X316785714Y-64359580D02*
X316738095Y-64264342D01*
X316738095Y-64264342D02*
X316690476Y-64073866D01*
X316690476Y-64073866D02*
X316690476Y-63835771D01*
X316690476Y-63835771D02*
X316738095Y-63645295D01*
X316738095Y-63645295D02*
X316785714Y-63550057D01*
X316785714Y-63550057D02*
X316833333Y-63502438D01*
X316833333Y-63502438D02*
X316928571Y-63454819D01*
D11*
X307371429Y-70203855D02*
X307371429Y-69403855D01*
X307371429Y-69403855D02*
X307828572Y-70203855D01*
X307828572Y-70203855D02*
X307828572Y-69403855D01*
X308666667Y-70127664D02*
X308628571Y-70165760D01*
X308628571Y-70165760D02*
X308514286Y-70203855D01*
X308514286Y-70203855D02*
X308438095Y-70203855D01*
X308438095Y-70203855D02*
X308323809Y-70165760D01*
X308323809Y-70165760D02*
X308247619Y-70089569D01*
X308247619Y-70089569D02*
X308209524Y-70013379D01*
X308209524Y-70013379D02*
X308171428Y-69860998D01*
X308171428Y-69860998D02*
X308171428Y-69746712D01*
X308171428Y-69746712D02*
X308209524Y-69594331D01*
X308209524Y-69594331D02*
X308247619Y-69518140D01*
X308247619Y-69518140D02*
X308323809Y-69441950D01*
X308323809Y-69441950D02*
X308438095Y-69403855D01*
X308438095Y-69403855D02*
X308514286Y-69403855D01*
X308514286Y-69403855D02*
X308628571Y-69441950D01*
X308628571Y-69441950D02*
X308666667Y-69480045D01*
X307352381Y-75283855D02*
X307352381Y-74483855D01*
X307352381Y-74483855D02*
X307809524Y-75283855D01*
X307809524Y-75283855D02*
X307809524Y-74483855D01*
X308342857Y-74483855D02*
X308495238Y-74483855D01*
X308495238Y-74483855D02*
X308571428Y-74521950D01*
X308571428Y-74521950D02*
X308647619Y-74598140D01*
X308647619Y-74598140D02*
X308685714Y-74750521D01*
X308685714Y-74750521D02*
X308685714Y-75017188D01*
X308685714Y-75017188D02*
X308647619Y-75169569D01*
X308647619Y-75169569D02*
X308571428Y-75245760D01*
X308571428Y-75245760D02*
X308495238Y-75283855D01*
X308495238Y-75283855D02*
X308342857Y-75283855D01*
X308342857Y-75283855D02*
X308266666Y-75245760D01*
X308266666Y-75245760D02*
X308190476Y-75169569D01*
X308190476Y-75169569D02*
X308152380Y-75017188D01*
X308152380Y-75017188D02*
X308152380Y-74750521D01*
X308152380Y-74750521D02*
X308190476Y-74598140D01*
X308190476Y-74598140D02*
X308266666Y-74521950D01*
X308266666Y-74521950D02*
X308342857Y-74483855D01*
X307371429Y-80287664D02*
X307333333Y-80325760D01*
X307333333Y-80325760D02*
X307219048Y-80363855D01*
X307219048Y-80363855D02*
X307142857Y-80363855D01*
X307142857Y-80363855D02*
X307028571Y-80325760D01*
X307028571Y-80325760D02*
X306952381Y-80249569D01*
X306952381Y-80249569D02*
X306914286Y-80173379D01*
X306914286Y-80173379D02*
X306876190Y-80020998D01*
X306876190Y-80020998D02*
X306876190Y-79906712D01*
X306876190Y-79906712D02*
X306914286Y-79754331D01*
X306914286Y-79754331D02*
X306952381Y-79678140D01*
X306952381Y-79678140D02*
X307028571Y-79601950D01*
X307028571Y-79601950D02*
X307142857Y-79563855D01*
X307142857Y-79563855D02*
X307219048Y-79563855D01*
X307219048Y-79563855D02*
X307333333Y-79601950D01*
X307333333Y-79601950D02*
X307371429Y-79640045D01*
X307866667Y-79563855D02*
X308019048Y-79563855D01*
X308019048Y-79563855D02*
X308095238Y-79601950D01*
X308095238Y-79601950D02*
X308171429Y-79678140D01*
X308171429Y-79678140D02*
X308209524Y-79830521D01*
X308209524Y-79830521D02*
X308209524Y-80097188D01*
X308209524Y-80097188D02*
X308171429Y-80249569D01*
X308171429Y-80249569D02*
X308095238Y-80325760D01*
X308095238Y-80325760D02*
X308019048Y-80363855D01*
X308019048Y-80363855D02*
X307866667Y-80363855D01*
X307866667Y-80363855D02*
X307790476Y-80325760D01*
X307790476Y-80325760D02*
X307714286Y-80249569D01*
X307714286Y-80249569D02*
X307676190Y-80097188D01*
X307676190Y-80097188D02*
X307676190Y-79830521D01*
X307676190Y-79830521D02*
X307714286Y-79678140D01*
X307714286Y-79678140D02*
X307790476Y-79601950D01*
X307790476Y-79601950D02*
X307866667Y-79563855D01*
X308552381Y-80363855D02*
X308552381Y-79563855D01*
X308552381Y-79563855D02*
X308819047Y-80135283D01*
X308819047Y-80135283D02*
X309085714Y-79563855D01*
X309085714Y-79563855D02*
X309085714Y-80363855D01*
D13*
X315357142Y-80454819D02*
X315023809Y-79978628D01*
X314785714Y-80454819D02*
X314785714Y-79454819D01*
X314785714Y-79454819D02*
X315166666Y-79454819D01*
X315166666Y-79454819D02*
X315261904Y-79502438D01*
X315261904Y-79502438D02*
X315309523Y-79550057D01*
X315309523Y-79550057D02*
X315357142Y-79645295D01*
X315357142Y-79645295D02*
X315357142Y-79788152D01*
X315357142Y-79788152D02*
X315309523Y-79883390D01*
X315309523Y-79883390D02*
X315261904Y-79931009D01*
X315261904Y-79931009D02*
X315166666Y-79978628D01*
X315166666Y-79978628D02*
X314785714Y-79978628D01*
X316309523Y-80454819D02*
X315738095Y-80454819D01*
X316023809Y-80454819D02*
X316023809Y-79454819D01*
X316023809Y-79454819D02*
X315928571Y-79597676D01*
X315928571Y-79597676D02*
X315833333Y-79692914D01*
X315833333Y-79692914D02*
X315738095Y-79740533D01*
X317261904Y-80454819D02*
X316690476Y-80454819D01*
X316976190Y-80454819D02*
X316976190Y-79454819D01*
X316976190Y-79454819D02*
X316880952Y-79597676D01*
X316880952Y-79597676D02*
X316785714Y-79692914D01*
X316785714Y-79692914D02*
X316690476Y-79740533D01*
D11*
X283371429Y-23287664D02*
X283333333Y-23325760D01*
X283333333Y-23325760D02*
X283219048Y-23363855D01*
X283219048Y-23363855D02*
X283142857Y-23363855D01*
X283142857Y-23363855D02*
X283028571Y-23325760D01*
X283028571Y-23325760D02*
X282952381Y-23249569D01*
X282952381Y-23249569D02*
X282914286Y-23173379D01*
X282914286Y-23173379D02*
X282876190Y-23020998D01*
X282876190Y-23020998D02*
X282876190Y-22906712D01*
X282876190Y-22906712D02*
X282914286Y-22754331D01*
X282914286Y-22754331D02*
X282952381Y-22678140D01*
X282952381Y-22678140D02*
X283028571Y-22601950D01*
X283028571Y-22601950D02*
X283142857Y-22563855D01*
X283142857Y-22563855D02*
X283219048Y-22563855D01*
X283219048Y-22563855D02*
X283333333Y-22601950D01*
X283333333Y-22601950D02*
X283371429Y-22640045D01*
X283866667Y-22563855D02*
X284019048Y-22563855D01*
X284019048Y-22563855D02*
X284095238Y-22601950D01*
X284095238Y-22601950D02*
X284171429Y-22678140D01*
X284171429Y-22678140D02*
X284209524Y-22830521D01*
X284209524Y-22830521D02*
X284209524Y-23097188D01*
X284209524Y-23097188D02*
X284171429Y-23249569D01*
X284171429Y-23249569D02*
X284095238Y-23325760D01*
X284095238Y-23325760D02*
X284019048Y-23363855D01*
X284019048Y-23363855D02*
X283866667Y-23363855D01*
X283866667Y-23363855D02*
X283790476Y-23325760D01*
X283790476Y-23325760D02*
X283714286Y-23249569D01*
X283714286Y-23249569D02*
X283676190Y-23097188D01*
X283676190Y-23097188D02*
X283676190Y-22830521D01*
X283676190Y-22830521D02*
X283714286Y-22678140D01*
X283714286Y-22678140D02*
X283790476Y-22601950D01*
X283790476Y-22601950D02*
X283866667Y-22563855D01*
X284552381Y-23363855D02*
X284552381Y-22563855D01*
X284552381Y-22563855D02*
X284819047Y-23135283D01*
X284819047Y-23135283D02*
X285085714Y-22563855D01*
X285085714Y-22563855D02*
X285085714Y-23363855D01*
D13*
X283833333Y-31454819D02*
X283500000Y-30978628D01*
X283261905Y-31454819D02*
X283261905Y-30454819D01*
X283261905Y-30454819D02*
X283642857Y-30454819D01*
X283642857Y-30454819D02*
X283738095Y-30502438D01*
X283738095Y-30502438D02*
X283785714Y-30550057D01*
X283785714Y-30550057D02*
X283833333Y-30645295D01*
X283833333Y-30645295D02*
X283833333Y-30788152D01*
X283833333Y-30788152D02*
X283785714Y-30883390D01*
X283785714Y-30883390D02*
X283738095Y-30931009D01*
X283738095Y-30931009D02*
X283642857Y-30978628D01*
X283642857Y-30978628D02*
X283261905Y-30978628D01*
X284404762Y-30883390D02*
X284309524Y-30835771D01*
X284309524Y-30835771D02*
X284261905Y-30788152D01*
X284261905Y-30788152D02*
X284214286Y-30692914D01*
X284214286Y-30692914D02*
X284214286Y-30645295D01*
X284214286Y-30645295D02*
X284261905Y-30550057D01*
X284261905Y-30550057D02*
X284309524Y-30502438D01*
X284309524Y-30502438D02*
X284404762Y-30454819D01*
X284404762Y-30454819D02*
X284595238Y-30454819D01*
X284595238Y-30454819D02*
X284690476Y-30502438D01*
X284690476Y-30502438D02*
X284738095Y-30550057D01*
X284738095Y-30550057D02*
X284785714Y-30645295D01*
X284785714Y-30645295D02*
X284785714Y-30692914D01*
X284785714Y-30692914D02*
X284738095Y-30788152D01*
X284738095Y-30788152D02*
X284690476Y-30835771D01*
X284690476Y-30835771D02*
X284595238Y-30883390D01*
X284595238Y-30883390D02*
X284404762Y-30883390D01*
X284404762Y-30883390D02*
X284309524Y-30931009D01*
X284309524Y-30931009D02*
X284261905Y-30978628D01*
X284261905Y-30978628D02*
X284214286Y-31073866D01*
X284214286Y-31073866D02*
X284214286Y-31264342D01*
X284214286Y-31264342D02*
X284261905Y-31359580D01*
X284261905Y-31359580D02*
X284309524Y-31407200D01*
X284309524Y-31407200D02*
X284404762Y-31454819D01*
X284404762Y-31454819D02*
X284595238Y-31454819D01*
X284595238Y-31454819D02*
X284690476Y-31407200D01*
X284690476Y-31407200D02*
X284738095Y-31359580D01*
X284738095Y-31359580D02*
X284785714Y-31264342D01*
X284785714Y-31264342D02*
X284785714Y-31073866D01*
X284785714Y-31073866D02*
X284738095Y-30978628D01*
X284738095Y-30978628D02*
X284690476Y-30931009D01*
X284690476Y-30931009D02*
X284595238Y-30883390D01*
D11*
X288432381Y-23363855D02*
X288432381Y-22563855D01*
X288432381Y-22563855D02*
X288889524Y-23363855D01*
X288889524Y-23363855D02*
X288889524Y-22563855D01*
X289422857Y-22563855D02*
X289575238Y-22563855D01*
X289575238Y-22563855D02*
X289651428Y-22601950D01*
X289651428Y-22601950D02*
X289727619Y-22678140D01*
X289727619Y-22678140D02*
X289765714Y-22830521D01*
X289765714Y-22830521D02*
X289765714Y-23097188D01*
X289765714Y-23097188D02*
X289727619Y-23249569D01*
X289727619Y-23249569D02*
X289651428Y-23325760D01*
X289651428Y-23325760D02*
X289575238Y-23363855D01*
X289575238Y-23363855D02*
X289422857Y-23363855D01*
X289422857Y-23363855D02*
X289346666Y-23325760D01*
X289346666Y-23325760D02*
X289270476Y-23249569D01*
X289270476Y-23249569D02*
X289232380Y-23097188D01*
X289232380Y-23097188D02*
X289232380Y-22830521D01*
X289232380Y-22830521D02*
X289270476Y-22678140D01*
X289270476Y-22678140D02*
X289346666Y-22601950D01*
X289346666Y-22601950D02*
X289422857Y-22563855D01*
X293531429Y-23363855D02*
X293531429Y-22563855D01*
X293531429Y-22563855D02*
X293988572Y-23363855D01*
X293988572Y-23363855D02*
X293988572Y-22563855D01*
X294826667Y-23287664D02*
X294788571Y-23325760D01*
X294788571Y-23325760D02*
X294674286Y-23363855D01*
X294674286Y-23363855D02*
X294598095Y-23363855D01*
X294598095Y-23363855D02*
X294483809Y-23325760D01*
X294483809Y-23325760D02*
X294407619Y-23249569D01*
X294407619Y-23249569D02*
X294369524Y-23173379D01*
X294369524Y-23173379D02*
X294331428Y-23020998D01*
X294331428Y-23020998D02*
X294331428Y-22906712D01*
X294331428Y-22906712D02*
X294369524Y-22754331D01*
X294369524Y-22754331D02*
X294407619Y-22678140D01*
X294407619Y-22678140D02*
X294483809Y-22601950D01*
X294483809Y-22601950D02*
X294598095Y-22563855D01*
X294598095Y-22563855D02*
X294674286Y-22563855D01*
X294674286Y-22563855D02*
X294788571Y-22601950D01*
X294788571Y-22601950D02*
X294826667Y-22640045D01*
X307371429Y-86203855D02*
X307371429Y-85403855D01*
X307371429Y-85403855D02*
X307828572Y-86203855D01*
X307828572Y-86203855D02*
X307828572Y-85403855D01*
X308666667Y-86127664D02*
X308628571Y-86165760D01*
X308628571Y-86165760D02*
X308514286Y-86203855D01*
X308514286Y-86203855D02*
X308438095Y-86203855D01*
X308438095Y-86203855D02*
X308323809Y-86165760D01*
X308323809Y-86165760D02*
X308247619Y-86089569D01*
X308247619Y-86089569D02*
X308209524Y-86013379D01*
X308209524Y-86013379D02*
X308171428Y-85860998D01*
X308171428Y-85860998D02*
X308171428Y-85746712D01*
X308171428Y-85746712D02*
X308209524Y-85594331D01*
X308209524Y-85594331D02*
X308247619Y-85518140D01*
X308247619Y-85518140D02*
X308323809Y-85441950D01*
X308323809Y-85441950D02*
X308438095Y-85403855D01*
X308438095Y-85403855D02*
X308514286Y-85403855D01*
X308514286Y-85403855D02*
X308628571Y-85441950D01*
X308628571Y-85441950D02*
X308666667Y-85480045D01*
X307352381Y-91283855D02*
X307352381Y-90483855D01*
X307352381Y-90483855D02*
X307809524Y-91283855D01*
X307809524Y-91283855D02*
X307809524Y-90483855D01*
X308342857Y-90483855D02*
X308495238Y-90483855D01*
X308495238Y-90483855D02*
X308571428Y-90521950D01*
X308571428Y-90521950D02*
X308647619Y-90598140D01*
X308647619Y-90598140D02*
X308685714Y-90750521D01*
X308685714Y-90750521D02*
X308685714Y-91017188D01*
X308685714Y-91017188D02*
X308647619Y-91169569D01*
X308647619Y-91169569D02*
X308571428Y-91245760D01*
X308571428Y-91245760D02*
X308495238Y-91283855D01*
X308495238Y-91283855D02*
X308342857Y-91283855D01*
X308342857Y-91283855D02*
X308266666Y-91245760D01*
X308266666Y-91245760D02*
X308190476Y-91169569D01*
X308190476Y-91169569D02*
X308152380Y-91017188D01*
X308152380Y-91017188D02*
X308152380Y-90750521D01*
X308152380Y-90750521D02*
X308190476Y-90598140D01*
X308190476Y-90598140D02*
X308266666Y-90521950D01*
X308266666Y-90521950D02*
X308342857Y-90483855D01*
X307371429Y-96287664D02*
X307333333Y-96325760D01*
X307333333Y-96325760D02*
X307219048Y-96363855D01*
X307219048Y-96363855D02*
X307142857Y-96363855D01*
X307142857Y-96363855D02*
X307028571Y-96325760D01*
X307028571Y-96325760D02*
X306952381Y-96249569D01*
X306952381Y-96249569D02*
X306914286Y-96173379D01*
X306914286Y-96173379D02*
X306876190Y-96020998D01*
X306876190Y-96020998D02*
X306876190Y-95906712D01*
X306876190Y-95906712D02*
X306914286Y-95754331D01*
X306914286Y-95754331D02*
X306952381Y-95678140D01*
X306952381Y-95678140D02*
X307028571Y-95601950D01*
X307028571Y-95601950D02*
X307142857Y-95563855D01*
X307142857Y-95563855D02*
X307219048Y-95563855D01*
X307219048Y-95563855D02*
X307333333Y-95601950D01*
X307333333Y-95601950D02*
X307371429Y-95640045D01*
X307866667Y-95563855D02*
X308019048Y-95563855D01*
X308019048Y-95563855D02*
X308095238Y-95601950D01*
X308095238Y-95601950D02*
X308171429Y-95678140D01*
X308171429Y-95678140D02*
X308209524Y-95830521D01*
X308209524Y-95830521D02*
X308209524Y-96097188D01*
X308209524Y-96097188D02*
X308171429Y-96249569D01*
X308171429Y-96249569D02*
X308095238Y-96325760D01*
X308095238Y-96325760D02*
X308019048Y-96363855D01*
X308019048Y-96363855D02*
X307866667Y-96363855D01*
X307866667Y-96363855D02*
X307790476Y-96325760D01*
X307790476Y-96325760D02*
X307714286Y-96249569D01*
X307714286Y-96249569D02*
X307676190Y-96097188D01*
X307676190Y-96097188D02*
X307676190Y-95830521D01*
X307676190Y-95830521D02*
X307714286Y-95678140D01*
X307714286Y-95678140D02*
X307790476Y-95601950D01*
X307790476Y-95601950D02*
X307866667Y-95563855D01*
X308552381Y-96363855D02*
X308552381Y-95563855D01*
X308552381Y-95563855D02*
X308819047Y-96135283D01*
X308819047Y-96135283D02*
X309085714Y-95563855D01*
X309085714Y-95563855D02*
X309085714Y-96363855D01*
D13*
X315357142Y-96454819D02*
X315023809Y-95978628D01*
X314785714Y-96454819D02*
X314785714Y-95454819D01*
X314785714Y-95454819D02*
X315166666Y-95454819D01*
X315166666Y-95454819D02*
X315261904Y-95502438D01*
X315261904Y-95502438D02*
X315309523Y-95550057D01*
X315309523Y-95550057D02*
X315357142Y-95645295D01*
X315357142Y-95645295D02*
X315357142Y-95788152D01*
X315357142Y-95788152D02*
X315309523Y-95883390D01*
X315309523Y-95883390D02*
X315261904Y-95931009D01*
X315261904Y-95931009D02*
X315166666Y-95978628D01*
X315166666Y-95978628D02*
X314785714Y-95978628D01*
X316309523Y-96454819D02*
X315738095Y-96454819D01*
X316023809Y-96454819D02*
X316023809Y-95454819D01*
X316023809Y-95454819D02*
X315928571Y-95597676D01*
X315928571Y-95597676D02*
X315833333Y-95692914D01*
X315833333Y-95692914D02*
X315738095Y-95740533D01*
X316690476Y-95550057D02*
X316738095Y-95502438D01*
X316738095Y-95502438D02*
X316833333Y-95454819D01*
X316833333Y-95454819D02*
X317071428Y-95454819D01*
X317071428Y-95454819D02*
X317166666Y-95502438D01*
X317166666Y-95502438D02*
X317214285Y-95550057D01*
X317214285Y-95550057D02*
X317261904Y-95645295D01*
X317261904Y-95645295D02*
X317261904Y-95740533D01*
X317261904Y-95740533D02*
X317214285Y-95883390D01*
X317214285Y-95883390D02*
X316642857Y-96454819D01*
X316642857Y-96454819D02*
X317261904Y-96454819D01*
D11*
X307371429Y-150203855D02*
X307371429Y-149403855D01*
X307371429Y-149403855D02*
X307828572Y-150203855D01*
X307828572Y-150203855D02*
X307828572Y-149403855D01*
X308666667Y-150127664D02*
X308628571Y-150165760D01*
X308628571Y-150165760D02*
X308514286Y-150203855D01*
X308514286Y-150203855D02*
X308438095Y-150203855D01*
X308438095Y-150203855D02*
X308323809Y-150165760D01*
X308323809Y-150165760D02*
X308247619Y-150089569D01*
X308247619Y-150089569D02*
X308209524Y-150013379D01*
X308209524Y-150013379D02*
X308171428Y-149860998D01*
X308171428Y-149860998D02*
X308171428Y-149746712D01*
X308171428Y-149746712D02*
X308209524Y-149594331D01*
X308209524Y-149594331D02*
X308247619Y-149518140D01*
X308247619Y-149518140D02*
X308323809Y-149441950D01*
X308323809Y-149441950D02*
X308438095Y-149403855D01*
X308438095Y-149403855D02*
X308514286Y-149403855D01*
X308514286Y-149403855D02*
X308628571Y-149441950D01*
X308628571Y-149441950D02*
X308666667Y-149480045D01*
X307352381Y-155283855D02*
X307352381Y-154483855D01*
X307352381Y-154483855D02*
X307809524Y-155283855D01*
X307809524Y-155283855D02*
X307809524Y-154483855D01*
X308342857Y-154483855D02*
X308495238Y-154483855D01*
X308495238Y-154483855D02*
X308571428Y-154521950D01*
X308571428Y-154521950D02*
X308647619Y-154598140D01*
X308647619Y-154598140D02*
X308685714Y-154750521D01*
X308685714Y-154750521D02*
X308685714Y-155017188D01*
X308685714Y-155017188D02*
X308647619Y-155169569D01*
X308647619Y-155169569D02*
X308571428Y-155245760D01*
X308571428Y-155245760D02*
X308495238Y-155283855D01*
X308495238Y-155283855D02*
X308342857Y-155283855D01*
X308342857Y-155283855D02*
X308266666Y-155245760D01*
X308266666Y-155245760D02*
X308190476Y-155169569D01*
X308190476Y-155169569D02*
X308152380Y-155017188D01*
X308152380Y-155017188D02*
X308152380Y-154750521D01*
X308152380Y-154750521D02*
X308190476Y-154598140D01*
X308190476Y-154598140D02*
X308266666Y-154521950D01*
X308266666Y-154521950D02*
X308342857Y-154483855D01*
X307371429Y-160287664D02*
X307333333Y-160325760D01*
X307333333Y-160325760D02*
X307219048Y-160363855D01*
X307219048Y-160363855D02*
X307142857Y-160363855D01*
X307142857Y-160363855D02*
X307028571Y-160325760D01*
X307028571Y-160325760D02*
X306952381Y-160249569D01*
X306952381Y-160249569D02*
X306914286Y-160173379D01*
X306914286Y-160173379D02*
X306876190Y-160020998D01*
X306876190Y-160020998D02*
X306876190Y-159906712D01*
X306876190Y-159906712D02*
X306914286Y-159754331D01*
X306914286Y-159754331D02*
X306952381Y-159678140D01*
X306952381Y-159678140D02*
X307028571Y-159601950D01*
X307028571Y-159601950D02*
X307142857Y-159563855D01*
X307142857Y-159563855D02*
X307219048Y-159563855D01*
X307219048Y-159563855D02*
X307333333Y-159601950D01*
X307333333Y-159601950D02*
X307371429Y-159640045D01*
X307866667Y-159563855D02*
X308019048Y-159563855D01*
X308019048Y-159563855D02*
X308095238Y-159601950D01*
X308095238Y-159601950D02*
X308171429Y-159678140D01*
X308171429Y-159678140D02*
X308209524Y-159830521D01*
X308209524Y-159830521D02*
X308209524Y-160097188D01*
X308209524Y-160097188D02*
X308171429Y-160249569D01*
X308171429Y-160249569D02*
X308095238Y-160325760D01*
X308095238Y-160325760D02*
X308019048Y-160363855D01*
X308019048Y-160363855D02*
X307866667Y-160363855D01*
X307866667Y-160363855D02*
X307790476Y-160325760D01*
X307790476Y-160325760D02*
X307714286Y-160249569D01*
X307714286Y-160249569D02*
X307676190Y-160097188D01*
X307676190Y-160097188D02*
X307676190Y-159830521D01*
X307676190Y-159830521D02*
X307714286Y-159678140D01*
X307714286Y-159678140D02*
X307790476Y-159601950D01*
X307790476Y-159601950D02*
X307866667Y-159563855D01*
X308552381Y-160363855D02*
X308552381Y-159563855D01*
X308552381Y-159563855D02*
X308819047Y-160135283D01*
X308819047Y-160135283D02*
X309085714Y-159563855D01*
X309085714Y-159563855D02*
X309085714Y-160363855D01*
D13*
X315357142Y-160454819D02*
X315023809Y-159978628D01*
X314785714Y-160454819D02*
X314785714Y-159454819D01*
X314785714Y-159454819D02*
X315166666Y-159454819D01*
X315166666Y-159454819D02*
X315261904Y-159502438D01*
X315261904Y-159502438D02*
X315309523Y-159550057D01*
X315309523Y-159550057D02*
X315357142Y-159645295D01*
X315357142Y-159645295D02*
X315357142Y-159788152D01*
X315357142Y-159788152D02*
X315309523Y-159883390D01*
X315309523Y-159883390D02*
X315261904Y-159931009D01*
X315261904Y-159931009D02*
X315166666Y-159978628D01*
X315166666Y-159978628D02*
X314785714Y-159978628D01*
X316309523Y-160454819D02*
X315738095Y-160454819D01*
X316023809Y-160454819D02*
X316023809Y-159454819D01*
X316023809Y-159454819D02*
X315928571Y-159597676D01*
X315928571Y-159597676D02*
X315833333Y-159692914D01*
X315833333Y-159692914D02*
X315738095Y-159740533D01*
X317166666Y-159454819D02*
X316976190Y-159454819D01*
X316976190Y-159454819D02*
X316880952Y-159502438D01*
X316880952Y-159502438D02*
X316833333Y-159550057D01*
X316833333Y-159550057D02*
X316738095Y-159692914D01*
X316738095Y-159692914D02*
X316690476Y-159883390D01*
X316690476Y-159883390D02*
X316690476Y-160264342D01*
X316690476Y-160264342D02*
X316738095Y-160359580D01*
X316738095Y-160359580D02*
X316785714Y-160407200D01*
X316785714Y-160407200D02*
X316880952Y-160454819D01*
X316880952Y-160454819D02*
X317071428Y-160454819D01*
X317071428Y-160454819D02*
X317166666Y-160407200D01*
X317166666Y-160407200D02*
X317214285Y-160359580D01*
X317214285Y-160359580D02*
X317261904Y-160264342D01*
X317261904Y-160264342D02*
X317261904Y-160026247D01*
X317261904Y-160026247D02*
X317214285Y-159931009D01*
X317214285Y-159931009D02*
X317166666Y-159883390D01*
X317166666Y-159883390D02*
X317071428Y-159835771D01*
X317071428Y-159835771D02*
X316880952Y-159835771D01*
X316880952Y-159835771D02*
X316785714Y-159883390D01*
X316785714Y-159883390D02*
X316738095Y-159931009D01*
X316738095Y-159931009D02*
X316690476Y-160026247D01*
D11*
X41847619Y-189563855D02*
X41466667Y-189563855D01*
X41466667Y-189563855D02*
X41428571Y-189944807D01*
X41428571Y-189944807D02*
X41466667Y-189906712D01*
X41466667Y-189906712D02*
X41542857Y-189868617D01*
X41542857Y-189868617D02*
X41733333Y-189868617D01*
X41733333Y-189868617D02*
X41809524Y-189906712D01*
X41809524Y-189906712D02*
X41847619Y-189944807D01*
X41847619Y-189944807D02*
X41885714Y-190020998D01*
X41885714Y-190020998D02*
X41885714Y-190211474D01*
X41885714Y-190211474D02*
X41847619Y-190287664D01*
X41847619Y-190287664D02*
X41809524Y-190325760D01*
X41809524Y-190325760D02*
X41733333Y-190363855D01*
X41733333Y-190363855D02*
X41542857Y-190363855D01*
X41542857Y-190363855D02*
X41466667Y-190325760D01*
X41466667Y-190325760D02*
X41428571Y-190287664D01*
X42114286Y-189563855D02*
X42380953Y-190363855D01*
X42380953Y-190363855D02*
X42647619Y-189563855D01*
D13*
X40547619Y-197454819D02*
X40738095Y-197454819D01*
X40738095Y-197454819D02*
X40833333Y-197502438D01*
X40833333Y-197502438D02*
X40928571Y-197597676D01*
X40928571Y-197597676D02*
X40976190Y-197788152D01*
X40976190Y-197788152D02*
X40976190Y-198121485D01*
X40976190Y-198121485D02*
X40928571Y-198311961D01*
X40928571Y-198311961D02*
X40833333Y-198407200D01*
X40833333Y-198407200D02*
X40738095Y-198454819D01*
X40738095Y-198454819D02*
X40547619Y-198454819D01*
X40547619Y-198454819D02*
X40452381Y-198407200D01*
X40452381Y-198407200D02*
X40357143Y-198311961D01*
X40357143Y-198311961D02*
X40309524Y-198121485D01*
X40309524Y-198121485D02*
X40309524Y-197788152D01*
X40309524Y-197788152D02*
X40357143Y-197597676D01*
X40357143Y-197597676D02*
X40452381Y-197502438D01*
X40452381Y-197502438D02*
X40547619Y-197454819D01*
X41880952Y-198454819D02*
X41404762Y-198454819D01*
X41404762Y-198454819D02*
X41404762Y-197454819D01*
X42214286Y-197931009D02*
X42547619Y-197931009D01*
X42690476Y-198454819D02*
X42214286Y-198454819D01*
X42214286Y-198454819D02*
X42214286Y-197454819D01*
X42214286Y-197454819D02*
X42690476Y-197454819D01*
X43119048Y-198454819D02*
X43119048Y-197454819D01*
X43119048Y-197454819D02*
X43357143Y-197454819D01*
X43357143Y-197454819D02*
X43500000Y-197502438D01*
X43500000Y-197502438D02*
X43595238Y-197597676D01*
X43595238Y-197597676D02*
X43642857Y-197692914D01*
X43642857Y-197692914D02*
X43690476Y-197883390D01*
X43690476Y-197883390D02*
X43690476Y-198026247D01*
X43690476Y-198026247D02*
X43642857Y-198216723D01*
X43642857Y-198216723D02*
X43595238Y-198311961D01*
X43595238Y-198311961D02*
X43500000Y-198407200D01*
X43500000Y-198407200D02*
X43357143Y-198454819D01*
X43357143Y-198454819D02*
X43119048Y-198454819D01*
D11*
X46470476Y-189601950D02*
X46394286Y-189563855D01*
X46394286Y-189563855D02*
X46280000Y-189563855D01*
X46280000Y-189563855D02*
X46165714Y-189601950D01*
X46165714Y-189601950D02*
X46089524Y-189678140D01*
X46089524Y-189678140D02*
X46051429Y-189754331D01*
X46051429Y-189754331D02*
X46013333Y-189906712D01*
X46013333Y-189906712D02*
X46013333Y-190020998D01*
X46013333Y-190020998D02*
X46051429Y-190173379D01*
X46051429Y-190173379D02*
X46089524Y-190249569D01*
X46089524Y-190249569D02*
X46165714Y-190325760D01*
X46165714Y-190325760D02*
X46280000Y-190363855D01*
X46280000Y-190363855D02*
X46356191Y-190363855D01*
X46356191Y-190363855D02*
X46470476Y-190325760D01*
X46470476Y-190325760D02*
X46508572Y-190287664D01*
X46508572Y-190287664D02*
X46508572Y-190020998D01*
X46508572Y-190020998D02*
X46356191Y-190020998D01*
X46851429Y-190363855D02*
X46851429Y-189563855D01*
X46851429Y-189563855D02*
X47308572Y-190363855D01*
X47308572Y-190363855D02*
X47308572Y-189563855D01*
X47689524Y-190363855D02*
X47689524Y-189563855D01*
X47689524Y-189563855D02*
X47880000Y-189563855D01*
X47880000Y-189563855D02*
X47994286Y-189601950D01*
X47994286Y-189601950D02*
X48070476Y-189678140D01*
X48070476Y-189678140D02*
X48108571Y-189754331D01*
X48108571Y-189754331D02*
X48146667Y-189906712D01*
X48146667Y-189906712D02*
X48146667Y-190020998D01*
X48146667Y-190020998D02*
X48108571Y-190173379D01*
X48108571Y-190173379D02*
X48070476Y-190249569D01*
X48070476Y-190249569D02*
X47994286Y-190325760D01*
X47994286Y-190325760D02*
X47880000Y-190363855D01*
X47880000Y-190363855D02*
X47689524Y-190363855D01*
X51188571Y-190325760D02*
X51302857Y-190363855D01*
X51302857Y-190363855D02*
X51493333Y-190363855D01*
X51493333Y-190363855D02*
X51569524Y-190325760D01*
X51569524Y-190325760D02*
X51607619Y-190287664D01*
X51607619Y-190287664D02*
X51645714Y-190211474D01*
X51645714Y-190211474D02*
X51645714Y-190135283D01*
X51645714Y-190135283D02*
X51607619Y-190059093D01*
X51607619Y-190059093D02*
X51569524Y-190020998D01*
X51569524Y-190020998D02*
X51493333Y-189982902D01*
X51493333Y-189982902D02*
X51340952Y-189944807D01*
X51340952Y-189944807D02*
X51264762Y-189906712D01*
X51264762Y-189906712D02*
X51226667Y-189868617D01*
X51226667Y-189868617D02*
X51188571Y-189792426D01*
X51188571Y-189792426D02*
X51188571Y-189716236D01*
X51188571Y-189716236D02*
X51226667Y-189640045D01*
X51226667Y-189640045D02*
X51264762Y-189601950D01*
X51264762Y-189601950D02*
X51340952Y-189563855D01*
X51340952Y-189563855D02*
X51531429Y-189563855D01*
X51531429Y-189563855D02*
X51645714Y-189601950D01*
X51988572Y-190363855D02*
X51988572Y-189563855D01*
X51988572Y-189563855D02*
X52179048Y-189563855D01*
X52179048Y-189563855D02*
X52293334Y-189601950D01*
X52293334Y-189601950D02*
X52369524Y-189678140D01*
X52369524Y-189678140D02*
X52407619Y-189754331D01*
X52407619Y-189754331D02*
X52445715Y-189906712D01*
X52445715Y-189906712D02*
X52445715Y-190020998D01*
X52445715Y-190020998D02*
X52407619Y-190173379D01*
X52407619Y-190173379D02*
X52369524Y-190249569D01*
X52369524Y-190249569D02*
X52293334Y-190325760D01*
X52293334Y-190325760D02*
X52179048Y-190363855D01*
X52179048Y-190363855D02*
X51988572Y-190363855D01*
X52750476Y-190135283D02*
X53131429Y-190135283D01*
X52674286Y-190363855D02*
X52940953Y-189563855D01*
X52940953Y-189563855D02*
X53207619Y-190363855D01*
X56287618Y-190325760D02*
X56401904Y-190363855D01*
X56401904Y-190363855D02*
X56592380Y-190363855D01*
X56592380Y-190363855D02*
X56668571Y-190325760D01*
X56668571Y-190325760D02*
X56706666Y-190287664D01*
X56706666Y-190287664D02*
X56744761Y-190211474D01*
X56744761Y-190211474D02*
X56744761Y-190135283D01*
X56744761Y-190135283D02*
X56706666Y-190059093D01*
X56706666Y-190059093D02*
X56668571Y-190020998D01*
X56668571Y-190020998D02*
X56592380Y-189982902D01*
X56592380Y-189982902D02*
X56439999Y-189944807D01*
X56439999Y-189944807D02*
X56363809Y-189906712D01*
X56363809Y-189906712D02*
X56325714Y-189868617D01*
X56325714Y-189868617D02*
X56287618Y-189792426D01*
X56287618Y-189792426D02*
X56287618Y-189716236D01*
X56287618Y-189716236D02*
X56325714Y-189640045D01*
X56325714Y-189640045D02*
X56363809Y-189601950D01*
X56363809Y-189601950D02*
X56439999Y-189563855D01*
X56439999Y-189563855D02*
X56630476Y-189563855D01*
X56630476Y-189563855D02*
X56744761Y-189601950D01*
X57544762Y-190287664D02*
X57506666Y-190325760D01*
X57506666Y-190325760D02*
X57392381Y-190363855D01*
X57392381Y-190363855D02*
X57316190Y-190363855D01*
X57316190Y-190363855D02*
X57201904Y-190325760D01*
X57201904Y-190325760D02*
X57125714Y-190249569D01*
X57125714Y-190249569D02*
X57087619Y-190173379D01*
X57087619Y-190173379D02*
X57049523Y-190020998D01*
X57049523Y-190020998D02*
X57049523Y-189906712D01*
X57049523Y-189906712D02*
X57087619Y-189754331D01*
X57087619Y-189754331D02*
X57125714Y-189678140D01*
X57125714Y-189678140D02*
X57201904Y-189601950D01*
X57201904Y-189601950D02*
X57316190Y-189563855D01*
X57316190Y-189563855D02*
X57392381Y-189563855D01*
X57392381Y-189563855D02*
X57506666Y-189601950D01*
X57506666Y-189601950D02*
X57544762Y-189640045D01*
X58268571Y-190363855D02*
X57887619Y-190363855D01*
X57887619Y-190363855D02*
X57887619Y-189563855D01*
X307371429Y-134203855D02*
X307371429Y-133403855D01*
X307371429Y-133403855D02*
X307828572Y-134203855D01*
X307828572Y-134203855D02*
X307828572Y-133403855D01*
X308666667Y-134127664D02*
X308628571Y-134165760D01*
X308628571Y-134165760D02*
X308514286Y-134203855D01*
X308514286Y-134203855D02*
X308438095Y-134203855D01*
X308438095Y-134203855D02*
X308323809Y-134165760D01*
X308323809Y-134165760D02*
X308247619Y-134089569D01*
X308247619Y-134089569D02*
X308209524Y-134013379D01*
X308209524Y-134013379D02*
X308171428Y-133860998D01*
X308171428Y-133860998D02*
X308171428Y-133746712D01*
X308171428Y-133746712D02*
X308209524Y-133594331D01*
X308209524Y-133594331D02*
X308247619Y-133518140D01*
X308247619Y-133518140D02*
X308323809Y-133441950D01*
X308323809Y-133441950D02*
X308438095Y-133403855D01*
X308438095Y-133403855D02*
X308514286Y-133403855D01*
X308514286Y-133403855D02*
X308628571Y-133441950D01*
X308628571Y-133441950D02*
X308666667Y-133480045D01*
X307352381Y-139283855D02*
X307352381Y-138483855D01*
X307352381Y-138483855D02*
X307809524Y-139283855D01*
X307809524Y-139283855D02*
X307809524Y-138483855D01*
X308342857Y-138483855D02*
X308495238Y-138483855D01*
X308495238Y-138483855D02*
X308571428Y-138521950D01*
X308571428Y-138521950D02*
X308647619Y-138598140D01*
X308647619Y-138598140D02*
X308685714Y-138750521D01*
X308685714Y-138750521D02*
X308685714Y-139017188D01*
X308685714Y-139017188D02*
X308647619Y-139169569D01*
X308647619Y-139169569D02*
X308571428Y-139245760D01*
X308571428Y-139245760D02*
X308495238Y-139283855D01*
X308495238Y-139283855D02*
X308342857Y-139283855D01*
X308342857Y-139283855D02*
X308266666Y-139245760D01*
X308266666Y-139245760D02*
X308190476Y-139169569D01*
X308190476Y-139169569D02*
X308152380Y-139017188D01*
X308152380Y-139017188D02*
X308152380Y-138750521D01*
X308152380Y-138750521D02*
X308190476Y-138598140D01*
X308190476Y-138598140D02*
X308266666Y-138521950D01*
X308266666Y-138521950D02*
X308342857Y-138483855D01*
X307371429Y-144287664D02*
X307333333Y-144325760D01*
X307333333Y-144325760D02*
X307219048Y-144363855D01*
X307219048Y-144363855D02*
X307142857Y-144363855D01*
X307142857Y-144363855D02*
X307028571Y-144325760D01*
X307028571Y-144325760D02*
X306952381Y-144249569D01*
X306952381Y-144249569D02*
X306914286Y-144173379D01*
X306914286Y-144173379D02*
X306876190Y-144020998D01*
X306876190Y-144020998D02*
X306876190Y-143906712D01*
X306876190Y-143906712D02*
X306914286Y-143754331D01*
X306914286Y-143754331D02*
X306952381Y-143678140D01*
X306952381Y-143678140D02*
X307028571Y-143601950D01*
X307028571Y-143601950D02*
X307142857Y-143563855D01*
X307142857Y-143563855D02*
X307219048Y-143563855D01*
X307219048Y-143563855D02*
X307333333Y-143601950D01*
X307333333Y-143601950D02*
X307371429Y-143640045D01*
X307866667Y-143563855D02*
X308019048Y-143563855D01*
X308019048Y-143563855D02*
X308095238Y-143601950D01*
X308095238Y-143601950D02*
X308171429Y-143678140D01*
X308171429Y-143678140D02*
X308209524Y-143830521D01*
X308209524Y-143830521D02*
X308209524Y-144097188D01*
X308209524Y-144097188D02*
X308171429Y-144249569D01*
X308171429Y-144249569D02*
X308095238Y-144325760D01*
X308095238Y-144325760D02*
X308019048Y-144363855D01*
X308019048Y-144363855D02*
X307866667Y-144363855D01*
X307866667Y-144363855D02*
X307790476Y-144325760D01*
X307790476Y-144325760D02*
X307714286Y-144249569D01*
X307714286Y-144249569D02*
X307676190Y-144097188D01*
X307676190Y-144097188D02*
X307676190Y-143830521D01*
X307676190Y-143830521D02*
X307714286Y-143678140D01*
X307714286Y-143678140D02*
X307790476Y-143601950D01*
X307790476Y-143601950D02*
X307866667Y-143563855D01*
X308552381Y-144363855D02*
X308552381Y-143563855D01*
X308552381Y-143563855D02*
X308819047Y-144135283D01*
X308819047Y-144135283D02*
X309085714Y-143563855D01*
X309085714Y-143563855D02*
X309085714Y-144363855D01*
D13*
X315357142Y-144454819D02*
X315023809Y-143978628D01*
X314785714Y-144454819D02*
X314785714Y-143454819D01*
X314785714Y-143454819D02*
X315166666Y-143454819D01*
X315166666Y-143454819D02*
X315261904Y-143502438D01*
X315261904Y-143502438D02*
X315309523Y-143550057D01*
X315309523Y-143550057D02*
X315357142Y-143645295D01*
X315357142Y-143645295D02*
X315357142Y-143788152D01*
X315357142Y-143788152D02*
X315309523Y-143883390D01*
X315309523Y-143883390D02*
X315261904Y-143931009D01*
X315261904Y-143931009D02*
X315166666Y-143978628D01*
X315166666Y-143978628D02*
X314785714Y-143978628D01*
X316309523Y-144454819D02*
X315738095Y-144454819D01*
X316023809Y-144454819D02*
X316023809Y-143454819D01*
X316023809Y-143454819D02*
X315928571Y-143597676D01*
X315928571Y-143597676D02*
X315833333Y-143692914D01*
X315833333Y-143692914D02*
X315738095Y-143740533D01*
X317214285Y-143454819D02*
X316738095Y-143454819D01*
X316738095Y-143454819D02*
X316690476Y-143931009D01*
X316690476Y-143931009D02*
X316738095Y-143883390D01*
X316738095Y-143883390D02*
X316833333Y-143835771D01*
X316833333Y-143835771D02*
X317071428Y-143835771D01*
X317071428Y-143835771D02*
X317166666Y-143883390D01*
X317166666Y-143883390D02*
X317214285Y-143931009D01*
X317214285Y-143931009D02*
X317261904Y-144026247D01*
X317261904Y-144026247D02*
X317261904Y-144264342D01*
X317261904Y-144264342D02*
X317214285Y-144359580D01*
X317214285Y-144359580D02*
X317166666Y-144407200D01*
X317166666Y-144407200D02*
X317071428Y-144454819D01*
X317071428Y-144454819D02*
X316833333Y-144454819D01*
X316833333Y-144454819D02*
X316738095Y-144407200D01*
X316738095Y-144407200D02*
X316690476Y-144359580D01*
D11*
X76723809Y-190363855D02*
X76723809Y-189563855D01*
X76723809Y-189563855D02*
X77180952Y-190363855D01*
X77180952Y-190363855D02*
X77180952Y-189563855D01*
X77561904Y-189944807D02*
X77828570Y-189944807D01*
X77942856Y-190363855D02*
X77561904Y-190363855D01*
X77561904Y-190363855D02*
X77561904Y-189563855D01*
X77561904Y-189563855D02*
X77942856Y-189563855D01*
X78209523Y-189563855D02*
X78742857Y-190363855D01*
X78742857Y-189563855D02*
X78209523Y-190363855D01*
X78933333Y-189563855D02*
X79390476Y-189563855D01*
X79161904Y-190363855D02*
X79161904Y-189563855D01*
X82470476Y-189601950D02*
X82394286Y-189563855D01*
X82394286Y-189563855D02*
X82280000Y-189563855D01*
X82280000Y-189563855D02*
X82165714Y-189601950D01*
X82165714Y-189601950D02*
X82089524Y-189678140D01*
X82089524Y-189678140D02*
X82051429Y-189754331D01*
X82051429Y-189754331D02*
X82013333Y-189906712D01*
X82013333Y-189906712D02*
X82013333Y-190020998D01*
X82013333Y-190020998D02*
X82051429Y-190173379D01*
X82051429Y-190173379D02*
X82089524Y-190249569D01*
X82089524Y-190249569D02*
X82165714Y-190325760D01*
X82165714Y-190325760D02*
X82280000Y-190363855D01*
X82280000Y-190363855D02*
X82356191Y-190363855D01*
X82356191Y-190363855D02*
X82470476Y-190325760D01*
X82470476Y-190325760D02*
X82508572Y-190287664D01*
X82508572Y-190287664D02*
X82508572Y-190020998D01*
X82508572Y-190020998D02*
X82356191Y-190020998D01*
X82851429Y-190363855D02*
X82851429Y-189563855D01*
X82851429Y-189563855D02*
X83308572Y-190363855D01*
X83308572Y-190363855D02*
X83308572Y-189563855D01*
X83689524Y-190363855D02*
X83689524Y-189563855D01*
X83689524Y-189563855D02*
X83880000Y-189563855D01*
X83880000Y-189563855D02*
X83994286Y-189601950D01*
X83994286Y-189601950D02*
X84070476Y-189678140D01*
X84070476Y-189678140D02*
X84108571Y-189754331D01*
X84108571Y-189754331D02*
X84146667Y-189906712D01*
X84146667Y-189906712D02*
X84146667Y-190020998D01*
X84146667Y-190020998D02*
X84108571Y-190173379D01*
X84108571Y-190173379D02*
X84070476Y-190249569D01*
X84070476Y-190249569D02*
X83994286Y-190325760D01*
X83994286Y-190325760D02*
X83880000Y-190363855D01*
X83880000Y-190363855D02*
X83689524Y-190363855D01*
X266371429Y-23287664D02*
X266333333Y-23325760D01*
X266333333Y-23325760D02*
X266219048Y-23363855D01*
X266219048Y-23363855D02*
X266142857Y-23363855D01*
X266142857Y-23363855D02*
X266028571Y-23325760D01*
X266028571Y-23325760D02*
X265952381Y-23249569D01*
X265952381Y-23249569D02*
X265914286Y-23173379D01*
X265914286Y-23173379D02*
X265876190Y-23020998D01*
X265876190Y-23020998D02*
X265876190Y-22906712D01*
X265876190Y-22906712D02*
X265914286Y-22754331D01*
X265914286Y-22754331D02*
X265952381Y-22678140D01*
X265952381Y-22678140D02*
X266028571Y-22601950D01*
X266028571Y-22601950D02*
X266142857Y-22563855D01*
X266142857Y-22563855D02*
X266219048Y-22563855D01*
X266219048Y-22563855D02*
X266333333Y-22601950D01*
X266333333Y-22601950D02*
X266371429Y-22640045D01*
X266866667Y-22563855D02*
X267019048Y-22563855D01*
X267019048Y-22563855D02*
X267095238Y-22601950D01*
X267095238Y-22601950D02*
X267171429Y-22678140D01*
X267171429Y-22678140D02*
X267209524Y-22830521D01*
X267209524Y-22830521D02*
X267209524Y-23097188D01*
X267209524Y-23097188D02*
X267171429Y-23249569D01*
X267171429Y-23249569D02*
X267095238Y-23325760D01*
X267095238Y-23325760D02*
X267019048Y-23363855D01*
X267019048Y-23363855D02*
X266866667Y-23363855D01*
X266866667Y-23363855D02*
X266790476Y-23325760D01*
X266790476Y-23325760D02*
X266714286Y-23249569D01*
X266714286Y-23249569D02*
X266676190Y-23097188D01*
X266676190Y-23097188D02*
X266676190Y-22830521D01*
X266676190Y-22830521D02*
X266714286Y-22678140D01*
X266714286Y-22678140D02*
X266790476Y-22601950D01*
X266790476Y-22601950D02*
X266866667Y-22563855D01*
X267552381Y-23363855D02*
X267552381Y-22563855D01*
X267552381Y-22563855D02*
X267819047Y-23135283D01*
X267819047Y-23135283D02*
X268085714Y-22563855D01*
X268085714Y-22563855D02*
X268085714Y-23363855D01*
D13*
X266833333Y-31454819D02*
X266500000Y-30978628D01*
X266261905Y-31454819D02*
X266261905Y-30454819D01*
X266261905Y-30454819D02*
X266642857Y-30454819D01*
X266642857Y-30454819D02*
X266738095Y-30502438D01*
X266738095Y-30502438D02*
X266785714Y-30550057D01*
X266785714Y-30550057D02*
X266833333Y-30645295D01*
X266833333Y-30645295D02*
X266833333Y-30788152D01*
X266833333Y-30788152D02*
X266785714Y-30883390D01*
X266785714Y-30883390D02*
X266738095Y-30931009D01*
X266738095Y-30931009D02*
X266642857Y-30978628D01*
X266642857Y-30978628D02*
X266261905Y-30978628D01*
X267166667Y-30454819D02*
X267833333Y-30454819D01*
X267833333Y-30454819D02*
X267404762Y-31454819D01*
D11*
X271432381Y-23363855D02*
X271432381Y-22563855D01*
X271432381Y-22563855D02*
X271889524Y-23363855D01*
X271889524Y-23363855D02*
X271889524Y-22563855D01*
X272422857Y-22563855D02*
X272575238Y-22563855D01*
X272575238Y-22563855D02*
X272651428Y-22601950D01*
X272651428Y-22601950D02*
X272727619Y-22678140D01*
X272727619Y-22678140D02*
X272765714Y-22830521D01*
X272765714Y-22830521D02*
X272765714Y-23097188D01*
X272765714Y-23097188D02*
X272727619Y-23249569D01*
X272727619Y-23249569D02*
X272651428Y-23325760D01*
X272651428Y-23325760D02*
X272575238Y-23363855D01*
X272575238Y-23363855D02*
X272422857Y-23363855D01*
X272422857Y-23363855D02*
X272346666Y-23325760D01*
X272346666Y-23325760D02*
X272270476Y-23249569D01*
X272270476Y-23249569D02*
X272232380Y-23097188D01*
X272232380Y-23097188D02*
X272232380Y-22830521D01*
X272232380Y-22830521D02*
X272270476Y-22678140D01*
X272270476Y-22678140D02*
X272346666Y-22601950D01*
X272346666Y-22601950D02*
X272422857Y-22563855D01*
X276531429Y-23363855D02*
X276531429Y-22563855D01*
X276531429Y-22563855D02*
X276988572Y-23363855D01*
X276988572Y-23363855D02*
X276988572Y-22563855D01*
X277826667Y-23287664D02*
X277788571Y-23325760D01*
X277788571Y-23325760D02*
X277674286Y-23363855D01*
X277674286Y-23363855D02*
X277598095Y-23363855D01*
X277598095Y-23363855D02*
X277483809Y-23325760D01*
X277483809Y-23325760D02*
X277407619Y-23249569D01*
X277407619Y-23249569D02*
X277369524Y-23173379D01*
X277369524Y-23173379D02*
X277331428Y-23020998D01*
X277331428Y-23020998D02*
X277331428Y-22906712D01*
X277331428Y-22906712D02*
X277369524Y-22754331D01*
X277369524Y-22754331D02*
X277407619Y-22678140D01*
X277407619Y-22678140D02*
X277483809Y-22601950D01*
X277483809Y-22601950D02*
X277598095Y-22563855D01*
X277598095Y-22563855D02*
X277674286Y-22563855D01*
X277674286Y-22563855D02*
X277788571Y-22601950D01*
X277788571Y-22601950D02*
X277826667Y-22640045D01*
%TO.C,JR5*%
D14*
X230460000Y-25000000D02*
X245700000Y-25000000D01*
X245700000Y-34800000D01*
X230460000Y-34800000D01*
X230460000Y-25000000D01*
%TO.C,JR14*%
X310000000Y-115300000D02*
X319800000Y-115300000D01*
X319800000Y-130540000D01*
X310000000Y-130540000D01*
X310000000Y-115300000D01*
%TO.C,JR3*%
X196460000Y-25000000D02*
X211700000Y-25000000D01*
X211700000Y-34800000D01*
X196460000Y-34800000D01*
X196460000Y-25000000D01*
%TO.C,JR4*%
X213460000Y-25000000D02*
X228700000Y-25000000D01*
X228700000Y-34800000D01*
X213460000Y-34800000D01*
X213460000Y-25000000D01*
%TO.C,JR1*%
X162460000Y-25000000D02*
X177700000Y-25000000D01*
X177700000Y-34800000D01*
X162460000Y-34800000D01*
X162460000Y-25000000D01*
%TO.C,JR6*%
X247460000Y-25000000D02*
X262700000Y-25000000D01*
X262700000Y-34800000D01*
X247460000Y-34800000D01*
X247460000Y-25000000D01*
%TO.C,JR2*%
X179460000Y-25000000D02*
X194700000Y-25000000D01*
X194700000Y-34800000D01*
X179460000Y-34800000D01*
X179460000Y-25000000D01*
%TO.C,JR9*%
X310000000Y-35300000D02*
X319800000Y-35300000D01*
X319800000Y-50540000D01*
X310000000Y-50540000D01*
X310000000Y-35300000D01*
%TO.C,JR13*%
X310000000Y-99300000D02*
X319800000Y-99300000D01*
X319800000Y-114540000D01*
X310000000Y-114540000D01*
X310000000Y-99300000D01*
%TO.C,JR10*%
X310000000Y-51300000D02*
X319800000Y-51300000D01*
X319800000Y-66540000D01*
X310000000Y-66540000D01*
X310000000Y-51300000D01*
%TO.C,JR11*%
X310000000Y-67300000D02*
X319800000Y-67300000D01*
X319800000Y-82540000D01*
X310000000Y-82540000D01*
X310000000Y-67300000D01*
%TO.C,JR8*%
X281460000Y-25000000D02*
X296700000Y-25000000D01*
X296700000Y-34800000D01*
X281460000Y-34800000D01*
X281460000Y-25000000D01*
%TO.C,JR12*%
X310000000Y-83300000D02*
X319800000Y-83300000D01*
X319800000Y-98540000D01*
X310000000Y-98540000D01*
X310000000Y-83300000D01*
%TO.C,JR16*%
X310000000Y-147300000D02*
X319800000Y-147300000D01*
X319800000Y-162540000D01*
X310000000Y-162540000D01*
X310000000Y-147300000D01*
%TO.C,JR15*%
X310000000Y-131300000D02*
X319800000Y-131300000D01*
X319800000Y-146540000D01*
X310000000Y-146540000D01*
X310000000Y-131300000D01*
%TO.C,JR7*%
X264460000Y-25000000D02*
X279700000Y-25000000D01*
X279700000Y-34800000D01*
X264460000Y-34800000D01*
X264460000Y-25000000D01*
%TD*%
M02*
